<?xml version="1.0" encoding="utf-8"?>
<svg version="1.1" id="Layer_1" text-rendering="auto" shape-rendering="auto" image-rendering="auto" color-rendering="auto"
	 xmlns="http://www.w3.org/2000/svg" xmlns:xlink="http://www.w3.org/1999/xlink" x="0px" y="0px" viewBox="0 0 100 66.3"
	 width="100px"
	 style="enable-background:new 0 0 100 66.3;" xml:space="preserve">
<g>
	<g text-rendering="geometricPrecision">
		<g>
			<g>
				<path d="M1.5,37.1L1.5,37.1l21.4-12.4c0.3-0.2,0.7-0.1,0.9,0.3c0.2,0.3,0.1,0.7-0.3,0.9l0,0L2.2,38.3c-0.3,0.2-0.7,0.1-0.9-0.3
					C1.1,37.7,1.2,37.3,1.5,37.1z"/>
				<path d="M1.8,39.5c-0.2,0-0.3,0-0.5-0.1c-0.5-0.1-0.9-0.4-1.1-0.9c-0.5-0.9-0.2-2,0.7-2.5h0l21.4-12.4c0.4-0.2,0.9-0.3,1.4-0.2
					c0.5,0.1,0.9,0.4,1.1,0.9c0.2,0.4,0.3,0.9,0.2,1.4c-0.1,0.5-0.4,0.9-0.9,1.1L2.8,39.3C2.5,39.4,2.2,39.5,1.8,39.5z"/>
			</g>
		</g>
	</g>
	<g text-rendering="geometricPrecision">
		<g>
			<g>
				<path d="M48.8,41.4L48.8,41.4L22.9,25.9c-0.3-0.2-0.4-0.6-0.2-0.9c0.2-0.3,0.6-0.4,0.9-0.2l0,0l25.9,15.5
					c0.3,0.2,0.4,0.6,0.2,0.9S49.1,41.6,48.8,41.4z"/>
				<path d="M49.2,42.7c-0.3,0-0.7-0.1-0.9-0.3l0,0L22.3,26.9c-0.4-0.3-0.7-0.7-0.8-1.1c-0.1-0.5,0-1,0.2-1.4
					c0.3-0.4,0.7-0.7,1.1-0.8c0.5-0.1,1,0,1.4,0.2l25.9,15.5c0.4,0.3,0.7,0.7,0.8,1.1c0.1,0.5,0,1-0.2,1.4c-0.3,0.4-0.7,0.7-1.1,0.8
					C49.5,42.6,49.3,42.7,49.2,42.7z M49.4,40.4L49.4,40.4L49.4,40.4z"/>
			</g>
		</g>
	</g>
	<g text-rendering="geometricPrecision">
		<g>
			<g>
				<path d="M48.8,40.2L48.8,40.2l27.8-15.4c0.3-0.2,0.8-0.1,0.9,0.3c0.2,0.3,0.1,0.8-0.3,0.9l0,0L49.5,41.4
					c-0.3,0.2-0.8,0.1-0.9-0.3C48.4,40.8,48.5,40.4,48.8,40.2z"/>
				<path d="M49.2,42.7c-0.6,0-1.3-0.3-1.6-0.9c-0.5-0.9-0.2-2,0.7-2.5l0,0l27.8-15.4c0.4-0.2,0.9-0.3,1.4-0.2
					c0.5,0.1,0.9,0.4,1.1,0.9c0.2,0.4,0.3,0.9,0.2,1.4c-0.1,0.5-0.4,0.9-0.9,1.1L50.1,42.4C49.8,42.6,49.5,42.7,49.2,42.7z"/>
			</g>
		</g>
	</g>
	<g text-rendering="geometricPrecision">
		<g>
			<g>
				<path d="M77.3,24.8L77.3,24.8l21.2,12.7c0.3,0.2,0.4,0.6,0.2,0.9c-0.2,0.3-0.6,0.4-0.9,0.2l0,0L76.6,26
					c-0.3-0.2-0.4-0.6-0.2-0.9C76.6,24.7,77,24.6,77.3,24.8z"/>
				<path d="M98.2,39.9c-0.3,0-0.6-0.1-0.9-0.3L76,27c-0.4-0.3-0.7-0.7-0.8-1.1c-0.1-0.5,0-1,0.2-1.4c0.3-0.4,0.7-0.7,1.1-0.8
					c0.5-0.1,1,0,1.4,0.2l21.2,12.7c0.9,0.5,1.2,1.7,0.6,2.5C99.4,39.6,98.8,39.9,98.2,39.9z M76.7,25.8
					C76.7,25.8,76.7,25.8,76.7,25.8L76.7,25.8z"/>
			</g>
		</g>
	</g>
	<g text-rendering="geometricPrecision">
		<g>
			<g>
				<path d="M22.6,25.3L22.6,25.3l0.2-23.5c0-0.4,0.3-0.7,0.7-0.7c0.4,0,0.7,0.3,0.7,0.7l0,0L24,25.3c0,0.4-0.3,0.7-0.7,0.7
					C22.9,26,22.6,25.7,22.6,25.3z"/>
				<path d="M23.3,27.1C23.3,27.1,23.3,27.1,23.3,27.1c-0.5,0-1-0.2-1.3-0.6c-0.3-0.4-0.5-0.8-0.5-1.3l0.2-23.5c0-1,0.8-1.8,1.9-1.8
					c1,0,1.8,0.8,1.8,1.9l-0.2,23.5C25.1,26.3,24.3,27.1,23.3,27.1z"/>
			</g>
		</g>
	</g>
	<g text-rendering="geometricPrecision">
		<g>
			<g>
				<path d="M49.8,40.8L49.8,40.8l-0.4,23.7c0,0.4-0.3,0.7-0.7,0.7c-0.4,0-0.7-0.3-0.7-0.7l0,0l0.4-23.7c0-0.4,0.3-0.7,0.7-0.7
					C49.6,40.1,49.9,40.4,49.8,40.8z"/>
				<path d="M48.8,66.3C48.8,66.3,48.7,66.3,48.8,66.3c-1,0-1.9-0.9-1.8-1.9l0.4-23.7c0-1,0.8-1.8,1.8-1.8c0,0,0,0,0,0
					c0.5,0,1,0.2,1.3,0.6c0.3,0.4,0.5,0.8,0.5,1.3l-0.4,23.7C50.6,65.5,49.8,66.3,48.8,66.3z"/>
			</g>
		</g>
	</g>
	<g text-rendering="geometricPrecision">
		<g>
			<g>
				<path d="M73.4,27c0,0.4,0.3,0.7,0.7,0.7c0.4,0,0.7-0.3,0.7-0.7l0.4-25.1c0-0.4-0.3-0.7-0.7-0.7c-0.4,0-0.7,0.3-0.7,0.7L73.4,27z
					 M79.1,27.1c0,0.4,0.3,0.7,0.7,0.7c0.4,0,0.7-0.3,0.7-0.7L80.9,2c0-0.4-0.3-0.7-0.7-0.7c-0.4,0-0.7,0.3-0.7,0.7L79.1,27.1z"/>
				<path d="M79.8,28.9C79.8,28.9,79.8,28.9,79.8,28.9c-0.5,0-1-0.2-1.3-0.6c-0.3-0.4-0.5-0.8-0.5-1.3v0l0.4-25.1
					c0-0.5,0.2-1,0.6-1.3c0.4-0.3,0.8-0.5,1.3-0.5c0.5,0,1,0.2,1.3,0.6s0.5,0.8,0.5,1.3l-0.4,25.1C81.6,28.1,80.8,28.9,79.8,28.9z
					 M80.3,27.1L80.3,27.1C80.3,27.1,80.3,27.1,80.3,27.1L80.3,27.1z M74.1,28.8C74,28.8,74,28.8,74.1,28.8c-1,0-1.9-0.9-1.8-1.9v0
					l0.4-25.1c0-0.5,0.2-1,0.6-1.3C73.5,0.2,74,0,74.5,0c0.5,0,1,0.2,1.3,0.6c0.3,0.4,0.5,0.8,0.5,1.3L75.9,27c0,0.5-0.2,1-0.6,1.3
					C75,28.6,74.5,28.8,74.1,28.8z M74.5,27L74.5,27C74.5,27,74.5,27,74.5,27L74.5,27z"/>
			</g>
		</g>
	</g>
</g>
</svg>
