<?xml version="1.0" encoding="utf-8"?>
<svg version="1.1" id="Layer_1" text-rendering="auto" shape-rendering="auto" image-rendering="auto" color-rendering="auto"
	 xmlns="http://www.w3.org/2000/svg" xmlns:xlink="http://www.w3.org/1999/xlink" x="0px" y="0px" viewBox="0 0 100 65.7"
	 width="100px"
	 style="enable-background:new 0 0 100 65.7;" xml:space="preserve">
<g>
	<g text-rendering="geometricPrecision">
		<g>
			<g>
				<path d="M1.5,36.5c-0.3,0.2-0.4,0.6-0.2,0.9c0.2,0.3,0.6,0.4,0.9,0.2l21-12.1c0.3-0.2,0.4-0.6,0.2-0.9c-0.2-0.3-0.6-0.4-0.9-0.2
					L1.5,36.5z M4.3,41.4C4,41.6,3.9,42,4,42.3c0.2,0.3,0.6,0.4,0.9,0.2l17.6-10.2c0.3-0.2,0.4-0.6,0.2-0.9
					c-0.2-0.3-0.6-0.4-0.9-0.2L4.3,41.4z"/>
				<path d="M4.6,43.8c-0.6,0-1.2-0.3-1.6-0.9c-0.5-0.9-0.2-2,0.7-2.5h0l17.6-10.2c0.4-0.2,0.9-0.3,1.4-0.2c0.5,0.1,0.9,0.4,1.1,0.8
					c0.2,0.4,0.3,0.9,0.2,1.4c-0.1,0.5-0.4,0.9-0.8,1.1L5.5,43.5C5.3,43.7,4.9,43.8,4.6,43.8z M4.9,42.4L4.9,42.4
					C4.9,42.4,4.9,42.4,4.9,42.4L4.9,42.4z M1.8,38.9c-0.6,0-1.2-0.3-1.6-0.9c-0.5-0.9-0.2-2,0.7-2.5h0l21-12.1
					c0.9-0.5,2-0.2,2.5,0.7c0.5,0.9,0.2,2-0.7,2.5l-21,12.1C2.4,38.8,2.1,38.9,1.8,38.9z"/>
			</g>
		</g>
	</g>
	<g text-rendering="geometricPrecision">
		<g>
			<g>
				<path d="M23.2,24.3L23.2,24.3L50.3,40c0.3,0.2,0.4,0.6,0.2,0.9c-0.2,0.3-0.6,0.4-0.9,0.2l0,0L22.5,25.5
					c-0.3-0.2-0.4-0.6-0.2-0.9C22.4,24.3,22.8,24.2,23.2,24.3z"/>
				<path d="M49.9,42.4c-0.3,0-0.6-0.1-0.9-0.2L21.9,26.5c-0.9-0.5-1.2-1.6-0.7-2.5c0.2-0.4,0.6-0.7,1.1-0.8c0.5-0.1,1-0.1,1.4,0.2
					l0,0L50.8,39c0.4,0.2,0.7,0.6,0.8,1.1c0.1,0.5,0.1,1-0.2,1.4C51.2,42.1,50.6,42.4,49.9,42.4z"/>
			</g>
		</g>
	</g>
	<g text-rendering="geometricPrecision">
		<g>
			<g>
				<path d="M49.6,40L49.6,40l27.1-15.7c0.3-0.2,0.7-0.1,0.9,0.2c0.2,0.3,0.1,0.7-0.2,0.9l0,0L50.3,41.2c-0.3,0.2-0.7,0.1-0.9-0.2
					C49.2,40.6,49.3,40.2,49.6,40z"/>
				<path d="M49.9,42.4c-0.2,0-0.3,0-0.5-0.1c-0.5-0.1-0.9-0.4-1.1-0.8c-0.2-0.4-0.3-0.9-0.2-1.4c0.1-0.5,0.4-0.9,0.8-1.1l27.1-15.7
					c0.9-0.5,2-0.2,2.5,0.7c0.5,0.9,0.2,2-0.7,2.5L50.8,42.2C50.6,42.3,50.3,42.4,49.9,42.4z M50.2,41L50.2,41
					C50.2,41,50.2,41,50.2,41z"/>
			</g>
		</g>
	</g>
	<g text-rendering="geometricPrecision">
		<g>
			<g>
				<path d="M77.4,24.3L77.4,24.3l21.1,12.2c0.3,0.2,0.4,0.6,0.2,0.9c-0.2,0.3-0.6,0.4-0.9,0.2l0,0L76.7,25.5
					c-0.3-0.2-0.4-0.6-0.2-0.9C76.7,24.3,77.1,24.2,77.4,24.3z"/>
				<path d="M98.2,38.9c-0.3,0-0.6-0.1-0.9-0.2L76.2,26.5C75.3,26,75,24.9,75.5,24c0.5-0.9,1.6-1.2,2.5-0.7l21.1,12.2
					c0.9,0.5,1.2,1.6,0.7,2.5C99.4,38.6,98.8,38.9,98.2,38.9z M76.8,25.3C76.8,25.3,76.8,25.3,76.8,25.3L76.8,25.3z"/>
			</g>
		</g>
	</g>
	<g text-rendering="geometricPrecision">
		<g>
			<g>
				<path d="M76.4,24.9L76.4,24.9V1.8c0-0.4,0.3-0.7,0.7-0.7c0.4,0,0.7,0.3,0.7,0.7l0,0v23.1c0,0.4-0.3,0.7-0.7,0.7
					C76.7,25.6,76.4,25.3,76.4,24.9z"/>
				<path d="M77.1,26.7c-1,0-1.8-0.8-1.8-1.8V1.8c0-1,0.8-1.8,1.8-1.8s1.8,0.8,1.8,1.8v23.1C78.9,25.9,78.1,26.7,77.1,26.7z"/>
			</g>
		</g>
	</g>
	<g text-rendering="geometricPrecision">
		<g>
			<g>
				<path d="M50.6,40.6L50.6,40.6v23.3c0,0.4-0.3,0.7-0.7,0.7c-0.4,0-0.7-0.3-0.7-0.7l0,0V40.6c0-0.4,0.3-0.7,0.7-0.7
					C50.3,39.9,50.6,40.2,50.6,40.6z"/>
				<path d="M49.9,65.7c-1,0-1.8-0.8-1.8-1.8V40.6c0-1,0.8-1.8,1.8-1.8c1,0,1.8,0.8,1.8,1.8v23.3C51.8,64.9,50.9,65.7,49.9,65.7z"/>
			</g>
		</g>
	</g>
</g>
</svg>
