<?xml version="1.0" encoding="utf-8"?>
<svg version="1.1" id="Layer_1" text-rendering="auto" shape-rendering="auto" image-rendering="auto" color-rendering="auto"
	 xmlns="http://www.w3.org/2000/svg" xmlns:xlink="http://www.w3.org/1999/xlink" x="0px" y="0px" viewBox="0 0 100 34.4"
	 width="100px"
	 style="enable-background:new 0 0 100 34.4;" xml:space="preserve">
<g>
	<g text-rendering="geometricPrecision">
		<g>
			<g>
				<path d="M1.2,28.7c-0.3,0.1-0.3,0.5-0.2,0.7c0.1,0.3,0.5,0.3,0.7,0.2l16.5-9.5c0.3-0.1,0.3-0.5,0.2-0.7
					c-0.1-0.3-0.5-0.3-0.7-0.2L1.2,28.7z M3.4,32.5C3.1,32.7,3,33,3.2,33.3c0.1,0.3,0.5,0.3,0.7,0.2l13.8-8c0.3-0.1,0.3-0.5,0.2-0.7
					c-0.1-0.3-0.5-0.3-0.7-0.2L3.4,32.5z"/>
				<path d="M3.6,34.4c-0.1,0-0.2,0-0.4,0c-0.4-0.1-0.7-0.3-0.9-0.7c-0.2-0.3-0.2-0.7-0.1-1.1c0.1-0.4,0.3-0.7,0.7-0.9l13.8-8
					c0.3-0.2,0.7-0.2,1.1-0.1c0.4,0.1,0.7,0.3,0.9,0.7c0.2,0.3,0.2,0.7,0.1,1.1c-0.1,0.4-0.3,0.7-0.7,0.9l-13.8,8
					C4.1,34.4,3.9,34.4,3.6,34.4z M3.8,33.3L3.8,33.3C3.8,33.3,3.8,33.3,3.8,33.3z M3.5,32.7C3.5,32.7,3.5,32.7,3.5,32.7L3.5,32.7z
					 M1.4,30.6c-0.5,0-1-0.3-1.2-0.7c-0.4-0.7-0.2-1.6,0.5-1.9l0,0l16.5-9.5c0.7-0.4,1.6-0.2,1.9,0.5c0.2,0.3,0.2,0.7,0.1,1.1
					c-0.1,0.4-0.3,0.7-0.7,0.9L2.1,30.4C1.9,30.5,1.7,30.6,1.4,30.6z"/>
			</g>
		</g>
	</g>
	<g text-rendering="geometricPrecision">
		<g>
			<g>
				<path d="M18.2,19.2L18.2,19.2l21.3,12.3c0.3,0.1,0.3,0.5,0.2,0.7c-0.1,0.3-0.5,0.3-0.7,0.2l0,0L17.7,20.1
					c-0.3-0.1-0.3-0.5-0.2-0.7C17.6,19.1,18,19,18.2,19.2z"/>
				<path d="M39.3,33.4c-0.2,0-0.5-0.1-0.7-0.2L17.2,20.9c-0.3-0.2-0.6-0.5-0.7-0.9c-0.1-0.4,0-0.8,0.1-1.1c0.4-0.7,1.3-0.9,1.9-0.5
					l0,0L40,30.7c0.7,0.4,0.9,1.3,0.5,1.9c-0.2,0.3-0.5,0.6-0.9,0.7C39.5,33.3,39.4,33.4,39.3,33.4z M17.8,19.9L17.8,19.9
					C17.8,19.9,17.8,19.9,17.8,19.9L17.8,19.9z"/>
			</g>
		</g>
	</g>
	<g text-rendering="geometricPrecision">
		<g>
			<g>
				<path d="M39,31.5L39,31.5l21.3-12.3c0.3-0.1,0.6-0.1,0.7,0.2c0.1,0.3,0.1,0.6-0.2,0.7l0,0L39.6,32.4c-0.3,0.1-0.6,0.1-0.7-0.2
					C38.7,31.9,38.8,31.6,39,31.5z"/>
				<path d="M39.3,33.4c-0.5,0-1-0.3-1.2-0.7c-0.4-0.7-0.2-1.6,0.5-1.9h0l21.3-12.3c0.3-0.2,0.7-0.2,1.1-0.1
					c0.4,0.1,0.7,0.3,0.9,0.7c0.2,0.3,0.2,0.7,0.1,1.1c-0.1,0.4-0.3,0.7-0.7,0.9L40,33.2C39.8,33.3,39.5,33.4,39.3,33.4z"/>
			</g>
		</g>
	</g>
	<g text-rendering="geometricPrecision">
		<g>
			<g>
				<path d="M60.9,19.2L60.9,19.2l21.3,12.3c0.3,0.1,0.3,0.5,0.2,0.7c-0.1,0.3-0.5,0.3-0.7,0.2l0,0L60.4,20.1
					c-0.3-0.1-0.3-0.5-0.2-0.7C60.3,19.1,60.6,19,60.9,19.2z"/>
				<path d="M82,33.4c-0.2,0-0.5-0.1-0.7-0.2L59.9,20.9c-0.3-0.2-0.6-0.5-0.7-0.9c-0.1-0.4,0-0.8,0.1-1.1c0.2-0.3,0.5-0.6,0.9-0.7
					c0.4-0.1,0.8,0,1.1,0.1l0,0l21.3,12.3c0.7,0.4,0.9,1.3,0.5,1.9C82.9,33.1,82.5,33.4,82,33.4z"/>
			</g>
		</g>
	</g>
	<g text-rendering="geometricPrecision">
		<g>
			<g>
				<path d="M81.7,31.5L81.7,31.5l16.6-9.6c0.3-0.1,0.6-0.1,0.7,0.2c0.1,0.3,0.1,0.6-0.2,0.7l0,0l-16.6,9.6
					c-0.3,0.1-0.6,0.1-0.7-0.2C81.4,31.9,81.4,31.6,81.7,31.5z"/>
				<path d="M82,33.4c-0.5,0-1-0.3-1.2-0.7c-0.4-0.7-0.2-1.6,0.5-1.9h0l16.6-9.6c0.7-0.4,1.6-0.2,1.9,0.5c0.2,0.3,0.2,0.7,0.1,1.1
					c-0.1,0.4-0.3,0.7-0.7,0.9l-16.6,9.6C82.5,33.3,82.2,33.4,82,33.4z M82.1,32.2L82.1,32.2C82.1,32.2,82.1,32.2,82.1,32.2
					L82.1,32.2z"/>
			</g>
		</g>
	</g>
	<g text-rendering="geometricPrecision">
		<g>
			<g>
				<path d="M60.1,19.6L60.1,19.6V1.4c0-0.3,0.2-0.5,0.5-0.5c0.3,0,0.5,0.2,0.5,0.5l0,0v18.2c0,0.3-0.2,0.5-0.5,0.5
					C60.3,20.1,60.1,19.9,60.1,19.6z"/>
				<path d="M60.6,21c-0.8,0-1.4-0.6-1.4-1.4V1.4c0-0.8,0.6-1.4,1.4-1.4c0.8,0,1.4,0.6,1.4,1.4v18.2C62.1,20.4,61.4,21,60.6,21z"/>
			</g>
		</g>
	</g>
</g>
</svg>
