<?xml version="1.0" encoding="utf-8"?>
<svg version="1.1" id="Layer_1" text-rendering="auto" shape-rendering="auto" image-rendering="auto" color-rendering="auto"
	 xmlns="http://www.w3.org/2000/svg" xmlns:xlink="http://www.w3.org/1999/xlink" x="0px" y="0px" viewBox="0 0 100 27.1"
	 width="100px"
	 style="enable-background:new 0 0 100 27.1;" xml:space="preserve">
<style type="text/css">
	.st0{enable-background:new    ;}
</style>
<g>
	<g text-rendering="geometricPrecision">
		<g>
			<g>
				<path d="M66.3,26c0.7,0,1.3-0.7,1.3-1.3c0-0.7-0.7-1.3-1.3-1.3H33.8c-0.7,0-1.3,0.7-1.3,1.3c0,0.7,0.7,1.3,1.3,1.3H66.3z
					 M66.3,14.9c0.7,0,1.3-0.7,1.3-1.3c0-0.7-0.7-1.3-1.3-1.3H33.8c-0.7,0-1.3,0.7-1.3,1.3c0,0.7,0.7,1.3,1.3,1.3H66.3z M66.3,3.8
					c0.7,0,1.3-0.7,1.3-1.3s-0.7-1.3-1.3-1.3H33.8c-0.7,0-1.3,0.7-1.3,1.3s0.7,1.3,1.3,1.3H66.3z"/>
				<path d="M66.3,27.1H33.8c-1.3,0-2.4-1.1-2.4-2.4c0-1.3,1.1-2.4,2.4-2.4h32.5c1.3,0,2.4,1.1,2.4,2.4C68.7,26,67.6,27.1,66.3,27.1
					z M33.8,24.5C33.8,24.5,33.6,24.5,33.8,24.5c-0.2,0.2-0.2,0.4,0,0.4h32.5c0.2,0,0.2,0,0.2-0.2s0-0.2-0.2-0.2H33.8z M66.3,16
					H33.8c-1.3,0-2.4-1.1-2.4-2.4s1.1-2.4,2.4-2.4h32.5c1.3,0,2.4,1.1,2.4,2.4S67.6,16,66.3,16z M33.8,13.4
					C33.8,13.4,33.6,13.4,33.8,13.4c-0.2,0.2-0.2,0.4,0,0.4h32.5c0.2,0,0.2,0,0.2-0.2s0-0.2-0.2-0.2C66.3,13.4,33.8,13.4,33.8,13.4z
					 M66.3,4.9H33.8c-1.3,0-2.4-1.1-2.4-2.4S32.4,0,33.8,0h32.5c1.3,0,2.4,1.1,2.4,2.4S67.6,4.9,66.3,4.9z M33.8,2.2
					C33.8,2.2,33.6,2.4,33.8,2.2c-0.2,0.2-0.2,0.4,0,0.4h32.5c0.2,0,0.2,0,0.2-0.2s0-0.2-0.2-0.2C66.3,2.2,33.8,2.2,33.8,2.2z"/>
			</g>
		</g>
	</g>
	<g text-rendering="geometricPrecision" transform="translate(44.8603,10)">
		<g>
			<g class="st0">
				<path d="M39.6,10.3c-1.1,1.1-2.4,1.6-4.2,1.6c-2,0-3.8-0.7-4.9-2c-1.1-1.3-1.8-3.1-1.8-5.6s0.7-4.5,2-5.8
					c1.1-1.1,2.7-1.8,4.5-1.8c2.4,0,4.2,0.9,5.3,2.4c0.7,0.9,0.9,1.8,1.1,2.7h-3.1c-0.2-0.7-0.4-1.3-0.7-1.6
					c-0.7-0.7-1.3-0.9-2.4-0.9s-2,0.4-2.7,1.3s-0.9,2.2-0.9,3.8s0.4,2.9,1.1,3.6c0.4,0.7,1.3,1.1,2.4,1.1s1.8-0.4,2.4-1.1
					c0.2-0.4,0.7-0.9,0.7-1.8h2.9C41.1,8,40.5,9.4,39.6,10.3z"/>
				<path d="M52.2,11.4V4.9h-5.6v6.5h-2.9V-3.1h2.9v5.6h5.6v-5.6h2.9v14.5H52.2z"/>
			</g>
		</g>
	</g>
	<g text-rendering="geometricPrecision" transform="translate(11.5221,10)">
		<g>
			<g class="st0">
				<path d="M-3.1,11.4V4.9h-5.6v6.5h-2.9V-3.1h2.9v5.6h5.6v-5.6h2.9v14.5H-3.1z"/>
				<path d="M13.2,10.3c-1.1,1.1-2.4,1.6-4.2,1.6c-2,0-3.8-0.7-4.9-2C2.9,8.5,2.3,6.7,2.3,4.2s0.7-4.5,2-5.8
					c1.1-1.1,2.7-1.8,4.5-1.8c2.4,0,4.2,0.9,5.3,2.4C14.7,0,15,0.9,15,1.8h-3.1c0-0.7-0.2-1.3-0.4-1.6C11-0.4,10.1-0.7,9-0.7
					s-2,0.4-2.7,1.3S5.4,2.9,5.4,4.5S5.6,7.4,6.5,8C6.9,8.7,7.8,9.1,9,9.1s1.8-0.4,2.4-1.1c0.2-0.4,0.7-0.9,0.7-1.8H15
					C14.7,8,14.1,9.4,13.2,10.3z"/>
			</g>
		</g>
	</g>
</g>
</svg>
