<?xml version="1.0" encoding="utf-8"?>
<svg version="1.1" id="Layer_1" shape-rendering="auto" color-rendering="auto" text-rendering="auto" image-rendering="auto"
	 xmlns="http://www.w3.org/2000/svg" xmlns:xlink="http://www.w3.org/1999/xlink" x="0px" y="0px" viewBox="0 0 180.3 175.9"
	 width="100px"
	 style="enable-background:new 0 0 180.3 175.9;" xml:space="preserve">
<style type="text/css">
	.st0{fill:#FF0000;}
	.st1{enable-background:new    ;}
</style>
<g>
	<g text-rendering="geometricPrecision">
		<g>
			<g>
				<path d="M126.5,31L126.5,31L95.9,84c-0.5,0.9-1.6,1.2-2.5,0.7s-1.2-1.6-0.7-2.5l0,0l30.6-53c0.5-0.9,1.6-1.2,2.5-0.7
					C126.7,29,127,30.1,126.5,31z"/>
				<path d="M94.4,86.4c-0.6,0-1.1-0.1-1.6-0.4c-1.6-0.9-2.1-2.9-1.2-4.5l30.6-53c0.9-1.6,2.9-2.1,4.5-1.2c0.8,0.4,1.3,1.2,1.5,2
					c0.2,0.9,0.1,1.7-0.3,2.5l-30.6,53c-0.4,0.8-1.2,1.3-2,1.5C94.9,86.4,94.6,86.4,94.4,86.4z M125,29.8c-0.1,0-0.2,0.1-0.3,0.2
					L94.1,83c-0.1,0.1,0,0.3,0.1,0.4s0.2,0,0.2,0c0.1,0,0.1-0.1,0.2-0.1l30.6-53c0.1-0.1,0-0.2,0-0.2s-0.1-0.1-0.1-0.2
					C125.1,29.8,125,29.8,125,29.8z"/>
			</g>
		</g>
	</g>
	<g text-rendering="geometricPrecision">
		<g>
			<g>
				<path d="M95.9,82.2L95.9,82.2l30.8,53.4c0.5,0.9,0.2,2-0.7,2.5s-2,0.2-2.5-0.7l0,0L92.8,84c-0.5-0.9-0.2-2,0.7-2.5
					C94.3,81.1,95.4,81.4,95.9,82.2z"/>
				<path d="M125.2,139.8c-0.3,0-0.6,0-0.9-0.1c-0.9-0.2-1.6-0.8-2-1.5L91.5,84.8c-0.9-1.6-0.4-3.6,1.2-4.5c0.8-0.4,1.7-0.6,2.5-0.3
					c0.9,0.2,1.6,0.8,2,1.5l30.8,53.4c0.9,1.6,0.4,3.6-1.2,4.5C126.4,139.7,125.8,139.8,125.2,139.8z M94.4,82.8L94.4,82.8
					c-0.2,0.1-0.3,0.3-0.2,0.4l30.8,53.4c0.1,0.1,0.1,0.1,0.2,0.1c0.1,0,0.1,0,0.2,0c0.1-0.1,0.2-0.3,0.1-0.4L94.6,83
					C94.6,82.9,94.5,82.8,94.4,82.8L94.4,82.8z"/>
			</g>
		</g>
	</g>
	<g text-rendering="geometricPrecision">
		<g>
			<g>
				<path class="st0" d="M98.7,92.4c1,0,1.8-0.8,1.8-1.8s-0.8-1.8-1.8-1.8H29.9c-1,0-1.8,0.8-1.8,1.8s0.8,1.8,1.8,1.8H98.7z
					 M98.7,77.4c1,0,1.8-0.8,1.8-1.8s-0.8-1.8-1.8-1.8H29.9c-1,0-1.8,0.8-1.8,1.8s0.8,1.8,1.8,1.8H98.7z"/>
				<path d="M98.7,93.9H29.9c-1.8,0-3.3-1.5-3.3-3.3s1.5-3.3,3.3-3.3h68.8c1.8,0,3.3,1.5,3.3,3.3C102,92.4,100.5,93.9,98.7,93.9z
					 M29.9,90.3c-0.2,0-0.3,0.1-0.3,0.3c0,0.2,0.1,0.3,0.3,0.3h68.8c0.2,0,0.3-0.1,0.3-0.3c0-0.2-0.1-0.3-0.3-0.3H29.9z M98.7,78.9
					H29.9c-1.8,0-3.3-1.5-3.3-3.3s1.5-3.3,3.3-3.3h68.8c1.8,0,3.3,1.5,3.3,3.3S100.5,78.9,98.7,78.9z M29.9,75.3
					c-0.2,0-0.3,0.1-0.3,0.3s0.1,0.3,0.3,0.3h68.8c0.2,0,0.3-0.1,0.3-0.3s-0.1-0.3-0.3-0.3H29.9z"/>
			</g>
		</g>
		<g>
			<g>
				<path d="M98.7,92.4c1,0,1.8-0.8,1.8-1.8s-0.8-1.8-1.8-1.8H29.9c-1,0-1.8,0.8-1.8,1.8s0.8,1.8,1.8,1.8H98.7z M98.7,77.4
					c1,0,1.8-0.8,1.8-1.8s-0.8-1.8-1.8-1.8H29.9c-1,0-1.8,0.8-1.8,1.8s0.8,1.8,1.8,1.8H98.7z"/>
				<path d="M98.7,93.9H29.9c-1.8,0-3.3-1.5-3.3-3.3s1.5-3.3,3.3-3.3h68.8c1.8,0,3.3,1.5,3.3,3.3C102,92.4,100.5,93.9,98.7,93.9z
					 M29.9,90.3c-0.2,0-0.3,0.1-0.3,0.3c0,0.2,0.1,0.3,0.3,0.3h68.8c0.2,0,0.3-0.1,0.3-0.3c0-0.2-0.1-0.3-0.3-0.3H29.9z M98.7,78.9
					H29.9c-1.8,0-3.3-1.5-3.3-3.3s1.5-3.3,3.3-3.3h68.8c1.8,0,3.3,1.5,3.3,3.3S100.5,78.9,98.7,78.9z M29.9,75.3
					c-0.2,0-0.3,0.1-0.3,0.3s0.1,0.3,0.3,0.3h68.8c0.2,0,0.3-0.1,0.3-0.3s-0.1-0.3-0.3-0.3H29.9z"/>
			</g>
		</g>
	</g>
	<g text-rendering="geometricPrecision" transform="translate(155.6713,25.9993)">
		<g>
			<g class="st1">
				<path d="M-13-5.6c-1.6,1.5-3.7,2.2-6.2,2.2c-3.1,0-5.5-1-7.3-3c-1.8-2-2.7-4.7-2.7-8.2c0-3.8,1-6.7,3-8.7c1.8-1.8,4-2.7,6.7-2.7
					c3.6,0,6.3,1.2,8,3.6c0.9,1.3,1.4,2.7,1.5,4h-4.5c-0.3-1-0.7-1.8-1.1-2.3c-0.8-0.9-2-1.4-3.6-1.4c-1.6,0-2.9,0.7-3.9,2
					c-1,1.3-1.5,3.1-1.5,5.6s0.5,4.2,1.5,5.4s2.3,1.8,3.8,1.8c1.6,0,2.8-0.5,3.6-1.5c0.5-0.6,0.8-1.4,1.1-2.5h4.5
					C-10.4-9-11.4-7.1-13-5.6z"/>
				<path d="M6.3-4v-9.6h-8.4V-4h-4.5v-21.6h4.5v8.2h8.4v-8.2h4.5V-4H6.3z"/>
			</g>
		</g>
	</g>
	<g text-rendering="geometricPrecision" transform="translate(199.024,41.2543)">
		<g>
			<g class="st1">
				<path d="M-26.1-23c-0.4,0.5-0.6,1.1-0.6,1.9h-3c0-0.8,0.2-1.6,0.4-2.3c0.3-0.6,0.7-1.2,1.2-1.8c0.4-0.4,0.9-0.7,1.5-0.9
					c0.6-0.2,1.3-0.3,2.1-0.3c1.6,0,2.8,0.4,3.8,1.2c1,0.8,1.4,1.9,1.4,3.2c0,1-0.3,1.8-0.9,2.4c-0.4,0.4-0.7,0.7-1.1,0.8
					c0.3,0,0.7,0.3,1.3,0.8c0.9,0.9,1.3,1.9,1.3,3.2c0,1.4-0.5,2.6-1.4,3.6c-1,1-2.4,1.6-4.2,1.6c-2.3,0-3.9-0.8-4.8-2.3
					c-0.5-0.8-0.7-1.8-0.8-3.1h3.1c0,0.7,0.1,1.2,0.3,1.6c0.4,0.8,1.1,1.2,2.1,1.2c0.7,0,1.2-0.2,1.7-0.6c0.5-0.4,0.7-1,0.7-1.9
					c0-1.1-0.4-1.8-1.3-2.1c-0.5-0.2-1.3-0.3-2.4-0.3v-2.3c1,0,1.8-0.1,2.2-0.3c0.7-0.3,1.1-1,1.1-1.9c0-0.6-0.2-1.1-0.5-1.5
					c-0.4-0.4-0.9-0.6-1.5-0.6C-25.2-23.7-25.8-23.5-26.1-23z"/>
			</g>
		</g>
	</g>
	<g text-rendering="geometricPrecision" transform="translate(155.6713,170.1945)">
		<g>
			<g class="st1">
				<path d="M-13-5.6c-1.6,1.5-3.7,2.2-6.2,2.2c-3.1,0-5.5-1-7.3-3c-1.8-2-2.7-4.7-2.7-8.2c0-3.8,1-6.7,3-8.7c1.8-1.8,4-2.7,6.7-2.7
					c3.6,0,6.3,1.2,8,3.6c0.9,1.3,1.4,2.7,1.5,4h-4.5c-0.3-1-0.7-1.8-1.1-2.3c-0.8-0.9-2-1.4-3.6-1.4c-1.6,0-2.9,0.7-3.9,2
					c-1,1.3-1.5,3.1-1.5,5.6s0.5,4.2,1.5,5.4s2.3,1.8,3.8,1.8c1.6,0,2.8-0.5,3.6-1.5c0.5-0.6,0.8-1.4,1.1-2.5h4.5
					C-10.4-9-11.4-7.1-13-5.6z"/>
				<path d="M6.3-4v-9.6h-8.4V-4h-4.5v-21.6h4.5v8.2h8.4v-8.2h4.5V-4H6.3z"/>
			</g>
		</g>
	</g>
	<g text-rendering="geometricPrecision" transform="translate(199.024,185.4495)">
		<g>
			<g class="st1">
				<path d="M-26.1-23c-0.4,0.5-0.6,1.1-0.6,1.9h-3c0-0.8,0.2-1.6,0.4-2.3c0.3-0.6,0.7-1.2,1.2-1.8c0.4-0.4,0.9-0.7,1.5-0.9
					c0.6-0.2,1.3-0.3,2.1-0.3c1.6,0,2.8,0.4,3.8,1.2c1,0.8,1.4,1.9,1.4,3.2c0,1-0.3,1.8-0.9,2.4c-0.4,0.4-0.7,0.7-1.1,0.8
					c0.3,0,0.7,0.3,1.3,0.8c0.9,0.9,1.3,1.9,1.3,3.2c0,1.4-0.5,2.6-1.4,3.6c-1,1-2.4,1.6-4.2,1.6c-2.3,0-3.9-0.8-4.8-2.3
					c-0.5-0.8-0.7-1.8-0.8-3.1h3.1c0,0.7,0.1,1.2,0.3,1.6c0.4,0.8,1.1,1.2,2.1,1.2c0.7,0,1.2-0.2,1.7-0.6c0.5-0.4,0.7-1,0.7-1.9
					c0-1.1-0.4-1.8-1.3-2.1c-0.5-0.2-1.3-0.3-2.4-0.3v-2.3c1,0,1.8-0.1,2.2-0.3c0.7-0.3,1.1-1,1.1-1.9c0-0.6-0.2-1.1-0.5-1.5
					c-0.4-0.4-0.9-0.6-1.5-0.6C-25.2-23.7-25.8-23.5-26.1-23z"/>
			</g>
		</g>
	</g>
	<g text-rendering="geometricPrecision" transform="translate(29.1181,98.0969)">
		<g>
			<g class="st1">
				<path d="M-18.7-3.4c-3.1,0-5.4-0.8-7.1-2.5c-2.2-2.1-3.3-5-3.3-8.9c0-4,1.1-6.9,3.3-8.9c1.6-1.7,4-2.5,7.1-2.5s5.4,0.8,7.1,2.5
					c2.2,2,3.3,5,3.3,8.9S-9.4-8-11.6-5.9C-13.3-4.2-15.6-3.4-18.7-3.4z M-14.4-9.2c1-1.3,1.6-3.2,1.6-5.6s-0.5-4.3-1.6-5.6
					c-1-1.3-2.5-2-4.3-2c-1.8,0-3.2,0.7-4.3,2c-1.1,1.3-1.6,3.2-1.6,5.6s0.5,4.3,1.6,5.6s2.5,2,4.3,2C-16.9-7.2-15.5-7.9-14.4-9.2z"
					/>
			</g>
		</g>
	</g>
</g>
</svg>
