<?xml version="1.0" encoding="utf-8"?>
<svg version="1.1" id="Layer_1" text-rendering="auto" shape-rendering="auto" image-rendering="auto" color-rendering="auto"
	 xmlns="http://www.w3.org/2000/svg" xmlns:xlink="http://www.w3.org/1999/xlink" x="0px" y="0px" viewBox="0 0 100 58.9"
	 width="100px"
	 style="enable-background:new 0 0 100 58.9;" xml:space="preserve">
<style type="text/css">
	.st0{enable-background:new    ;}
</style>
<g>
	<g text-rendering="geometricPrecision">
		<g>
			<g>
				<path d="M83.1,29.7L83.1,29.7H60.2c-0.4,0-0.6-0.3-0.6-0.6c0-0.4,0.3-0.6,0.6-0.6l0,0h22.9c0.4,0,0.6,0.3,0.6,0.6
					C83.7,29.4,83.5,29.7,83.1,29.7z"/>
				<path d="M83.1,30.4H60.2c-0.7,0-1.4-0.6-1.4-1.4c0-0.7,0.6-1.4,1.4-1.4h22.9c0.7,0,1.4,0.6,1.4,1.4
					C84.5,29.8,83.8,30.4,83.1,30.4z"/>
			</g>
		</g>
	</g>
	<g text-rendering="geometricPrecision">
		<g>
			<g>
				<path d="M63.8,29.4c0.2-0.3,0.1-0.7-0.2-0.9c-0.3-0.2-0.7-0.1-0.9,0.2L51.1,48.8c-0.2,0.3-0.1,0.7,0.2,0.9
					c0.3,0.2,0.7,0.1,0.9-0.2L63.8,29.4z M59.2,26.7c0.2-0.3,0.1-0.7-0.2-0.9c-0.3-0.2-0.7-0.1-0.9,0.2L46.5,46.2
					c-0.2,0.3-0.1,0.7,0.2,0.9c0.3,0.2,0.7,0.1,0.9-0.2L59.2,26.7z"/>
				<path d="M51.6,50.5c-0.2,0-0.5-0.1-0.7-0.2c-0.6-0.4-0.9-1.2-0.5-1.9l11.6-20.1c0.2-0.3,0.5-0.5,0.8-0.6c0.3-0.1,0.7,0,1,0.1
					c0.3,0.2,0.5,0.5,0.6,0.8c0.1,0.3,0,0.7-0.1,1L52.8,49.8C52.6,50.3,52.1,50.5,51.6,50.5z M47,47.8c-0.2,0-0.5-0.1-0.7-0.2
					c-0.3-0.2-0.5-0.5-0.6-0.8c-0.1-0.4,0-0.7,0.1-1l11.6-20.1c0.4-0.6,1.2-0.9,1.9-0.5c0.3,0.2,0.5,0.5,0.6,0.8
					c0.1,0.3,0,0.7-0.1,1L48.2,47.2C47.9,47.6,47.5,47.8,47,47.8z M58.6,26.4C58.6,26.4,58.6,26.4,58.6,26.4L58.6,26.4z"/>
			</g>
		</g>
		<g>
			<g>
				<path d="M63.8,29.4c0.2-0.3,0.1-0.7-0.2-0.9c-0.3-0.2-0.7-0.1-0.9,0.2L51.1,48.8c-0.2,0.3-0.1,0.7,0.2,0.9
					c0.3,0.2,0.7,0.1,0.9-0.2L63.8,29.4z M59.2,26.7c0.2-0.3,0.1-0.7-0.2-0.9c-0.3-0.2-0.7-0.1-0.9,0.2L46.5,46.2
					c-0.2,0.3-0.1,0.7,0.2,0.9c0.3,0.2,0.7,0.1,0.9-0.2L59.2,26.7z"/>
				<path d="M51.6,50.5c-0.2,0-0.5-0.1-0.7-0.2c-0.6-0.4-0.9-1.2-0.5-1.9l11.6-20.1c0.2-0.3,0.5-0.5,0.8-0.6c0.3-0.1,0.7,0,1,0.1
					c0.3,0.2,0.5,0.5,0.6,0.8c0.1,0.3,0,0.7-0.1,1L52.8,49.8C52.6,50.3,52.1,50.5,51.6,50.5z M47,47.8c-0.2,0-0.5-0.1-0.7-0.2
					c-0.3-0.2-0.5-0.5-0.6-0.8c-0.1-0.4,0-0.7,0.1-1l11.6-20.1c0.4-0.6,1.2-0.9,1.9-0.5c0.3,0.2,0.5,0.5,0.6,0.8
					c0.1,0.3,0,0.7-0.1,1L48.2,47.2C47.9,47.6,47.5,47.8,47,47.8z M58.6,26.4C58.6,26.4,58.6,26.4,58.6,26.4L58.6,26.4z"/>
			</g>
		</g>
	</g>
	<g text-rendering="geometricPrecision">
		<g>
			<g>
				<path d="M59.6,29.4L59.6,29.4L44.8,3.7C44.6,3.4,44.7,3,45,2.9c0.3-0.2,0.7-0.1,0.9,0.2l0,0l14.8,25.7c0.2,0.3,0.1,0.7-0.2,0.9
					C60.2,29.8,59.8,29.7,59.6,29.4z"/>
				<path d="M60.2,30.4c-0.5,0-0.9-0.2-1.2-0.7v0L44.2,4.1c-0.4-0.6-0.2-1.5,0.5-1.9c0.3-0.2,0.7-0.2,1-0.1c0.3,0.1,0.6,0.3,0.8,0.6
					l14.8,25.7c0.4,0.6,0.2,1.5-0.5,1.9C60.6,30.4,60.4,30.4,60.2,30.4z"/>
			</g>
		</g>
	</g>
	<g text-rendering="geometricPrecision">
		<g>
			<g>
				<path d="M41.6,9.4c0.4,0,0.6-0.3,0.6-0.6c0-0.4-0.3-0.6-0.6-0.6H21.8c-0.4,0-0.6,0.3-0.6,0.6c0,0.4,0.3,0.6,0.6,0.6H41.6z
					 M45.3,4C45.7,4,46,3.8,46,3.4c0-0.4-0.3-0.6-0.6-0.6H21.8c-0.4,0-0.6,0.3-0.6,0.6c0,0.4,0.3,0.6,0.6,0.6H45.3z"/>
				<path d="M41.6,10.1H21.8c-0.7,0-1.4-0.6-1.4-1.4c0-0.7,0.6-1.4,1.4-1.4h19.8C42.4,7.4,43,8,43,8.8C43,9.5,42.4,10.1,41.6,10.1z
					 M45.3,4.8H21.8c-0.7,0-1.4-0.6-1.4-1.4s0.6-1.4,1.4-1.4h23.5c0.7,0,1.4,0.6,1.4,1.4S46.1,4.8,45.3,4.8z"/>
			</g>
		</g>
	</g>
	<g text-rendering="geometricPrecision" transform="translate(135.0929,49.3645)">
		<g>
			<g class="st0">
				<path d="M-45.5-16.2c-1,0-1.8-0.3-2.4-0.8c-0.7-0.7-1.1-1.7-1.1-3c0-1.3,0.4-2.3,1.1-3c0.5-0.6,1.3-0.8,2.4-0.8
					c1,0,1.8,0.3,2.4,0.8c0.7,0.7,1.1,1.7,1.1,3c0,1.3-0.4,2.3-1.1,3C-43.7-16.4-44.4-16.2-45.5-16.2z M-44.1-18.1
					c0.3-0.4,0.5-1.1,0.5-1.9c0-0.8-0.2-1.4-0.5-1.9c-0.4-0.4-0.8-0.7-1.4-0.7s-1.1,0.2-1.4,0.7c-0.4,0.4-0.5,1.1-0.5,1.9
					c0,0.8,0.2,1.4,0.5,1.9c0.4,0.4,0.8,0.7,1.4,0.7S-44.4-17.7-44.1-18.1z"/>
				<path d="M-36.6-16.4v-3.2h-2.8v3.2h-1.5v-7.2h1.5v2.7h2.8v-2.7h1.5v7.2H-36.6z"/>
			</g>
		</g>
	</g>
	<g text-rendering="geometricPrecision" transform="translate(72.8851,85.2802)">
		<g>
			<g class="st0">
				<path d="M-27.7-26.4c-1,0-1.8-0.3-2.4-0.8c-0.7-0.7-1.1-1.7-1.1-3c0-1.3,0.4-2.3,1.1-3c0.5-0.6,1.3-0.8,2.4-0.8s1.8,0.3,2.4,0.8
					c0.7,0.7,1.1,1.7,1.1,3c0,1.3-0.4,2.3-1.1,3C-25.9-26.7-26.7-26.4-27.7-26.4z M-26.3-28.3c0.3-0.4,0.5-1.1,0.5-1.9
					c0-0.8-0.2-1.4-0.5-1.9c-0.3-0.4-0.8-0.7-1.4-0.7s-1.1,0.2-1.4,0.7c-0.4,0.4-0.5,1.1-0.5,1.9s0.2,1.4,0.5,1.9
					c0.4,0.4,0.8,0.7,1.4,0.7S-26.7-27.9-26.3-28.3z"/>
			</g>
		</g>
	</g>
	<g text-rendering="geometricPrecision" transform="translate(14.1557,13.2615)">
		<g>
			<g class="st0">
				<path d="M-9.9-6.1v-3.2h-2.8v3.2h-1.5v-7.2h1.5v2.7h2.8v-2.7h1.5v7.2H-9.9z"/>
			</g>
		</g>
	</g>
	<g text-rendering="geometricPrecision" transform="translate(25.0996,21.5865)">
		<g>
			<g class="st0">
				<path d="M-15.5-15.3c-0.1-0.1-0.3-0.2-0.5-0.2c-0.3,0-0.5,0.1-0.6,0.3c-0.1,0.1-0.1,0.3-0.1,0.6h-1c0-0.4,0.1-0.8,0.2-1
					c0.3-0.5,0.7-0.8,1.4-0.8c0.5,0,1,0.1,1.3,0.4c0.3,0.3,0.5,0.7,0.5,1.2c0,0.4-0.1,0.7-0.3,1c-0.1,0.2-0.4,0.4-0.7,0.6l-0.4,0.3
					c-0.2,0.2-0.4,0.3-0.5,0.4c-0.1,0.1-0.2,0.2-0.2,0.3h2.2v0.9h-3.5c0-0.4,0.1-0.7,0.2-1c0.1-0.3,0.5-0.7,1-1.1
					c0.5-0.3,0.8-0.6,0.9-0.7c0.2-0.2,0.3-0.5,0.3-0.7C-15.4-15-15.4-15.2-15.5-15.3z"/>
			</g>
		</g>
	</g>
	<g text-rendering="geometricPrecision" transform="translate(32.2515,13.4488)">
		<g>
			<g class="st0">
				<path d="M-14.2-6.6c-0.5,0.5-1.2,0.7-2.1,0.7c-1,0-1.8-0.3-2.4-1c-0.6-0.7-0.9-1.6-0.9-2.7c0-1.3,0.3-2.2,1-2.9
					c0.6-0.6,1.3-0.9,2.2-0.9c1.2,0,2.1,0.4,2.7,1.2c0.3,0.4,0.5,0.9,0.5,1.3h-1.5c-0.1-0.3-0.2-0.6-0.4-0.8
					c-0.3-0.3-0.7-0.5-1.2-0.5c-0.5,0-1,0.2-1.3,0.7c-0.3,0.4-0.5,1.1-0.5,1.9c0,0.8,0.2,1.4,0.5,1.8c0.3,0.4,0.8,0.6,1.3,0.6
					c0.5,0,0.9-0.2,1.2-0.5c0.2-0.2,0.3-0.5,0.4-0.8h1.5C-13.4-7.8-13.7-7.1-14.2-6.6z"/>
			</g>
		</g>
	</g>
</g>
</svg>
