<?xml version="1.0" encoding="utf-8"?>
<svg version="1.1" id="Layer_1" text-rendering="auto" shape-rendering="auto" image-rendering="auto" color-rendering="auto"
	 xmlns="http://www.w3.org/2000/svg" xmlns:xlink="http://www.w3.org/1999/xlink" x="0px" y="0px" viewBox="0 0 498 232"
	 width="100px"
	 style="enable-background:new 0 0 498 232;" xml:space="preserve">
<g>
	<g text-rendering="geometricPrecision">
		<g>
			<g>
				<path d="M31.3,72.7c-0.9,0.5-1.2,1.6-0.7,2.5c0.5,0.9,1.6,1.2,2.5,0.7l72.3-41.7c0.9-0.5,1.2-1.6,0.7-2.5
					c-0.5-0.9-1.6-1.2-2.5-0.7L31.3,72.7z M47.9,80.5C47,81,46.7,82.1,47.2,83c0.5,0.9,1.6,1.2,2.5,0.7l54.1-31.2
					c0.9-0.5,1.2-1.6,0.7-2.5c-0.5-0.9-1.6-1.2-2.5-0.7L47.9,80.5z"/>
				<path d="M48.8,86.4c-0.4,0-0.8,0-1.1-0.1c-1.1-0.3-2-1-2.6-2c-1.2-2.1-0.5-4.7,1.6-5.9l54.1-31.2c1-0.6,2.2-0.7,3.3-0.4
					c1.1,0.3,2,1,2.6,2c1.2,2.1,0.5,4.7-1.6,5.9L50.9,85.8C50.3,86.2,49.5,86.4,48.8,86.4z M49.1,82.7L49.1,82.7
					C49.1,82.7,49.1,82.7,49.1,82.7L49.1,82.7z M32.2,78.6c-0.4,0-0.8,0-1.1-0.1c-1.1-0.3-2-1-2.6-2s-0.7-2.2-0.4-3.3
					c0.3-1.1,1-2,2-2.6l72.3-41.7c1-0.6,2.2-0.7,3.3-0.4c1.1,0.3,2,1,2.6,2c1.2,2.1,0.5,4.7-1.6,5.9L34.3,78
					C33.7,78.4,32.9,78.6,32.2,78.6z M32.5,74.9L32.5,74.9C32.5,74.9,32.5,74.9,32.5,74.9z"/>
			</g>
		</g>
	</g>
	<g text-rendering="geometricPrecision">
		<g>
			<g>
				<path d="M105.4,31L105.4,31l72.3,41.7c0.9,0.5,1.2,1.6,0.7,2.5c-0.5,0.9-1.6,1.2-2.5,0.7l0,0l-72.3-41.7
					c-0.9-0.5-1.2-1.6-0.7-2.5C103.4,30.8,104.5,30.5,105.4,31z"/>
				<path d="M176.7,78.6c-0.7,0-1.5-0.2-2.1-0.6l-72.3-41.7c-1-0.6-1.7-1.5-2-2.6c-0.3-1.1-0.1-2.3,0.4-3.3c0.6-1,1.5-1.7,2.6-2
					c1.1-0.3,2.3-0.1,3.3,0.4l72.3,41.7c2.1,1.2,2.8,3.8,1.6,5.9c-0.6,1-1.5,1.7-2.6,2C177.5,78.5,177.1,78.6,176.7,78.6z"/>
			</g>
		</g>
	</g>
	<g text-rendering="geometricPrecision">
		<g>
			<g>
				<path d="M175.8,72.7c-0.9,0.5-1.2,1.6-0.7,2.5c0.5,0.9,1.6,1.2,2.5,0.7l72.3-41.7c0.9-0.5,1.2-1.6,0.7-2.5
					c-0.5-0.9-1.6-1.2-2.5-0.7L175.8,72.7z M192.4,80.5c-0.9,0.5-1.2,1.6-0.7,2.5c0.5,0.9,1.6,1.2,2.5,0.7l54.1-31.2
					c0.9-0.5,1.2-1.6,0.7-2.5c-0.5-0.9-1.6-1.2-2.5-0.7L192.4,80.5z"/>
				<path d="M193.3,86.4c-0.4,0-0.8,0-1.1-0.1c-1.1-0.3-2-1-2.6-2c-0.6-1-0.7-2.2-0.4-3.3c0.3-1.1,1-2,2-2.6l54.1-31.2
					c2.1-1.2,4.7-0.5,5.9,1.6c0.6,1,0.7,2.2,0.4,3.3c-0.3,1.1-1,2-2,2.6l-54.1,31.2C194.8,86.2,194.1,86.4,193.3,86.4z M176.7,78.6
					c-1.5,0-2.9-0.8-3.7-2.2c-0.6-1-0.7-2.2-0.4-3.3c0.3-1.1,1-2,2-2.6l72.3-41.7c2.1-1.2,4.7-0.5,5.9,1.6c0.6,1,0.7,2.2,0.4,3.3
					s-1,2-2,2.6L178.9,78C178.2,78.4,177.5,78.6,176.7,78.6z M177.1,74.9L177.1,74.9C177.1,74.9,177.1,74.9,177.1,74.9z"/>
			</g>
		</g>
	</g>
	<g text-rendering="geometricPrecision">
		<g>
			<g>
				<path d="M249.9,31L249.9,31l72.3,41.7c0.9,0.5,1.2,1.6,0.7,2.5c-0.5,0.9-1.6,1.2-2.5,0.7l0,0l-72.3-41.7
					c-0.9-0.5-1.2-1.6-0.7-2.5C247.9,30.8,249,30.5,249.9,31z"/>
				<path d="M321.3,78.6c-0.7,0-1.5-0.2-2.1-0.6l-72.3-41.7c-2.1-1.2-2.8-3.8-1.6-5.9c0.6-1,1.5-1.7,2.6-2c1.1-0.3,2.3-0.1,3.3,0.4
					l72.3,41.7c1,0.6,1.7,1.5,2,2.6s0.1,2.3-0.4,3.3s-1.5,1.7-2.6,2C322,78.5,321.6,78.6,321.3,78.6z"/>
			</g>
		</g>
	</g>
	<g text-rendering="geometricPrecision">
		<g>
			<g>
				<path d="M320.4,72.7c-0.9,0.5-1.2,1.6-0.7,2.5c0.5,0.9,1.6,1.2,2.5,0.7l72.3-41.7c0.9-0.5,1.2-1.6,0.7-2.5
					c-0.5-0.9-1.6-1.2-2.5-0.7L320.4,72.7z M337,80.5c-0.9,0.5-1.2,1.6-0.7,2.5c0.5,0.9,1.6,1.2,2.5,0.7l54.1-31.2
					c0.9-0.5,1.2-1.6,0.7-2.5c-0.5-0.9-1.6-1.2-2.5-0.7L337,80.5z"/>
				<path d="M337.9,86.4c-1.5,0-2.9-0.8-3.7-2.2c-0.6-1-0.7-2.2-0.4-3.3s1-2,2-2.6l54.1-31.2c2.1-1.2,4.7-0.5,5.9,1.6
					c0.6,1,0.7,2.2,0.4,3.3s-1,2-2,2.6L340,85.8C339.4,86.2,338.6,86.4,337.9,86.4z M338.2,82.7L338.2,82.7
					C338.2,82.7,338.2,82.7,338.2,82.7L338.2,82.7z M321.3,78.6c-0.4,0-0.8,0-1.1-0.1c-1.1-0.3-2-1-2.6-2c-0.6-1-0.7-2.2-0.4-3.3
					s1-2,2-2.6l72.3-41.7c1-0.6,2.2-0.7,3.3-0.4c1.1,0.3,2,1,2.6,2c0.6,1,0.7,2.2,0.4,3.3s-1,2-2,2.6L323.4,78
					C322.8,78.4,322,78.6,321.3,78.6z M321.6,74.9L321.6,74.9C321.6,74.9,321.6,74.9,321.6,74.9z"/>
			</g>
		</g>
	</g>
	<g text-rendering="geometricPrecision">
		<g>
			<g>
				<path d="M394.5,31L394.5,31l72.3,41.7c0.9,0.5,1.2,1.6,0.7,2.5s-1.6,1.2-2.5,0.7l0,0l-72.3-41.7c-0.9-0.5-1.2-1.6-0.7-2.5
					C392.5,30.8,393.6,30.5,394.5,31z"/>
				<path d="M465.8,78.6c-0.7,0-1.5-0.2-2.1-0.6l-72.3-41.7c-2.1-1.2-2.8-3.8-1.6-5.9c0.6-1,1.5-1.7,2.6-2c1.1-0.3,2.3-0.1,3.3,0.4
					L468,70.5c1,0.6,1.7,1.5,2,2.6s0.1,2.3-0.4,3.3s-1.5,1.7-2.6,2C466.6,78.5,466.2,78.6,465.8,78.6z"/>
			</g>
		</g>
	</g>
	<g text-rendering="geometricPrecision">
		<g>
			<g>
				<path d="M467.6,74.3c0-1-0.8-1.8-1.8-1.8c-1,0-1.8,0.8-1.8,1.8v83.5c0,1,0.8,1.8,1.8,1.8c1,0,1.8-0.8,1.8-1.8V74.3z M452.6,84.8
					c0-1-0.8-1.8-1.8-1.8c-1,0-1.8,0.8-1.8,1.8v62.5c0,1,0.8,1.8,1.8,1.8c1,0,1.8-0.8,1.8-1.8V84.8z"/>
				<path d="M465.8,162c-2.4,0-4.3-1.9-4.3-4.3V74.3c0-2.4,1.9-4.3,4.3-4.3s4.3,1.9,4.3,4.3v83.5C470.1,160.1,468.2,162,465.8,162z
					 M450.8,151.5c-2.4,0-4.3-1.9-4.3-4.3V84.8c0-2.4,1.9-4.3,4.3-4.3c2.4,0,4.3,1.9,4.3,4.3v62.5
					C455.1,149.6,453.2,151.5,450.8,151.5z"/>
			</g>
		</g>
	</g>
	<g text-rendering="geometricPrecision">
		<g>
			<g>
				<path d="M466.7,159.3L466.7,159.3L394.5,201c-0.9,0.5-2,0.2-2.5-0.7s-0.2-2,0.7-2.5l0,0l72.3-41.7c0.9-0.5,2-0.2,2.5,0.7
					C467.9,157.7,467.6,158.8,466.7,159.3z"/>
				<path d="M393.6,203.8c-1.5,0-2.9-0.8-3.7-2.2c-1.2-2.1-0.5-4.7,1.6-5.9l72.3-41.7c2.1-1.2,4.7-0.5,5.9,1.6
					c1.2,2.1,0.5,4.7-1.6,5.9l-72.3,41.7C395,203.6,394.3,203.8,393.6,203.8z M465.5,157.1C465.5,157.1,465.5,157.1,465.5,157.1
					L465.5,157.1z"/>
			</g>
		</g>
	</g>
	<g text-rendering="geometricPrecision">
		<g>
			<g>
				<path d="M392.6,201c0.9,0.5,2,0.2,2.5-0.7c0.5-0.9,0.2-2-0.7-2.5l-72.3-41.7c-0.9-0.5-2-0.2-2.5,0.7c-0.5,0.9-0.2,2,0.7,2.5
					L392.6,201z M391.1,182.7c0.9,0.5,2,0.2,2.5-0.7c0.5-0.9,0.2-2-0.7-2.5l-54.1-31.2c-0.9-0.5-2-0.2-2.5,0.7
					c-0.5,0.9-0.2,2,0.7,2.5L391.1,182.7z"/>
				<path d="M393.5,203.8c-0.7,0-1.5-0.2-2.1-0.6l0,0l-72.3-41.7c-1-0.6-1.7-1.5-2-2.6c-0.3-1.1-0.1-2.3,0.4-3.3
					c1.2-2.1,3.8-2.8,5.9-1.6l72.3,41.7c2.1,1.2,2.8,3.8,1.6,5.9C396.5,203,395,203.8,393.5,203.8z M392,185.5
					c-0.7,0-1.5-0.2-2.1-0.6l-54.1-31.2c-1-0.6-1.7-1.5-2-2.6c-0.3-1.1-0.1-2.3,0.4-3.3c1.2-2.1,3.8-2.8,5.9-1.6l54.1,31.2
					c1,0.6,1.7,1.5,2,2.6c0.3,1.1,0.1,2.3-0.4,3.3s-1.5,1.7-2.6,2C392.7,185.4,392.4,185.5,392,185.5z"/>
			</g>
		</g>
	</g>
	<g text-rendering="geometricPrecision">
		<g>
			<g>
				<path d="M323.1,74.3L323.1,74.3v83.5c0,1-0.8,1.8-1.8,1.8c-1,0-1.8-0.8-1.8-1.8l0,0V74.3c0-1,0.8-1.8,1.8-1.8
					C322.3,72.5,323.1,73.3,323.1,74.3z"/>
				<path d="M321.3,162c-2.4,0-4.3-1.9-4.3-4.3V74.3c0-2.4,1.9-4.3,4.3-4.3s4.3,1.9,4.3,4.3v83.5C325.6,160.1,323.7,162,321.3,162z"
					/>
			</g>
		</g>
	</g>
	<g text-rendering="geometricPrecision">
		<g>
			<g>
				<path d="M322.2,159.3L322.2,159.3L249.9,201c-0.9,0.5-2,0.2-2.5-0.7c-0.5-0.9-0.2-2,0.7-2.5l0,0l72.3-41.7
					c0.9-0.5,2-0.2,2.5,0.7C323.3,157.7,323,158.8,322.2,159.3z"/>
				<path d="M249,203.8c-1.5,0-2.9-0.8-3.7-2.2c-1.2-2.1-0.5-4.7,1.6-5.9l72.3-41.7c2.1-1.2,4.7-0.5,5.9,1.6
					c1.2,2.1,0.5,4.7-1.6,5.9l-72.3,41.7C250.5,203.6,249.7,203.8,249,203.8z M320.9,157.1C320.9,157.1,320.9,157.1,320.9,157.1
					L320.9,157.1z"/>
			</g>
		</g>
	</g>
	<g text-rendering="geometricPrecision">
		<g>
			<g>
				<path d="M248.1,201c0.9,0.5,2,0.2,2.5-0.7c0.5-0.9,0.2-2-0.7-2.5l-72.3-41.7c-0.9-0.5-2-0.2-2.5,0.7c-0.5,0.9-0.2,2,0.7,2.5
					L248.1,201z M246.5,182.7c0.9,0.5,2,0.2,2.5-0.7s0.2-2-0.7-2.5l-54.1-31.2c-0.9-0.5-2-0.2-2.5,0.7c-0.5,0.9-0.2,2,0.7,2.5
					L246.5,182.7z"/>
				<path d="M249,203.8c-0.7,0-1.5-0.2-2.1-0.6l0,0l-72.3-41.7c-2.1-1.2-2.8-3.8-1.6-5.9c1.2-2.1,3.8-2.8,5.9-1.6l72.3,41.7
					c2.1,1.2,2.8,3.8,1.6,5.9C251.9,203,250.5,203.8,249,203.8z M247.4,185.5c-0.7,0-1.5-0.2-2.1-0.6l-54.1-31.2
					c-1-0.6-1.7-1.5-2-2.6c-0.3-1.1-0.1-2.3,0.4-3.3c1.2-2.1,3.8-2.8,5.9-1.6l54.1,31.2c2.1,1.2,2.8,3.8,1.6,5.9
					c-0.6,1-1.5,1.7-2.6,2C248.2,185.4,247.8,185.5,247.4,185.5z"/>
			</g>
		</g>
	</g>
	<g text-rendering="geometricPrecision">
		<g>
			<g>
				<path d="M178.5,74.3L178.5,74.3v83.5c0,1-0.8,1.8-1.8,1.8c-1,0-1.8-0.8-1.8-1.8l0,0V74.3c0-1,0.8-1.8,1.8-1.8
					C177.7,72.5,178.5,73.3,178.5,74.3z"/>
				<path d="M176.7,162c-2.4,0-4.3-1.9-4.3-4.3V74.3c0-2.4,1.9-4.3,4.3-4.3s4.3,1.9,4.3,4.3v83.5C181,160.1,179.1,162,176.7,162z"/>
			</g>
		</g>
	</g>
	<g text-rendering="geometricPrecision">
		<g>
			<g>
				<path d="M177.6,159.3L177.6,159.3L105.4,201c-0.9,0.5-2,0.2-2.5-0.7c-0.5-0.9-0.2-2,0.7-2.5l0,0l72.3-41.7
					c0.9-0.5,2-0.2,2.5,0.7C178.8,157.7,178.5,158.8,177.6,159.3z"/>
				<path d="M104.5,203.8c-1.5,0-2.9-0.8-3.7-2.2c-0.6-1-0.7-2.2-0.4-3.3c0.3-1.1,1-2,2-2.6l72.3-41.7c2.1-1.2,4.7-0.5,5.9,1.6
					c1.2,2.1,0.5,4.7-1.6,5.9h0l-72.3,41.7C105.9,203.6,105.2,203.8,104.5,203.8z"/>
			</g>
		</g>
	</g>
	<g text-rendering="geometricPrecision">
		<g>
			<g>
				<path d="M103.5,201c0.9,0.5,2,0.2,2.5-0.7c0.5-0.9,0.2-2-0.7-2.5l-72.3-41.7c-0.9-0.5-2-0.2-2.5,0.7c-0.5,0.9-0.2,2,0.7,2.5
					L103.5,201z M102,182.7c0.9,0.5,2,0.2,2.5-0.7c0.5-0.9,0.2-2-0.7-2.5l-54.1-31.2c-0.9-0.5-2-0.2-2.5,0.7c-0.5,0.9-0.2,2,0.7,2.5
					L102,182.7z"/>
				<path d="M104.4,203.8c-0.7,0-1.5-0.2-2.1-0.6l0,0L30,161.5c-2.1-1.2-2.8-3.8-1.6-5.9c1.2-2.1,3.8-2.8,5.9-1.6l72.3,41.7
					c2.1,1.2,2.8,3.8,1.6,5.9C107.4,203,105.9,203.8,104.4,203.8z M102.9,185.5c-0.7,0-1.5-0.2-2.1-0.6l-54.1-31.2
					c-1-0.6-1.7-1.5-2-2.6c-0.3-1.1-0.1-2.3,0.4-3.3c1.2-2.1,3.8-2.8,5.9-1.6l54.1,31.2c2.1,1.2,2.8,3.8,1.6,5.9
					c-0.6,1-1.5,1.7-2.6,2C103.6,185.4,103.2,185.5,102.9,185.5z"/>
			</g>
		</g>
	</g>
	<g text-rendering="geometricPrecision">
		<g>
			<g>
				<path d="M34,74.3L34,74.3v83.5c0,1-0.8,1.8-1.8,1.8c-1,0-1.8-0.8-1.8-1.8l0,0V74.3c0-1,0.8-1.8,1.8-1.8
					C33.2,72.5,34,73.3,34,74.3z"/>
				<path d="M32.2,162c-2.4,0-4.3-1.9-4.3-4.3V74.3c0-2.4,1.9-4.3,4.3-4.3s4.3,1.9,4.3,4.3v83.5C36.5,160.1,34.5,162,32.2,162z"/>
			</g>
		</g>
	</g>
</g>
</svg>
