<?xml version="1.0" encoding="utf-8"?>
<svg version="1.1" id="Layer_1" text-rendering="auto" shape-rendering="auto" image-rendering="auto" color-rendering="auto"
	 xmlns="http://www.w3.org/2000/svg" xmlns:xlink="http://www.w3.org/1999/xlink" x="0px" y="0px" viewBox="0 0 50.9 58.3"
	 height="100px"
	 style="enable-background:new 0 0 50.9 58.3;" xml:space="preserve">
<g>
	<g text-rendering="geometricPrecision">
		<g>
			<g>
				<path d="M25.7,2.1L25.7,2.1L1.9,15.9c-0.3,0.2-0.6,0.1-0.8-0.2c-0.2-0.3-0.1-0.6,0.2-0.8l0,0L25.1,1.1c0.3-0.2,0.6-0.1,0.8,0.2
					S26,2,25.7,2.1z"/>
				<path d="M1.6,17c-0.1,0-0.3,0-0.4-0.1c-0.4-0.1-0.8-0.4-1-0.7C0,15.8-0.1,15.4,0,15c0.1-0.4,0.4-0.8,0.7-1L24.5,0.2
					c0.8-0.4,1.7-0.2,2.2,0.6C26.9,1.2,27,1.6,26.9,2s-0.4,0.8-0.7,1L2.4,16.8C2.1,16.9,1.8,17,1.6,17z"/>
			</g>
		</g>
	</g>
	<g text-rendering="geometricPrecision">
		<g>
			<g>
				<path d="M7.1,18.8c0-0.3-0.3-0.6-0.6-0.6c-0.3,0-0.6,0.3-0.6,0.6v20.6c0,0.3,0.3,0.6,0.6,0.6c0.3,0,0.6-0.3,0.6-0.6V18.8z
					 M2.2,15.4c0-0.3-0.3-0.6-0.6-0.6S1,15.1,1,15.4v27.5c0,0.3,0.3,0.6,0.6,0.6s0.6-0.3,0.6-0.6V15.4z"/>
				<path d="M1.6,44.5c-0.9,0-1.6-0.7-1.6-1.6V15.4c0-0.9,0.7-1.6,1.6-1.6c0.9,0,1.6,0.7,1.6,1.6v27.5C3.2,43.8,2.4,44.5,1.6,44.5z
					 M6.5,41.1c-0.9,0-1.6-0.7-1.6-1.6V18.8c0-0.9,0.7-1.6,1.6-1.6s1.6,0.7,1.6,1.6v20.6C8.1,40.3,7.4,41.1,6.5,41.1z"/>
			</g>
		</g>
	</g>
	<g text-rendering="geometricPrecision">
		<g>
			<g>
				<path d="M1.9,42.4L1.9,42.4l23.8,13.8c0.3,0.2,0.4,0.5,0.2,0.8s-0.5,0.4-0.8,0.2l0,0L1.3,43.4c-0.3-0.2-0.4-0.5-0.2-0.8
					C1.2,42.3,1.6,42.2,1.9,42.4z"/>
				<path d="M25.4,58.3c-0.3,0-0.5-0.1-0.8-0.2L0.8,44.3c-0.8-0.4-1-1.4-0.6-2.2c0.2-0.4,0.6-0.6,1-0.7c0.4-0.1,0.8-0.1,1.2,0.2
					l23.8,13.8c0.4,0.2,0.6,0.6,0.7,1c0.1,0.4,0.1,0.8-0.2,1.2C26.5,58,26,58.3,25.4,58.3z"/>
			</g>
		</g>
	</g>
	<g text-rendering="geometricPrecision">
		<g>
			<g>
				<path d="M25.6,50.1c-0.3,0.2-0.4,0.5-0.2,0.8s0.5,0.4,0.8,0.2L44,40.8c0.3-0.2,0.4-0.5,0.2-0.8s-0.5-0.4-0.8-0.2L25.6,50.1z
					 M25.1,56.2c-0.3,0.2-0.4,0.5-0.2,0.8s0.5,0.4,0.8,0.2l23.8-13.8c0.3-0.2,0.4-0.5,0.2-0.8s-0.5-0.4-0.8-0.2L25.1,56.2z"/>
				<path d="M25.4,58.3c-0.6,0-1.1-0.3-1.4-0.8c-0.2-0.4-0.3-0.8-0.2-1.2c0.1-0.4,0.4-0.8,0.7-1l23.8-13.8c0.8-0.4,1.7-0.2,2.2,0.6
					c0.4,0.8,0.2,1.7-0.6,2.2L26.2,58.1C26,58.2,25.7,58.3,25.4,58.3z M25.9,52.3c-0.6,0-1.1-0.3-1.4-0.8c-0.4-0.8-0.1-1.8,0.6-2.2
					l0,0L42.9,39c0.4-0.2,0.8-0.3,1.2-0.2s0.8,0.4,1,0.7c0.4,0.8,0.2,1.7-0.6,2.2L26.7,52C26.5,52.2,26.2,52.3,25.9,52.3z"/>
			</g>
		</g>
	</g>
	<g text-rendering="geometricPrecision">
		<g>
			<g>
				<path d="M48.7,42.9L48.7,42.9V15.4c0-0.3,0.3-0.6,0.6-0.6s0.6,0.3,0.6,0.6l0,0v27.5c0,0.3-0.3,0.6-0.6,0.6
					C48.9,43.5,48.7,43.3,48.7,42.9z"/>
				<path d="M49.3,44.5c-0.9,0-1.6-0.7-1.6-1.6V15.4c0-0.9,0.7-1.6,1.6-1.6c0.9,0,1.6,0.7,1.6,1.6v27.5
					C50.9,43.8,50.1,44.5,49.3,44.5z"/>
			</g>
		</g>
	</g>
	<g text-rendering="geometricPrecision">
		<g>
			<g>
				<path d="M25.7,1.1c-0.3-0.2-0.6-0.1-0.8,0.2s-0.1,0.6,0.2,0.8l23.8,13.8c0.3,0.2,0.6,0.1,0.8-0.2c0.2-0.3,0.1-0.6-0.2-0.8
					L25.7,1.1z M26.2,7.1c-0.3-0.2-0.6-0.1-0.8,0.2c-0.2,0.3-0.1,0.6,0.2,0.8l17.8,10.3c0.3,0.2,0.6,0.1,0.8-0.2
					c0.2-0.3,0.1-0.6-0.2-0.8L26.2,7.1z"/>
				<path d="M43.8,19.6c-0.3,0-0.5-0.1-0.8-0.2L25.1,9c-0.8-0.4-1-1.4-0.6-2.2c0.2-0.4,0.6-0.6,1-0.7s0.8-0.1,1.2,0.2l17.8,10.3
					c0.4,0.2,0.6,0.6,0.7,1c0.1,0.4,0.1,0.8-0.2,1.2c-0.2,0.4-0.6,0.6-1,0.7C44.1,19.5,43.9,19.6,43.8,19.6z M49.3,17
					c-0.3,0-0.5-0.1-0.8-0.2L24.6,3c-0.4-0.2-0.6-0.6-0.7-1c-0.1-0.4-0.1-0.8,0.2-1.2c0.2-0.4,0.6-0.6,1-0.7C25.5,0,25.9,0,26.3,0.3
					l23.8,13.8c0.8,0.4,1,1.4,0.6,2.2C50.3,16.7,49.8,17,49.3,17z"/>
			</g>
		</g>
	</g>
</g>
</svg>
