<?xml version="1.0" encoding="utf-8"?>
<svg version="1.1" id="Layer_1" text-rendering="auto" shape-rendering="auto" image-rendering="auto" color-rendering="auto"
	 xmlns="http://www.w3.org/2000/svg" xmlns:xlink="http://www.w3.org/1999/xlink" x="0px" y="0px" viewBox="0 0 196 347.3"
	 height="100px"
	 style="enable-background:new 0 0 196 347.3;" xml:space="preserve">
<style type="text/css">
	.st0{enable-background:new    ;}
</style>
<g>
	<g text-rendering="geometricPrecision">
		<g>
			<g>
				<path d="M100.4,32.6L100.4,32.6v40.2c0,1-0.8,1.8-1.8,1.8s-1.8-0.8-1.8-1.8l0,0V32.6c0-1,0.8-1.8,1.8-1.8S100.4,31.6,100.4,32.6
					z"/>
				<path d="M98.6,77.1c-2.4,0-4.3-1.9-4.3-4.3V32.6c0-2.4,1.9-4.3,4.3-4.3s4.3,1.9,4.3,4.3v40.2C102.9,75.2,101,77.1,98.6,77.1z"/>
			</g>
		</g>
		<g>
			<g>
				<path d="M100.4,32.6L100.4,32.6v40.2c0,1-0.8,1.8-1.8,1.8s-1.8-0.8-1.8-1.8l0,0V32.6c0-1,0.8-1.8,1.8-1.8S100.4,31.6,100.4,32.6
					z"/>
				<path d="M98.6,77.1c-2.4,0-4.3-1.9-4.3-4.3V32.6c0-2.4,1.9-4.3,4.3-4.3s4.3,1.9,4.3,4.3v40.2C102.9,75.2,101,77.1,98.6,77.1z"/>
			</g>
		</g>
	</g>
	<g text-rendering="geometricPrecision">
		<g>
			<g>
				<path d="M78.8,103.2c1,0,1.8-0.8,1.8-1.8s-0.8-1.8-1.8-1.8H29.3c-1,0-1.8,0.8-1.8,1.8s0.8,1.8,1.8,1.8H78.8z M78.8,88.3
					c1,0,1.8-0.8,1.8-1.8s-0.8-1.8-1.8-1.8H29.3c-1,0-1.8,0.8-1.8,1.8s0.8,1.8,1.8,1.8H78.8z"/>
				<path d="M78.8,105.7H29.3c-2.4,0-4.3-1.9-4.3-4.3s1.9-4.3,4.3-4.3h49.5c2.4,0,4.3,1.9,4.3,4.3S81.2,105.7,78.8,105.7z
					 M78.8,90.8H29.3c-2.4,0-4.3-1.9-4.3-4.3s1.9-4.3,4.3-4.3h49.5c2.4,0,4.3,1.9,4.3,4.3S81.2,90.8,78.8,90.8z"/>
			</g>
		</g>
		<g>
			<g>
				<path d="M78.8,103.2c1,0,1.8-0.8,1.8-1.8s-0.8-1.8-1.8-1.8H29.3c-1,0-1.8,0.8-1.8,1.8s0.8,1.8,1.8,1.8H78.8z M78.8,88.3
					c1,0,1.8-0.8,1.8-1.8s-0.8-1.8-1.8-1.8H29.3c-1,0-1.8,0.8-1.8,1.8s0.8,1.8,1.8,1.8H78.8z"/>
				<path d="M78.8,105.7H29.3c-2.4,0-4.3-1.9-4.3-4.3s1.9-4.3,4.3-4.3h49.5c2.4,0,4.3,1.9,4.3,4.3S81.2,105.7,78.8,105.7z
					 M78.8,90.8H29.3c-2.4,0-4.3-1.9-4.3-4.3s1.9-4.3,4.3-4.3h49.5c2.4,0,4.3,1.9,4.3,4.3S81.2,90.8,78.8,90.8z"/>
			</g>
		</g>
	</g>
	<g text-rendering="geometricPrecision">
		<g>
			<g>
				<path d="M118.4,84.7c-1,0-1.8,0.8-1.8,1.8s0.8,1.8,1.8,1.8h49.5c1,0,1.8-0.8,1.8-1.8s-0.8-1.8-1.8-1.8H118.4z M118.4,99.6
					c-1,0-1.8,0.8-1.8,1.8s0.8,1.8,1.8,1.8h49.5c1,0,1.8-0.8,1.8-1.8s-0.8-1.8-1.8-1.8H118.4z"/>
				<path d="M167.9,105.7h-49.5c-2.4,0-4.3-1.9-4.3-4.3s1.9-4.3,4.3-4.3h49.5c2.4,0,4.3,1.9,4.3,4.3S170.2,105.7,167.9,105.7z
					 M167.9,90.8h-49.5c-2.4,0-4.3-1.9-4.3-4.3s1.9-4.3,4.3-4.3h49.5c2.4,0,4.3,1.9,4.3,4.3S170.2,90.8,167.9,90.8z"/>
			</g>
		</g>
		<g>
			<g>
				<path d="M118.4,84.7c-1,0-1.8,0.8-1.8,1.8s0.8,1.8,1.8,1.8h49.5c1,0,1.8-0.8,1.8-1.8s-0.8-1.8-1.8-1.8H118.4z M118.4,99.6
					c-1,0-1.8,0.8-1.8,1.8s0.8,1.8,1.8,1.8h49.5c1,0,1.8-0.8,1.8-1.8s-0.8-1.8-1.8-1.8H118.4z"/>
				<path d="M167.9,105.7h-49.5c-2.4,0-4.3-1.9-4.3-4.3s1.9-4.3,4.3-4.3h49.5c2.4,0,4.3,1.9,4.3,4.3S170.2,105.7,167.9,105.7z
					 M167.9,90.8h-49.5c-2.4,0-4.3-1.9-4.3-4.3s1.9-4.3,4.3-4.3h49.5c2.4,0,4.3,1.9,4.3,4.3S170.2,90.8,167.9,90.8z"/>
			</g>
		</g>
	</g>
	<g text-rendering="geometricPrecision">
		<g>
			<g>
				<path d="M100.4,115.6L100.4,115.6V177c0,1-0.8,1.8-1.8,1.8s-1.8-0.8-1.8-1.8l0,0v-61.3c0-1,0.8-1.8,1.8-1.8
					S100.4,114.6,100.4,115.6z"/>
				<path d="M98.6,181.2c-2.4,0-4.3-1.9-4.3-4.3v-61.3c0-2.4,1.9-4.3,4.3-4.3s4.3,1.9,4.3,4.3V177C102.9,179.3,101,181.2,98.6,181.2
					z"/>
			</g>
		</g>
		<g>
			<g>
				<path d="M100.4,115.6L100.4,115.6V177c0,1-0.8,1.8-1.8,1.8s-1.8-0.8-1.8-1.8l0,0v-61.3c0-1,0.8-1.8,1.8-1.8
					S100.4,114.6,100.4,115.6z"/>
				<path d="M98.6,181.2c-2.4,0-4.3-1.9-4.3-4.3v-61.3c0-2.4,1.9-4.3,4.3-4.3s4.3,1.9,4.3,4.3V177C102.9,179.3,101,181.2,98.6,181.2
					z"/>
			</g>
		</g>
	</g>
	<g text-rendering="geometricPrecision">
		<g>
			<g>
				<path d="M99.5,175.4c-0.9-0.5-2-0.2-2.5,0.7s-0.2,2,0.7,2.5l71.9,41.5c0.9,0.5,2,0.2,2.5-0.7s0.2-2-0.7-2.5L99.5,175.4z
					 M101.1,193.6c-0.9-0.5-2-0.2-2.5,0.7s-0.2,2,0.7,2.5l53.8,31.1c0.9,0.5,2,0.2,2.5-0.7c0.5-0.9,0.2-2-0.7-2.5L101.1,193.6z"/>
				<path d="M153.9,230.5c-0.7,0-1.5-0.2-2.1-0.6L98,198.8c-2.1-1.2-2.8-3.8-1.6-5.9c1.2-2.1,3.8-2.8,5.9-1.6l53.8,31.1
					c2.1,1.2,2.8,3.8,1.6,5.9C156.9,229.7,155.4,230.5,153.9,230.5z M99.8,195.7L99.8,195.7L99.8,195.7L99.8,195.7z M170.5,222.7
					c-0.7,0-1.5-0.2-2.1-0.6l-71.9-41.5c-1-0.6-1.7-1.5-2-2.6s-0.1-2.3,0.4-3.3c1.2-2.1,3.8-2.8,5.9-1.6l71.9,41.5
					c1,0.6,1.7,1.5,2,2.6s0.1,2.3-0.4,3.3C173.4,222,172,222.7,170.5,222.7z M98.2,177.6L98.2,177.6
					C98.2,177.6,98.3,177.6,98.2,177.6L98.2,177.6z"/>
			</g>
		</g>
	</g>
	<g text-rendering="geometricPrecision">
		<g>
			<g>
				<path d="M172.3,218.5L172.3,218.5v83c0,1-0.8,1.8-1.8,1.8s-1.8-0.8-1.8-1.8l0,0v-83c0-1,0.8-1.8,1.8-1.8
					S172.3,217.5,172.3,218.5z"/>
				<path d="M170.5,305.8c-2.4,0-4.3-1.9-4.3-4.3v-83c0-2.4,1.9-4.3,4.3-4.3s4.3,1.9,4.3,4.3v83
					C174.8,303.8,172.9,305.8,170.5,305.8z"/>
			</g>
		</g>
	</g>
	<g text-rendering="geometricPrecision">
		<g>
			<g>
				<path d="M171.4,303c0.9-0.5,1.2-1.6,0.7-2.5s-1.6-1.2-2.5-0.7l-71.9,41.5c-0.9,0.5-1.2,1.6-0.7,2.5s1.6,1.2,2.5,0.7L171.4,303z
					 M154.9,295.3c0.9-0.5,1.2-1.6,0.7-2.5s-1.6-1.2-2.5-0.7l-53.8,31.1c-0.9,0.5-1.2,1.6-0.7,2.5s1.6,1.2,2.5,0.7L154.9,295.3z"/>
				<path d="M98.6,347.3c-1.5,0-2.9-0.8-3.7-2.1c-0.6-1-0.7-2.2-0.4-3.3c0.3-1.1,1-2,2-2.6l71.9-41.5c1-0.6,2.2-0.7,3.3-0.4
					c1.1,0.3,2,1,2.6,2s0.7,2.2,0.4,3.3c-0.3,1.1-1,2-2,2.6l-71.9,41.5C100.1,347.1,99.3,347.3,98.6,347.3z M100.2,329.1
					c-1.5,0-2.9-0.8-3.7-2.1c-0.6-1-0.7-2.2-0.4-3.3c0.3-1.1,1-2,2-2.6l53.8-31.1c2.1-1.2,4.7-0.5,5.9,1.6s0.5,4.7-1.6,5.9
					l-53.8,31.1C101.6,328.9,100.9,329.1,100.2,329.1z"/>
			</g>
		</g>
	</g>
	<g text-rendering="geometricPrecision">
		<g>
			<g>
				<path d="M97.7,344.5L97.7,344.5L25.8,303c-0.9-0.5-1.2-1.6-0.7-2.5s1.6-1.2,2.5-0.7l0,0l71.9,41.5c0.9,0.5,1.2,1.6,0.7,2.5
					C99.7,344.7,98.6,345,97.7,344.5z"/>
				<path d="M98.6,347.3c-0.7,0-1.5-0.2-2.1-0.6l-71.9-41.5c-2.1-1.2-2.8-3.8-1.6-5.9s3.8-2.8,5.9-1.6l71.9,41.5
					c1,0.6,1.7,1.5,2,2.6s0.1,2.3-0.4,3.3C101.5,346.5,100.1,347.3,98.6,347.3z"/>
			</g>
		</g>
	</g>
	<g text-rendering="geometricPrecision">
		<g>
			<g>
				<path d="M24.9,301.5c0,1,0.8,1.8,1.8,1.8s1.8-0.8,1.8-1.8v-83c0-1-0.8-1.8-1.8-1.8s-1.8,0.8-1.8,1.8V301.5z M39.9,291
					c0,1,0.8,1.8,1.8,1.8s1.8-0.8,1.8-1.8v-62.1c0-1-0.8-1.8-1.8-1.8s-1.8,0.8-1.8,1.8V291z"/>
				<path d="M26.7,305.8c-2.4,0-4.3-1.9-4.3-4.3v-83c0-2.4,1.9-4.3,4.3-4.3s4.3,1.9,4.3,4.3v83C31,303.8,29.1,305.8,26.7,305.8z
					 M41.7,295.3c-2.4,0-4.3-1.9-4.3-4.3v-62.1c0-2.4,1.9-4.3,4.3-4.3s4.3,1.9,4.3,4.3V291C46,293.4,44.1,295.3,41.7,295.3z"/>
			</g>
		</g>
	</g>
	<g text-rendering="geometricPrecision">
		<g>
			<g>
				<path d="M99.5,178.5L99.5,178.5L27.6,220c-0.9,0.5-2,0.2-2.5-0.7s-0.2-2,0.7-2.5l0,0l71.9-41.5c0.9-0.5,2-0.2,2.5,0.7
					S100.4,178,99.5,178.5z"/>
				<path d="M26.7,222.7c-1.5,0-2.9-0.8-3.7-2.1c-1.2-2.1-0.5-4.7,1.6-5.9l71.9-41.5c2.1-1.2,4.7-0.5,5.9,1.6c0.6,1,0.7,2.2,0.4,3.3
					s-1,2-2,2.6l-71.9,41.5C28.2,222.6,27.5,222.7,26.7,222.7z"/>
			</g>
		</g>
	</g>
	<g text-rendering="geometricPrecision" transform="translate(112.9567,27.4495)">
		<g>
			<g class="st0">
				<path d="M-14.5-5.4c-3,0-5.3-0.8-6.8-2.4c-2.1-2-3.2-4.9-3.2-8.6c0-3.8,1.1-6.7,3.2-8.6c1.6-1.6,3.9-2.4,6.8-2.4
					s5.3,0.8,6.8,2.4c2.1,1.9,3.2,4.8,3.2,8.6c0,3.7-1.1,6.6-3.2,8.6C-9.2-6.2-11.5-5.4-14.5-5.4z M-10.3-11c1-1.3,1.5-3.1,1.5-5.4
					s-0.5-4.2-1.5-5.4c-1-1.2-2.4-1.9-4.1-1.9s-3.1,0.6-4.1,1.9c-1,1.3-1.5,3.1-1.5,5.4c0,2.4,0.5,4.2,1.5,5.4
					c1,1.3,2.4,1.9,4.1,1.9S-11.4-9.8-10.3-11z"/>
				<path d="M11.3-6v-9.3H3.1V-6h-4.3v-20.9h4.3v8h8.2v-8h4.3V-6H11.3z"/>
			</g>
		</g>
	</g>
	<g text-rendering="geometricPrecision" transform="translate(115.8711,110.4508)">
		<g>
			<g class="st0">
				<path d="M-16.1-9c1,0,1.9-0.1,2.5-0.3c1.2-0.4,1.8-1.2,1.8-2.4c0-0.7-0.3-1.2-0.9-1.6c-0.6-0.4-1.6-0.7-2.8-1l-2.2-0.5
					c-2.2-0.5-3.7-1-4.5-1.6c-1.4-1-2.1-2.5-2.1-4.5c0-1.9,0.7-3.4,2-4.7c1.3-1.3,3.4-1.9,6-1.9c2.2,0,4.1,0.6,5.6,1.7
					s2.4,2.9,2.4,5.1h-4.2c-0.1-1.3-0.6-2.1-1.6-2.7c-0.7-0.3-1.5-0.5-2.5-0.5c-1.1,0-2,0.2-2.7,0.7c-0.7,0.5-1,1.1-1,1.9
					c0,0.7,0.3,1.3,1,1.7c0.4,0.2,1.3,0.5,2.7,0.9l3.6,0.9c1.6,0.4,2.8,0.9,3.6,1.5c1.2,1,1.9,2.4,1.9,4.3s-0.7,3.5-2.2,4.8
					s-3.5,1.9-6.2,1.9s-4.9-0.6-6.4-1.9s-2.3-2.9-2.3-5.1h4.2c0.1,1,0.4,1.7,0.8,2.1C-19-9.4-17.8-9-16.1-9z"/>
			</g>
		</g>
	</g>
	<g text-rendering="geometricPrecision" transform="translate(29.4553,110.4508)">
		<g>
			<g class="st0">
				<path d="M-19.5-5.4c-3,0-5.3-0.8-6.8-2.4c-2.1-2-3.2-4.9-3.2-8.6c0-3.8,1.1-6.7,3.2-8.6c1.6-1.6,3.9-2.4,6.8-2.4
					c3,0,5.3,0.8,6.8,2.4c2.1,1.9,3.2,4.8,3.2,8.6c0,3.7-1.1,6.6-3.2,8.6C-14.2-6.2-16.5-5.4-19.5-5.4z M-15.3-11
					c1-1.3,1.5-3.1,1.5-5.4s-0.5-4.2-1.5-5.4c-1-1.3-2.4-1.9-4.1-1.9c-1.7,0-3.1,0.6-4.1,1.9c-1,1.3-1.5,3.1-1.5,5.4
					c0,2.4,0.5,4.2,1.5,5.4c1,1.3,2.4,1.9,4.1,1.9C-17.7-9.1-16.4-9.8-15.3-11z"/>
			</g>
		</g>
	</g>
	<g text-rendering="geometricPrecision" transform="translate(195.458,110.4508)">
		<g>
			<g class="st0">
				<path d="M-9.5-5.4c-3,0-5.3-0.8-6.8-2.4c-2.1-2-3.2-4.9-3.2-8.6c0-3.8,1.1-6.7,3.2-8.6c1.6-1.6,3.9-2.4,6.8-2.4s5.3,0.8,6.8,2.4
					c2.1,1.9,3.2,4.8,3.2,8.6c0,3.7-1.1,6.6-3.2,8.6C-4.2-6.2-6.5-5.4-9.5-5.4z M-5.3-11c1-1.3,1.5-3.1,1.5-5.4s-0.5-4.2-1.5-5.4
					c-1-1.2-2.4-1.9-4.1-1.9s-3.1,0.6-4.1,1.9c-1,1.3-1.5,3.1-1.5,5.4c0,2.4,0.5,4.2,1.5,5.4c1,1.3,2.4,1.9,4.1,1.9S-6.4-9.8-5.3-11
					z"/>
			</g>
		</g>
	</g>
</g>
</svg>
