<?xml version="1.0" encoding="utf-8"?>
<svg version="1.1" id="Layer_1" text-rendering="auto" shape-rendering="auto" image-rendering="auto" color-rendering="auto"
	 xmlns="http://www.w3.org/2000/svg" xmlns:xlink="http://www.w3.org/1999/xlink" x="0px" y="0px" viewBox="0 0 140 321"
	 height="100px"
	 style="enable-background:new 0 0 140 321;" xml:space="preserve">
<g>
	<g text-rendering="geometricPrecision">
		<g>
			<g>
				<path d="M69.4,300.6c0.6,0.3,1.3,0.1,1.6-0.4c0.3-0.6,0.1-1.3-0.4-1.6l-48.2-27.8c-0.6-0.3-1.3-0.1-1.6,0.4
					c-0.3,0.6-0.1,1.3,0.4,1.6L69.4,300.6z M68.4,288.4c0.6,0.3,1.3,0.1,1.6-0.4c0.3-0.6,0.1-1.3-0.4-1.6l-36.1-20.8
					c-0.6-0.3-1.3-0.1-1.6,0.4c-0.3,0.6-0.1,1.3,0.4,1.6L68.4,288.4z"/>
				<path d="M70,303.3c-0.6,0-1.3-0.2-1.8-0.5l0,0L20,275c-1.8-1-2.4-3.3-1.4-5.1c1-1.8,3.3-2.4,5.1-1.4l48.2,27.8
					c1.8,1,2.4,3.3,1.4,5.1C72.5,302.6,71.3,303.3,70,303.3z M69,291.1c-0.6,0-1.3-0.2-1.8-0.5l-36.1-20.8c-0.9-0.5-1.5-1.3-1.7-2.2
					c-0.3-1-0.1-2,0.4-2.8c1-1.8,3.3-2.4,5.1-1.4l36.1,20.8c0.9,0.5,1.5,1.3,1.7,2.2c0.3,1,0.1,2-0.4,2.8s-1.3,1.5-2.2,1.7
					C69.6,291,69.3,291.1,69,291.1z"/>
			</g>
		</g>
	</g>
	<g text-rendering="geometricPrecision">
		<g>
			<g>
				<path d="M20.6,271.7L20.6,271.7v-55.6c0-0.7,0.5-1.2,1.2-1.2c0.7,0,1.2,0.5,1.2,1.2l0,0v55.6c0,0.7-0.5,1.2-1.2,1.2
					C21.2,273,20.6,272.4,20.6,271.7z"/>
				<path d="M21.8,275.5c-2,0-3.7-1.7-3.7-3.7v-55.6c0-2,1.7-3.7,3.7-3.7s3.7,1.7,3.7,3.7v55.6C25.5,273.8,23.9,275.5,21.8,275.5z"
					/>
			</g>
		</g>
	</g>
	<g text-rendering="geometricPrecision">
		<g>
			<g>
				<path d="M21.2,215.1c-0.6,0.3-0.8,1.1-0.4,1.6c0.3,0.6,1.1,0.8,1.6,0.4l48.2-27.8c0.6-0.3,0.8-1.1,0.4-1.6
					c-0.3-0.6-1.1-0.8-1.6-0.4L21.2,215.1z M32.3,220.3c-0.6,0.3-0.8,1.1-0.4,1.6c0.3,0.6,1.1,0.8,1.6,0.4l36.1-20.8
					c0.6-0.3,0.8-1.1,0.4-1.6c-0.3-0.6-1.1-0.8-1.6-0.4L32.3,220.3z"/>
				<path d="M32.9,225c-0.3,0-0.6,0-1-0.1c-1-0.3-1.8-0.9-2.2-1.7s-0.6-1.9-0.4-2.8c0.3-1,0.9-1.8,1.7-2.2l36.1-20.8
					c1.8-1,4-0.4,5.1,1.4c1,1.8,0.4,4-1.4,5.1l-36.1,20.8C34.2,224.9,33.6,225,32.9,225z M21.8,219.8c-0.3,0-0.6,0-1-0.1
					c-1-0.3-1.8-0.9-2.2-1.7s-0.6-1.9-0.4-2.8c0.3-1,0.9-1.8,1.7-2.2l48.2-27.8c1.8-1,4-0.4,5.1,1.4c1,1.8,0.4,4-1.4,5.1l-48.2,27.8
					C23.1,219.7,22.5,219.8,21.8,219.8z M22.5,217.2L22.5,217.2C22.5,217.2,22.5,217.2,22.5,217.2z"/>
			</g>
		</g>
	</g>
	<g text-rendering="geometricPrecision">
		<g>
			<g>
				<path d="M70.6,187.3L70.6,187.3l48.2,27.8c0.6,0.3,0.8,1.1,0.4,1.6c-0.3,0.6-1.1,0.8-1.6,0.4l0,0l-48.2-27.8
					c-0.6-0.3-0.8-1.1-0.4-1.6C69.3,187.1,70,186.9,70.6,187.3z"/>
				<path d="M118.2,219.8c-0.6,0-1.3-0.2-1.8-0.5l-48.2-27.8c-1.8-1-2.4-3.3-1.4-5.1c0.5-0.9,1.3-1.5,2.2-1.7c1-0.3,2-0.1,2.8,0.4
					l48.2,27.8c0.9,0.5,1.5,1.3,1.7,2.2c0.3,1,0.1,2-0.4,2.8c-0.5,0.9-1.3,1.5-2.2,1.7C118.8,219.8,118.5,219.8,118.2,219.8z
					 M69.4,189.4C69.4,189.4,69.4,189.4,69.4,189.4L69.4,189.4z"/>
			</g>
		</g>
	</g>
	<g text-rendering="geometricPrecision">
		<g>
			<g>
				<path d="M119.4,216.1c0-0.7-0.5-1.2-1.2-1.2c-0.7,0-1.2,0.5-1.2,1.2v55.6c0,0.7,0.5,1.2,1.2,1.2c0.7,0,1.2-0.5,1.2-1.2V216.1z
					 M109.3,223.1c0-0.7-0.5-1.2-1.2-1.2c-0.7,0-1.2,0.5-1.2,1.2v41.6c0,0.7,0.5,1.2,1.2,1.2c0.7,0,1.2-0.5,1.2-1.2V223.1z"/>
				<path d="M118.2,275.5c-2,0-3.7-1.7-3.7-3.7v-55.6c0-2,1.7-3.7,3.7-3.7s3.7,1.7,3.7,3.7v55.6
					C121.9,273.8,120.2,275.5,118.2,275.5z M108.1,268.5c-2,0-3.7-1.7-3.7-3.7v-41.6c0-2,1.7-3.7,3.7-3.7s3.7,1.7,3.7,3.7v41.6
					C111.8,266.8,110.2,268.5,108.1,268.5z"/>
			</g>
		</g>
	</g>
	<g text-rendering="geometricPrecision">
		<g>
			<g>
				<path d="M69.4,298.5L69.4,298.5l48.2-27.8c0.6-0.3,1.3-0.1,1.6,0.4c0.3,0.6,0.1,1.3-0.4,1.6l0,0l-48.2,27.8
					c-0.6,0.3-1.3,0.1-1.6-0.4C68.6,299.6,68.8,298.8,69.4,298.5z"/>
				<path d="M70,303.3c-1.3,0-2.5-0.7-3.2-1.8c-1-1.8-0.4-4,1.4-5.1l0,0l48.2-27.8c1.8-1,4-0.4,5.1,1.4c1,1.8,0.4,4-1.4,5.1
					l-48.2,27.8C71.3,303.1,70.6,303.3,70,303.3z M70.6,300.7L70.6,300.7C70.7,300.7,70.7,300.7,70.6,300.7L70.6,300.7z"/>
			</g>
		</g>
	</g>
	<g text-rendering="geometricPrecision">
		<g>
			<g>
				<path d="M68.8,188.3L68.8,188.3v-55.6c0-0.7,0.5-1.2,1.2-1.2s1.2,0.5,1.2,1.2l0,0v55.6c0,0.7-0.5,1.2-1.2,1.2
					S68.8,189,68.8,188.3z"/>
				<path d="M70,192c-2,0-3.7-1.7-3.7-3.7v-55.6c0-2,1.7-3.7,3.7-3.7c2,0,3.7,1.7,3.7,3.7v55.6C73.7,190.4,72,192,70,192z"/>
			</g>
		</g>
	</g>
	<g text-rendering="geometricPrecision">
		<g>
			<g>
				<path d="M69.4,133.7c0.6,0.3,1.3,0.1,1.6-0.4c0.3-0.6,0.1-1.3-0.4-1.6l-48.2-27.8c-0.6-0.3-1.3-0.1-1.6,0.4
					c-0.3,0.6-0.1,1.3,0.4,1.6L69.4,133.7z M68.4,121.5c0.6,0.3,1.3,0.1,1.6-0.4c0.3-0.6,0.1-1.3-0.4-1.6L33.5,98.6
					c-0.6-0.3-1.3-0.1-1.6,0.4c-0.3,0.6-0.1,1.3,0.4,1.6L68.4,121.5z"/>
				<path d="M70,136.4c-0.6,0-1.3-0.2-1.8-0.5h0L20,108.1c-1.8-1-2.4-3.3-1.4-5.1c0.5-0.9,1.3-1.5,2.2-1.7c1-0.3,2-0.1,2.8,0.4
					l48.2,27.8c1.8,1,2.4,3.3,1.4,5.1C72.5,135.7,71.3,136.4,70,136.4z M70.6,131.6L70.6,131.6C70.6,131.6,70.6,131.6,70.6,131.6z
					 M69,124.2c-0.6,0-1.3-0.2-1.8-0.5l0,0l-36.1-20.8c-0.9-0.5-1.5-1.3-1.7-2.2s-0.1-2,0.4-2.8c1-1.8,3.3-2.4,5.1-1.4l36.1,20.8
					c0.9,0.5,1.5,1.3,1.7,2.2c0.3,1,0.1,2-0.4,2.8C71.5,123.5,70.2,124.2,69,124.2z M69.6,119.4L69.6,119.4
					C69.6,119.4,69.6,119.4,69.6,119.4z"/>
			</g>
		</g>
	</g>
	<g text-rendering="geometricPrecision">
		<g>
			<g>
				<path d="M20.6,104.9L20.6,104.9V49.3c0-0.7,0.5-1.2,1.2-1.2c0.7,0,1.2,0.5,1.2,1.2l0,0v55.6c0,0.7-0.5,1.2-1.2,1.2
					C21.2,106.1,20.6,105.5,20.6,104.9z"/>
				<path d="M21.8,108.6c-2,0-3.7-1.7-3.7-3.7V49.3c0-2,1.7-3.7,3.7-3.7s3.7,1.7,3.7,3.7v55.6C25.5,106.9,23.9,108.6,21.8,108.6z"/>
			</g>
		</g>
	</g>
	<g text-rendering="geometricPrecision">
		<g>
			<g>
				<path d="M21.2,48.2c-0.6,0.3-0.8,1.1-0.4,1.6c0.3,0.6,1.1,0.8,1.6,0.4l48.2-27.8c0.6-0.3,0.8-1.1,0.4-1.6
					c-0.3-0.6-1.1-0.8-1.6-0.4L21.2,48.2z M32.3,53.4c-0.6,0.3-0.8,1.1-0.4,1.6c0.3,0.6,1.1,0.8,1.6,0.4l36.1-20.8
					c0.6-0.3,0.8-1.1,0.4-1.6c-0.3-0.6-1.1-0.8-1.6-0.4L32.3,53.4z"/>
				<path d="M32.9,58.1c-0.3,0-0.6,0-1-0.1c-1-0.3-1.8-0.9-2.2-1.7c-1-1.8-0.4-4,1.4-5.1h0l36.1-20.8c0.9-0.5,1.9-0.6,2.8-0.4
					c1,0.3,1.8,0.9,2.2,1.7c1,1.8,0.4,4-1.4,5.1L34.8,57.7C34.2,58,33.6,58.1,32.9,58.1z M21.8,53c-0.3,0-0.6,0-1-0.1
					c-1-0.3-1.8-0.9-2.2-1.7c-0.5-0.9-0.6-1.9-0.4-2.8s0.9-1.8,1.7-2.2h0l48.2-27.8c1.8-1,4-0.4,5.1,1.4c1,1.8,0.4,4-1.4,5.1
					L23.7,52.5C23.1,52.8,22.5,53,21.8,53z"/>
			</g>
		</g>
	</g>
	<g text-rendering="geometricPrecision">
		<g>
			<g>
				<path d="M70.6,20.4L70.6,20.4l48.2,27.8c0.6,0.3,0.8,1.1,0.4,1.6c-0.3,0.6-1.1,0.8-1.6,0.4l0,0L69.4,22.5
					c-0.6-0.3-0.8-1.1-0.4-1.6C69.3,20.3,70,20.1,70.6,20.4z"/>
				<path d="M118.2,53c-0.6,0-1.3-0.2-1.8-0.5L68.1,24.6c-1.8-1-2.4-3.3-1.4-5.1c1-1.8,3.3-2.4,5.1-1.4L120,46
					c0.9,0.5,1.5,1.3,1.7,2.2s0.1,2-0.4,2.8c-0.5,0.9-1.3,1.5-2.2,1.7C118.8,52.9,118.5,53,118.2,53z M69.4,22.6L69.4,22.6
					C69.4,22.6,69.4,22.6,69.4,22.6L69.4,22.6z"/>
			</g>
		</g>
	</g>
	<g text-rendering="geometricPrecision">
		<g>
			<g>
				<path d="M119.4,49.3c0-0.7-0.5-1.2-1.2-1.2c-0.7,0-1.2,0.5-1.2,1.2v55.6c0,0.7,0.5,1.2,1.2,1.2c0.7,0,1.2-0.5,1.2-1.2V49.3z
					 M109.3,56.2c0-0.7-0.5-1.2-1.2-1.2c-0.7,0-1.2,0.5-1.2,1.2v41.6c0,0.7,0.5,1.2,1.2,1.2c0.7,0,1.2-0.5,1.2-1.2V56.2z"/>
				<path d="M118.2,108.6c-2,0-3.7-1.7-3.7-3.7V49.3c0-2,1.7-3.7,3.7-3.7s3.7,1.7,3.7,3.7v55.6C121.9,106.9,120.2,108.6,118.2,108.6
					z M108.1,101.6c-2,0-3.7-1.7-3.7-3.7V56.2c0-2,1.7-3.7,3.7-3.7s3.7,1.7,3.7,3.7v41.6C111.8,99.9,110.2,101.6,108.1,101.6z"/>
			</g>
		</g>
	</g>
	<g text-rendering="geometricPrecision">
		<g>
			<g>
				<path d="M69.4,131.6L69.4,131.6l48.2-27.8c0.6-0.3,1.3-0.1,1.6,0.4c0.3,0.6,0.1,1.3-0.4,1.6l0,0l-48.2,27.8
					c-0.6,0.3-1.3,0.1-1.6-0.4C68.6,132.7,68.8,132,69.4,131.6z"/>
				<path d="M70,136.4c-1.3,0-2.5-0.7-3.2-1.9c-0.5-0.9-0.6-1.9-0.4-2.8s0.9-1.8,1.7-2.2h0l48.2-27.8c0.9-0.5,1.9-0.6,2.8-0.4
					c1,0.3,1.8,0.9,2.2,1.7c0.5,0.9,0.6,1.9,0.4,2.8c-0.3,1-0.9,1.8-1.7,2.2l-48.2,27.8C71.3,136.2,70.6,136.4,70,136.4z"/>
			</g>
		</g>
	</g>
</g>
</svg>
