<?xml version="1.0" encoding="utf-8"?>
<svg version="1.1" id="Layer_1" text-rendering="auto" shape-rendering="auto" image-rendering="auto" color-rendering="auto"
	 xmlns="http://www.w3.org/2000/svg" xmlns:xlink="http://www.w3.org/1999/xlink" x="0px" y="0px" viewBox="0 0 151.5 166.8"
	 height="100px"
	 style="enable-background:new 0 0 151.5 166.8;" xml:space="preserve">
<style type="text/css">
	.st0{fill:#009900;}
	.st1{enable-background:new    ;}
</style>
<g>
	<g text-rendering="geometricPrecision">
		<g>
			<g>
				<path d="M128.5,33.1L128.5,33.1L99.1,84c-0.5,0.9-1.6,1.2-2.5,0.7s-1.2-1.6-0.7-2.5l0,0l29.4-50.9c0.5-0.9,1.6-1.2,2.5-0.7
					C128.7,31.1,129,32.2,128.5,33.1z"/>
				<path d="M97.5,86.9c-0.6,0-1.3-0.2-1.9-0.5c-0.9-0.5-1.5-1.3-1.8-2.3s-0.1-2,0.4-2.9l29.4-50.9c1-1.8,3.4-2.4,5.2-1.4
					c0.9,0.5,1.5,1.3,1.8,2.3c0.3,1,0.1,2-0.4,2.9L100.8,85C100.1,86.2,98.8,86.9,97.5,86.9z M126.8,32.1L126.8,32.1L126.8,32.1z"/>
			</g>
		</g>
	</g>
	<g text-rendering="geometricPrecision">
		<g>
			<g>
				<path class="st0" d="M99.1,82.2L99.1,82.2l29.6,51.3c0.5,0.9,0.2,2-0.7,2.5s-2,0.2-2.5-0.7l0,0L95.9,84c-0.5-0.9-0.2-2,0.7-2.5
					C97.5,81.1,98.6,81.4,99.1,82.2z"/>
				<path d="M127.2,138.3c-0.3,0-0.7,0-1-0.1c-1-0.3-1.8-0.9-2.3-1.8L94.2,85c-0.5-0.9-0.6-1.9-0.4-2.9c0.3-1,0.9-1.8,1.8-2.3
					s1.9-0.6,2.9-0.4c1,0.3,1.8,0.9,2.3,1.8l0,0l29.6,51.3c0.5,0.9,0.6,1.9,0.4,2.9s-0.9,1.8-1.8,2.3
					C128.5,138.1,127.8,138.3,127.2,138.3z"/>
			</g>
		</g>
		<g>
			<g>
				<path d="M99.1,82.2L99.1,82.2l29.6,51.3c0.5,0.9,0.2,2-0.7,2.5s-2,0.2-2.5-0.7l0,0L95.9,84c-0.5-0.9-0.2-2,0.7-2.5
					C97.5,81.1,98.6,81.4,99.1,82.2z"/>
				<path d="M127.2,138.3c-0.3,0-0.7,0-1-0.1c-1-0.3-1.8-0.9-2.3-1.8L94.2,85c-0.5-0.9-0.6-1.9-0.4-2.9c0.3-1,0.9-1.8,1.8-2.3
					s1.9-0.6,2.9-0.4c1,0.3,1.8,0.9,2.3,1.8l0,0l29.6,51.3c0.5,0.9,0.6,1.9,0.4,2.9s-0.9,1.8-1.8,2.3
					C128.5,138.1,127.8,138.3,127.2,138.3z"/>
			</g>
		</g>
	</g>
	<g text-rendering="geometricPrecision">
		<g>
			<g>
				<path class="st0" d="M97.5,84.9L97.5,84.9h-62c-1,0-1.8-0.8-1.8-1.8s0.8-1.8,1.8-1.8l0,0h62c1,0,1.8,0.8,1.8,1.8
					S98.5,84.9,97.5,84.9z"/>
				<path d="M97.5,86.9h-62c-2.1,0-3.8-1.7-3.8-3.8c0-2.1,1.7-3.8,3.8-3.8h62c2.1,0,3.8,1.7,3.8,3.8S99.6,86.9,97.5,86.9z"/>
			</g>
		</g>
		<g>
			<g>
				<path d="M97.5,84.9L97.5,84.9h-62c-1,0-1.8-0.8-1.8-1.8s0.8-1.8,1.8-1.8l0,0h62c1,0,1.8,0.8,1.8,1.8S98.5,84.9,97.5,84.9z"/>
				<path d="M97.5,86.9h-62c-2.1,0-3.8-1.7-3.8-3.8c0-2.1,1.7-3.8,3.8-3.8h62c2.1,0,3.8,1.7,3.8,3.8S99.6,86.9,97.5,86.9z"/>
			</g>
		</g>
	</g>
	<g text-rendering="geometricPrecision" transform="translate(153.4383,26.6212)">
		<g>
			<g class="st1">
				<path d="M-12.3-6.2C-13.9-4.7-16-4-18.5-4c-3.1,0-5.5-1-7.3-3c-1.8-2-2.7-4.7-2.7-8.2c0-3.8,1-6.7,3-8.7
					c1.8-1.8,4.1-2.7,6.8-2.7c3.6,0,6.3,1.2,8,3.6c0.9,1.3,1.4,2.7,1.5,4h-4.6c-0.3-1-0.7-1.8-1.1-2.3c-0.8-0.9-2-1.4-3.6-1.4
					s-2.9,0.7-3.9,2c-1,1.3-1.4,3.1-1.4,5.6s0.5,4.2,1.5,5.4c1,1.2,2.3,1.8,3.8,1.8c1.6,0,2.8-0.5,3.6-1.6c0.5-0.6,0.8-1.4,1.1-2.5
					h4.5C-9.7-9.6-10.7-7.7-12.3-6.2z"/>
				<path d="M-6.1-26.2h4.2v21.6h-4.2V-26.2z"/>
			</g>
		</g>
	</g>
	<g text-rendering="geometricPrecision" transform="translate(153.4383,170.8368)">
		<g>
			<g class="st1">
				<path d="M-12.3-6.2C-13.9-4.7-16-4-18.5-4c-3.1,0-5.5-1-7.3-3c-1.8-2-2.7-4.7-2.7-8.2c0-3.8,1-6.7,3-8.7
					c1.8-1.8,4.1-2.7,6.8-2.7c3.6,0,6.3,1.2,8,3.6c0.9,1.3,1.4,2.7,1.5,4h-4.6c-0.3-1-0.7-1.8-1.1-2.3c-0.8-0.9-2-1.4-3.6-1.4
					s-2.9,0.7-3.9,2c-1,1.3-1.4,3.1-1.4,5.6s0.5,4.2,1.5,5.4c1,1.2,2.3,1.8,3.8,1.8c1.6,0,2.8-0.5,3.6-1.6c0.5-0.6,0.8-1.4,1.1-2.5
					h4.5C-9.7-9.6-10.7-7.7-12.3-6.2z"/>
				<path d="M-6.1-26.2h4.2v21.6h-4.2V-26.2z"/>
			</g>
		</g>
	</g>
	<g text-rendering="geometricPrecision" transform="translate(28.5439,98.729)">
		<g>
			<g class="st1">
				<path d="M-12.3-6.2C-13.9-4.7-16-4-18.5-4c-3.1,0-5.5-1-7.3-3c-1.8-2-2.7-4.7-2.7-8.2c0-3.8,1-6.7,3-8.7
					c1.8-1.8,4.1-2.7,6.8-2.7c3.6,0,6.3,1.2,8,3.6c0.9,1.3,1.4,2.7,1.5,4h-4.6c-0.3-1-0.7-1.8-1.1-2.3c-0.8-0.9-2-1.4-3.6-1.4
					s-2.9,0.7-3.9,2c-1,1.3-1.4,3.1-1.4,5.6c0,2.4,0.5,4.2,1.5,5.4c1,1.2,2.3,1.8,3.8,1.8c1.6,0,2.8-0.5,3.6-1.6
					c0.5-0.6,0.8-1.4,1.1-2.5h4.5C-9.7-9.6-10.7-7.7-12.3-6.2z"/>
				<path d="M-6.1-26.2h4.2v21.6h-4.2V-26.2z"/>
			</g>
		</g>
	</g>
</g>
</svg>
