<?xml version="1.0" encoding="utf-8"?>
<svg version="1.1" id="Chromic acid" text-rendering="auto" shape-rendering="auto" image-rendering="auto" color-rendering="auto"
	 xmlns="http://www.w3.org/2000/svg" xmlns:xlink="http://www.w3.org/1999/xlink" x="0px" y="0px" viewBox="0 0 98.9 100"
	 height="100px"
	 style="enable-background:new 0 0 98.9 100;" xml:space="preserve">

<style type="text/css">
	.st0{enable-background:new    ;}
</style>
<g>
	<g text-rendering="geometricPrecision">
		<g>
			<g>
				<path d="M48.3,82.7L48.3,82.7V61.4c0-0.5,0.4-1,1-1s1,0.4,1,1l0,0v21.3c0,0.5-0.4,1-1,1S48.3,83.2,48.3,82.7z"/>
				<path d="M49.3,84.7c-1.1,0-2-0.9-2-2V61.4c0-1.1,0.9-2,2-2s2,0.9,2,2v21.3C51.3,83.8,50.4,84.7,49.3,84.7z"/>
			</g>
		</g>
	</g>
	<g text-rendering="geometricPrecision">
		<g>
			<g>
				<path d="M48.3,38.7L48.3,38.7V17.4c0-0.5,0.4-1,1-1s1,0.4,1,1l0,0v21.3c0,0.5-0.4,1-1,1S48.3,39.3,48.3,38.7z"/>
				<path d="M49.3,40.7c-1.1,0-2-0.9-2-2V17.4c0-1.1,0.9-2,2-2s2,0.9,2,2v21.3C51.3,39.8,50.4,40.7,49.3,40.7z"/>
			</g>
		</g>
		<g>
			<g>
				<path d="M48.3,38.7L48.3,38.7V17.4c0-0.5,0.4-1,1-1s1,0.4,1,1l0,0v21.3c0,0.5-0.4,1-1,1S48.3,39.3,48.3,38.7z"/>
				<path d="M49.3,40.7c-1.1,0-2-0.9-2-2V17.4c0-1.1,0.9-2,2-2s2,0.9,2,2v21.3C51.3,39.8,50.4,40.7,49.3,40.7z"/>
			</g>
		</g>
	</g>
	<g text-rendering="geometricPrecision">
		<g>
			<g>
				<path d="M62.4,45c-0.5,0-1,0.4-1,1c0,0.5,0.4,1,1,1h21c0.5,0,1-0.4,1-1c0-0.5-0.4-1-1-1H62.4z M62.4,52.9c-0.5,0-1,0.4-1,1
					c0,0.5,0.4,1,1,1h21c0.5,0,1-0.4,1-1c0-0.5-0.4-1-1-1H62.4z"/>
				<path d="M83.4,55.9h-21c-1.1,0-2-0.9-2-2s0.9-2,2-2h21c1.1,0,2,0.9,2,2S84.5,55.9,83.4,55.9z M83.4,47.9h-21c-1.1,0-2-0.9-2-2
					s0.9-2,2-2h21c1.1,0,2,0.9,2,2S84.5,47.9,83.4,47.9z"/>
			</g>
		</g>
		<g>
			<g>
				<path d="M62.4,45c-0.5,0-1,0.4-1,1c0,0.5,0.4,1,1,1h21c0.5,0,1-0.4,1-1c0-0.5-0.4-1-1-1H62.4z M62.4,52.9c-0.5,0-1,0.4-1,1
					c0,0.5,0.4,1,1,1h21c0.5,0,1-0.4,1-1c0-0.5-0.4-1-1-1H62.4z"/>
				<path d="M83.4,55.9h-21c-1.1,0-2-0.9-2-2s0.9-2,2-2h21c1.1,0,2,0.9,2,2S84.5,55.9,83.4,55.9z M83.4,47.9h-21c-1.1,0-2-0.9-2-2
					s0.9-2,2-2h21c1.1,0,2,0.9,2,2S84.5,47.9,83.4,47.9z"/>
			</g>
		</g>
	</g>
	<g text-rendering="geometricPrecision">
		<g>
			<g>
				<path d="M36.2,54.8c0.5,0,1-0.4,1-1c0-0.5-0.4-1-1-1h-21c-0.5,0-1,0.4-1,1c0,0.5,0.4,1,1,1H36.2z M36.2,46.9c0.5,0,1-0.4,1-1
					c0-0.5-0.4-1-1-1h-21c-0.5,0-1,0.4-1,1c0,0.5,0.4,1,1,1H36.2z"/>
				<path d="M36.2,55.9h-21c-1.1,0-2-0.9-2-2s0.9-2,2-2h21c1.1,0,2,0.9,2,2S37.3,55.9,36.2,55.9z M36.2,47.9h-21c-1.1,0-2-0.9-2-2
					s0.9-2,2-2h21c1.1,0,2,0.9,2,2S37.3,47.9,36.2,47.9z"/>
			</g>
		</g>
		<g>
			<g>
				<path d="M36.2,54.8c0.5,0,1-0.4,1-1c0-0.5-0.4-1-1-1h-21c-0.5,0-1,0.4-1,1c0,0.5,0.4,1,1,1H36.2z M36.2,46.9c0.5,0,1-0.4,1-1
					c0-0.5-0.4-1-1-1h-21c-0.5,0-1,0.4-1,1c0,0.5,0.4,1,1,1H36.2z"/>
				<path d="M36.2,55.9h-21c-1.1,0-2-0.9-2-2s0.9-2,2-2h21c1.1,0,2,0.9,2,2S37.3,55.9,36.2,55.9z M36.2,47.9h-21c-1.1,0-2-0.9-2-2
					s0.9-2,2-2h21c1.1,0,2,0.9,2,2S37.3,47.9,36.2,47.9z"/>
			</g>
		</g>
	</g>
	<g text-rendering="geometricPrecision" transform="translate(56.2283,96.0473)">
		<g>
			<g class="st0">
				<path d="M-7.3,4c-1.6,0-2.9-0.4-3.7-1.3c-1.2-1.1-1.7-2.7-1.7-4.7c0-2.1,0.6-3.7,1.7-4.7c0.9-0.9,2.1-1.3,3.7-1.3
					s2.9,0.4,3.7,1.3c1.1,1,1.7,2.6,1.7,4.7c0,2-0.6,3.6-1.7,4.7C-4.4,3.5-5.7,4-7.3,4z M-5.1,0.9c0.6-0.7,0.8-1.7,0.8-3
					c0-1.3-0.3-2.3-0.8-3c-0.6-0.7-1.3-1-2.2-1S-9-5.7-9.6-5c-0.6,0.7-0.8,1.7-0.8,3c0,1.3,0.3,2.3,0.8,3c0.6,0.7,1.3,1,2.3,1
					S-5.6,1.6-5.1,0.9z"/>
				<path d="M6.7,3.6v-5.1H2.3v5.1h-2.4V-7.8h2.4v4.3h4.5v-4.3h2.4V3.6H6.7z"/>
			</g>
		</g>
	</g>
	<g text-rendering="geometricPrecision" transform="translate(53.6757,54.3645)">
		<g>
			<g class="st0">
				<path d="M-4.5,0.5c-0.8,0.8-1.9,1.2-3.3,1.2c-1.6,0-2.9-0.5-3.9-1.6C-12.5-1-13-2.4-13-4.3c0-2,0.5-3.5,1.6-4.6
					c0.9-0.9,2.1-1.4,3.5-1.4c1.9,0,3.3,0.6,4.2,1.9C-3.2-7.7-2.9-7-2.9-6.2h-2.4c-0.2-0.5-0.4-1-0.6-1.2C-6.3-8-6.9-8.2-7.8-8.2
					c-0.9,0-1.5,0.3-2,1c-0.5,0.7-0.7,1.7-0.7,3s0.3,2.2,0.8,2.9c0.5,0.6,1.2,1,2,1c0.8,0,1.5-0.3,1.9-0.8c0.2-0.3,0.4-0.7,0.6-1.3
					h2.4C-3.1-1.3-3.6-0.3-4.5,0.5z"/>
				<path d="M3-5C2.1-5,1.5-4.8,1.2-4.2C1-3.9,0.9-3.4,0.9-2.7v4h-2.2v-8.4h2.1v1.5c0.3-0.6,0.6-0.9,0.9-1.2
					c0.4-0.3,0.9-0.5,1.6-0.5c0,0,0.1,0,0.1,0c0,0,0.1,0,0.2,0V-5C3.5-5,3.4-5,3.2-5C3.1-5,3.1-5,3-5z"/>
			</g>
		</g>
	</g>
	<g text-rendering="geometricPrecision" transform="translate(56.2283,12.6817)">
		<g>
			<g class="st0">
				<path d="M-7.3-0.6c-1.6,0-2.9-0.4-3.7-1.3c-1.2-1.1-1.7-2.7-1.7-4.7c0-2.1,0.6-3.7,1.7-4.7c0.9-0.9,2.1-1.3,3.7-1.3
					s2.9,0.4,3.7,1.3c1.1,1,1.7,2.6,1.7,4.7c0,2-0.6,3.6-1.7,4.7C-4.4-1.1-5.7-0.6-7.3-0.6z M-5.1-3.7c0.6-0.7,0.8-1.7,0.8-3
					c0-1.3-0.3-2.3-0.8-3c-0.6-0.7-1.3-1-2.2-1s-1.7,0.3-2.3,1c-0.6,0.7-0.8,1.7-0.8,3c0,1.3,0.3,2.3,0.8,3c0.6,0.7,1.3,1,2.3,1
					S-5.6-3-5.1-3.7z"/>
				<path d="M6.7-0.9V-6H2.3v5.1h-2.4v-11.4h2.4V-8h4.5v-4.3h2.4v11.4H6.7z"/>
			</g>
		</g>
	</g>
	<g text-rendering="geometricPrecision" transform="translate(98.4111,54.3645)">
		<g>
			<g class="st0">
				<path d="M-5,1.7c-1.6,0-2.9-0.4-3.7-1.3c-1.2-1.1-1.7-2.7-1.7-4.7c0-2.1,0.6-3.7,1.7-4.7c0.9-0.9,2.1-1.3,3.7-1.3
					s2.9,0.4,3.7,1.3c1.1,1,1.7,2.6,1.7,4.7c0,2-0.6,3.6-1.7,4.7C-2.1,1.2-3.4,1.7-5,1.7z M-2.8-1.4c0.6-0.7,0.8-1.7,0.8-3
					c0-1.3-0.3-2.3-0.8-3c-0.6-0.7-1.3-1-2.2-1s-1.7,0.3-2.3,1c-0.6,0.7-0.8,1.7-0.8,3c0,1.3,0.3,2.3,0.8,3c0.6,0.7,1.3,1,2.3,1
					S-3.3-0.7-2.8-1.4z"/>
			</g>
		</g>
	</g>
	<g text-rendering="geometricPrecision" transform="translate(15.0455,54.3645)">
		<g>
			<g class="st0">
				<path d="M-9.6,1.7c-1.6,0-2.9-0.4-3.7-1.3C-14.5-0.8-15-2.3-15-4.4c0-2.1,0.6-3.7,1.7-4.7c0.9-0.9,2.1-1.3,3.7-1.3
					s2.9,0.4,3.7,1.3c1.1,1,1.7,2.6,1.7,4.7c0,2-0.6,3.6-1.7,4.7C-6.7,1.2-8,1.7-9.6,1.7z M-7.3-1.4c0.6-0.7,0.8-1.7,0.8-3
					c0-1.3-0.3-2.3-0.8-3c-0.6-0.7-1.3-1-2.2-1c-0.9,0-1.7,0.3-2.3,1c-0.6,0.7-0.8,1.7-0.8,3c0,1.3,0.3,2.3,0.8,3
					c0.6,0.7,1.3,1,2.3,1C-8.6-0.4-7.9-0.7-7.3-1.4z"/>
			</g>
		</g>
	</g>
</g>
</svg>
