<?xml version="1.0" encoding="utf-8"?>
<svg version="1.1" id="Layer_1" text-rendering="auto" shape-rendering="auto" image-rendering="auto" color-rendering="auto"
	 xmlns="http://www.w3.org/2000/svg" xmlns:xlink="http://www.w3.org/1999/xlink" x="0px" y="0px" viewBox="0 0 488 236"
	 width="100px"
	 style="enable-background:new 0 0 488 236;" xml:space="preserve">
<g>
	<g text-rendering="geometricPrecision">
		<g>
			<g>
				<path d="M131.7,215L131.7,215l-27.8-48.2c-0.3-0.6-0.1-1.3,0.4-1.6c0.6-0.3,1.3-0.1,1.6,0.4l0,0l27.8,48.2
					c0.3,0.6,0.1,1.3-0.4,1.6C132.7,215.7,132,215.5,131.7,215z"/>
				<path d="M132.7,218.1c-0.3,0-0.6,0-1-0.1c-1-0.3-1.8-0.9-2.2-1.7L101.7,168c-0.5-0.9-0.6-1.9-0.4-2.8c0.3-1,0.9-1.8,1.7-2.2
					c0.9-0.5,1.9-0.6,2.8-0.4c1,0.3,1.8,0.9,2.2,1.7l27.8,48.2c0.5,0.9,0.6,1.9,0.4,2.8c-0.3,1-0.9,1.8-1.7,2.2
					C134,217.9,133.4,218.1,132.7,218.1z"/>
			</g>
		</g>
	</g>
	<g text-rendering="geometricPrecision">
		<g>
			<g>
				<path d="M132.7,116.8L132.7,116.8h55.6c0.7,0,1.2,0.5,1.2,1.2s-0.5,1.2-1.2,1.2l0,0h-55.6c-0.7,0-1.2-0.5-1.2-1.2
					S132.1,116.8,132.7,116.8z"/>
				<path d="M188.4,121.7h-55.6c-2,0-3.7-1.7-3.7-3.7c0-2,1.7-3.7,3.7-3.7h55.6c2,0,3.7,1.7,3.7,3.7
					C192.1,120,190.4,121.7,188.4,121.7z"/>
			</g>
		</g>
	</g>
	<g text-rendering="geometricPrecision">
		<g>
			<g>
				<path d="M187.3,117.4L187.3,117.4l27.8-48.2c0.3-0.6,1.1-0.8,1.6-0.4c0.6,0.3,0.8,1.1,0.4,1.6l0,0l-27.8,48.2
					c-0.3,0.6-1.1,0.8-1.6,0.4C187.2,118.7,187,118,187.3,117.4z"/>
				<path d="M188.4,121.7c-0.6,0-1.3-0.2-1.8-0.5c-0.9-0.5-1.5-1.3-1.7-2.2c-0.3-1-0.1-2,0.4-2.8v0L213,68c1-1.8,3.3-2.4,5.1-1.4
					c0.9,0.5,1.5,1.3,1.7,2.2c0.3,1,0.1,2-0.4,2.8l-27.8,48.2c-0.5,0.9-1.3,1.5-2.2,1.7C189,121.7,188.7,121.7,188.4,121.7z
					 M189.5,118.6L189.5,118.6C189.5,118.6,189.5,118.6,189.5,118.6L189.5,118.6z"/>
			</g>
		</g>
	</g>
	<g text-rendering="geometricPrecision">
		<g>
			<g>
				<path d="M216.2,68.6c-0.7,0-1.2,0.5-1.2,1.2s0.5,1.2,1.2,1.2h55.6c0.7,0,1.2-0.5,1.2-1.2s-0.5-1.2-1.2-1.2H216.2z M223.2,78.6
					c-0.7,0-1.2,0.5-1.2,1.2s0.5,1.2,1.2,1.2h41.6c0.7,0,1.2-0.5,1.2-1.2s-0.5-1.2-1.2-1.2H223.2z"/>
				<path d="M264.8,83.6h-41.6c-2,0-3.7-1.7-3.7-3.7s1.7-3.7,3.7-3.7h41.6c2,0,3.7,1.7,3.7,3.7S266.9,83.6,264.8,83.6z M271.8,73.5
					h-55.6c-2,0-3.7-1.7-3.7-3.7s1.7-3.7,3.7-3.7h55.6c2,0,3.7,1.7,3.7,3.7S273.9,73.5,271.8,73.5z"/>
			</g>
		</g>
	</g>
	<g text-rendering="geometricPrecision">
		<g>
			<g>
				<path d="M270.8,69.2L270.8,69.2L298.6,21c0.3-0.6,1.1-0.8,1.6-0.4c0.6,0.3,0.8,1.1,0.4,1.6l0,0l-27.8,48.2
					c-0.3,0.6-1.1,0.8-1.6,0.4C270.6,70.5,270.4,69.8,270.8,69.2z"/>
				<path d="M271.8,73.5c-0.6,0-1.3-0.2-1.8-0.5c-0.9-0.5-1.5-1.3-1.7-2.3c-0.3-1-0.1-2,0.4-2.8l27.8-48.2c0.5-0.9,1.3-1.5,2.2-1.7
					c1-0.3,2-0.1,2.8,0.4c1.8,1,2.4,3.3,1.4,5.1L275,71.7C274.3,72.9,273.1,73.5,271.8,73.5z"/>
			</g>
		</g>
	</g>
	<g text-rendering="geometricPrecision">
		<g>
			<g>
				<path d="M299.6,20.4c-0.7,0-1.2,0.5-1.2,1.2s0.5,1.2,1.2,1.2h55.6c0.7,0,1.2-0.5,1.2-1.2s-0.5-1.2-1.2-1.2H299.6z M306.6,30.5
					c-0.7,0-1.2,0.5-1.2,1.2s0.5,1.2,1.2,1.2h41.6c0.7,0,1.2-0.5,1.2-1.2s-0.5-1.2-1.2-1.2H306.6z"/>
				<path d="M348.3,35.4h-41.6c-2,0-3.7-1.7-3.7-3.7s1.7-3.7,3.7-3.7h41.6c2,0,3.7,1.7,3.7,3.7S350.3,35.4,348.3,35.4z M355.3,25.3
					h-55.6c-2,0-3.7-1.7-3.7-3.7s1.7-3.7,3.7-3.7h55.6c2,0,3.7,1.7,3.7,3.7S357.3,25.3,355.3,25.3z"/>
			</g>
		</g>
	</g>
	<g text-rendering="geometricPrecision">
		<g>
			<g>
				<path d="M356.3,21L356.3,21l27.8,48.2c0.3,0.6,0.1,1.3-0.4,1.6c-0.6,0.3-1.3,0.1-1.6-0.4l0,0l-27.8-48.2
					c-0.3-0.6-0.1-1.3,0.4-1.6C355.3,20.3,356,20.5,356.3,21z"/>
				<path d="M383.1,73.5c-0.3,0-0.6,0-1-0.1c-1-0.3-1.8-0.9-2.2-1.7l-27.8-48.2c-1-1.8-0.4-4,1.4-5.1c0.9-0.5,1.9-0.6,2.8-0.4
					c1,0.3,1.8,0.9,2.2,1.7L386.3,68c1,1.8,0.4,4-1.4,5.1C384.4,73.4,383.7,73.5,383.1,73.5z M354.2,22.3
					C354.2,22.3,354.2,22.3,354.2,22.3L354.2,22.3z"/>
			</g>
		</g>
	</g>
	<g text-rendering="geometricPrecision">
		<g>
			<g>
				<path d="M355.3,119.2L355.3,119.2h-55.6c-0.7,0-1.2-0.5-1.2-1.2s0.5-1.2,1.2-1.2l0,0h55.6c0.7,0,1.2,0.5,1.2,1.2
					S355.9,119.2,355.3,119.2z"/>
				<path d="M355.3,121.7h-55.6c-2,0-3.7-1.7-3.7-3.7c0-2,1.7-3.7,3.7-3.7h55.6c2,0,3.7,1.7,3.7,3.7
					C359,120,357.3,121.7,355.3,121.7z"/>
			</g>
		</g>
	</g>
	<g text-rendering="geometricPrecision">
		<g>
			<g>
				<path d="M272.9,69.2L272.9,69.2l27.8,48.2c0.3,0.6,0.1,1.3-0.4,1.6c-0.6,0.3-1.3,0.1-1.6-0.4l0,0l-27.8-48.2
					c-0.3-0.6-0.1-1.3,0.4-1.6C271.8,68.4,272.5,68.6,272.9,69.2z"/>
				<path d="M299.6,121.7c-0.3,0-0.6,0-1-0.1c-1-0.3-1.8-0.9-2.2-1.7l-27.8-48.2c-0.5-0.9-0.6-1.9-0.4-2.8c0.3-1,0.9-1.8,1.7-2.2
					c1.8-1,4-0.4,5.1,1.4l0,0l27.8,48.2c1,1.8,0.4,4-1.4,5.1C300.9,121.5,300.3,121.7,299.6,121.7z"/>
			</g>
		</g>
	</g>
	<g text-rendering="geometricPrecision">
		<g>
			<g>
				<path d="M300.7,118.6c0.3-0.6,0.1-1.3-0.4-1.6c-0.6-0.3-1.3-0.1-1.6,0.4l-27.8,48.2c-0.3,0.6-0.1,1.3,0.4,1.6
					c0.6,0.3,1.3,0.1,1.6-0.4L300.7,118.6z M288.5,119.6c0.3-0.6,0.1-1.3-0.4-1.6c-0.6-0.3-1.3-0.1-1.6,0.4l-20.8,36.1
					c-0.3,0.6-0.1,1.3,0.4,1.6c0.6,0.3,1.3,0.1,1.6-0.4L288.5,119.6z"/>
				<path d="M271.8,169.9c-0.6,0-1.3-0.2-1.8-0.5c-1.8-1-2.4-3.3-1.4-5.1l27.8-48.2c0.5-0.9,1.3-1.5,2.2-1.7c1-0.3,2-0.1,2.8,0.4
					c1.8,1,2.4,3.3,1.4,5.1l0,0L275,168C274.3,169.2,273.1,169.9,271.8,169.9z M298.5,117.4C298.5,117.4,298.5,117.4,298.5,117.4
					L298.5,117.4z M266.6,158.8c-0.6,0-1.3-0.2-1.8-0.5c-1.8-1-2.4-3.3-1.4-5.1l20.8-36.1c0.5-0.9,1.3-1.5,2.2-1.7
					c1-0.3,2-0.1,2.8,0.4c1.8,1,2.4,3.3,1.4,5.1l0,0L269.8,157c-0.5,0.9-1.3,1.5-2.2,1.7C267.3,158.8,266.9,158.8,266.6,158.8z
					 M286.3,118.4L286.3,118.4L286.3,118.4z"/>
			</g>
		</g>
	</g>
	<g text-rendering="geometricPrecision">
		<g>
			<g>
				<path d="M271.8,167.4L271.8,167.4h-55.6c-0.7,0-1.2-0.5-1.2-1.2s0.5-1.2,1.2-1.2l0,0h55.6c0.7,0,1.2,0.5,1.2,1.2
					S272.5,167.4,271.8,167.4z"/>
				<path d="M271.8,169.9h-55.6c-2,0-3.7-1.7-3.7-3.7c0-2,1.7-3.7,3.7-3.7h55.6c2,0,3.7,1.7,3.7,3.7
					C275.5,168.2,273.9,169.9,271.8,169.9z"/>
			</g>
		</g>
	</g>
	<g text-rendering="geometricPrecision">
		<g>
			<g>
				<path d="M201.6,118.4c-0.3-0.6-1.1-0.8-1.6-0.4s-0.8,1.1-0.4,1.6l20.8,36.1c0.3,0.6,1.1,0.8,1.6,0.4c0.6-0.3,0.8-1.1,0.4-1.6
					L201.6,118.4z M189.4,117.4c-0.3-0.6-1.1-0.8-1.6-0.4c-0.6,0.3-0.8,1.1-0.4,1.6l27.8,48.2c0.3,0.6,1.1,0.8,1.6,0.4
					c0.6-0.3,0.8-1.1,0.4-1.6L189.4,117.4z"/>
				<path d="M216.2,169.9c-1.3,0-2.5-0.7-3.2-1.8l-27.8-48.2c-0.5-0.9-0.6-1.9-0.4-2.8c0.3-1,0.9-1.8,1.7-2.2
					c0.9-0.5,1.9-0.6,2.8-0.4c1,0.3,1.8,0.9,2.2,1.7l27.8,48.2c1,1.8,0.4,4-1.4,5.1C217.5,169.7,216.8,169.9,216.2,169.9z
					 M221.4,158.8c-1.3,0-2.5-0.7-3.2-1.8l-20.8-36.1c-0.5-0.9-0.6-1.9-0.4-2.8c0.3-1,0.9-1.8,1.7-2.2c0.9-0.5,1.9-0.6,2.8-0.4
					c1,0.3,1.8,0.9,2.2,1.7l20.8,36.1c1,1.8,0.4,4-1.4,5.1C222.6,158.6,222,158.8,221.4,158.8z M199.4,119.7L199.4,119.7
					L199.4,119.7z"/>
			</g>
		</g>
	</g>
	<g text-rendering="geometricPrecision">
		<g>
			<g>
				<path d="M217.2,166.8L217.2,166.8L189.4,215c-0.3,0.6-1.1,0.8-1.6,0.4c-0.6-0.3-0.8-1.1-0.4-1.6l0,0l27.8-48.2
					c0.3-0.6,1.1-0.8,1.6-0.4C217.4,165.5,217.6,166.2,217.2,166.8z"/>
				<path d="M188.4,218.1c-0.6,0-1.3-0.2-1.8-0.5c-0.9-0.5-1.5-1.3-1.7-2.2c-0.3-1-0.1-2,0.4-2.8l27.8-48.2c0.5-0.9,1.3-1.5,2.2-1.7
					c1-0.3,2-0.1,2.8,0.4c0.9,0.5,1.5,1.3,1.7,2.2c0.3,1,0.1,2-0.4,2.8l-27.8,48.2c-0.5,0.9-1.3,1.5-2.3,1.7
					C189,218,188.7,218.1,188.4,218.1z M215.1,165.5C215.1,165.5,215.1,165.5,215.1,165.5L215.1,165.5z"/>
			</g>
		</g>
	</g>
	<g text-rendering="geometricPrecision">
		<g>
			<g>
				<path d="M139.7,203.1c-0.7,0-1.2,0.5-1.2,1.2s0.5,1.2,1.2,1.2h41.6c0.7,0,1.2-0.5,1.2-1.2s-0.5-1.2-1.2-1.2H139.7z M132.7,213.2
					c-0.7,0-1.2,0.5-1.2,1.2s0.5,1.2,1.2,1.2h55.6c0.7,0,1.2-0.5,1.2-1.2s-0.5-1.2-1.2-1.2H132.7z"/>
				<path d="M188.4,218.1h-55.6c-2,0-3.7-1.7-3.7-3.7s1.7-3.7,3.7-3.7h55.6c2,0,3.7,1.7,3.7,3.7S190.4,218.1,188.4,218.1z
					 M181.4,208h-41.6c-2,0-3.7-1.7-3.7-3.7c0-2,1.7-3.7,3.7-3.7h41.6c2,0,3.7,1.7,3.7,3.7C185.1,206.4,183.4,208,181.4,208z"/>
			</g>
		</g>
	</g>
	<g text-rendering="geometricPrecision">
		<g>
			<g>
				<path d="M354.2,117.4c-0.3,0.6-0.1,1.3,0.4,1.6c0.6,0.3,1.3,0.1,1.6-0.4l27.8-48.2c0.3-0.6,0.1-1.3-0.4-1.6
					c-0.6-0.3-1.3-0.1-1.6,0.4L354.2,117.4z M366.4,116.4c-0.3,0.6-0.1,1.3,0.4,1.6c0.6,0.3,1.3,0.1,1.6-0.4l20.8-36.1
					c0.3-0.6,0.1-1.3-0.4-1.6c-0.6-0.3-1.3-0.1-1.6,0.4L366.4,116.4z"/>
				<path d="M355.3,121.7c-0.6,0-1.3-0.2-1.8-0.5c-1.8-1-2.4-3.3-1.4-5.1l0,0L379.9,68c0.5-0.9,1.3-1.5,2.2-1.7c1-0.3,2-0.1,2.8,0.4
					c1.8,1,2.4,3.3,1.4,5.1l-27.8,48.2c-0.5,0.9-1.3,1.5-2.2,1.7C355.9,121.7,355.6,121.7,355.3,121.7z M356.4,118.6L356.4,118.6
					C356.4,118.6,356.4,118.6,356.4,118.6L356.4,118.6z M367.5,120.7c-0.6,0-1.3-0.2-1.8-0.5c-1.8-1-2.4-3.3-1.4-5.1l0,0L385.1,79
					c0.5-0.9,1.3-1.5,2.2-1.7c1-0.3,2-0.1,2.8,0.4c1.8,1,2.4,3.3,1.4,5.1l-20.8,36.1c-0.5,0.9-1.3,1.5-2.2,1.7
					C368.1,120.6,367.8,120.7,367.5,120.7z"/>
			</g>
		</g>
	</g>
	<g text-rendering="geometricPrecision">
		<g>
			<g>
				<path d="M383.1,68.6L383.1,68.6h55.6c0.7,0,1.2,0.5,1.2,1.2s-0.5,1.2-1.2,1.2l0,0h-55.6c-0.7,0-1.2-0.5-1.2-1.2
					S382.4,68.6,383.1,68.6z"/>
				<path d="M438.7,73.5h-55.6c-2,0-3.7-1.7-3.7-3.7s1.7-3.7,3.7-3.7h55.6c2,0,3.7,1.7,3.7,3.7S440.8,73.5,438.7,73.5z"/>
			</g>
		</g>
	</g>
	<g text-rendering="geometricPrecision">
		<g>
			<g>
				<path d="M439.8,69.2c-0.3-0.6-1.1-0.8-1.6-0.4c-0.6,0.3-0.8,1.1-0.4,1.6l27.8,48.2c0.3,0.6,1.1,0.8,1.6,0.4
					c0.6-0.3,0.8-1.1,0.4-1.6L439.8,69.2z M434.6,80.3c-0.3-0.6-1.1-0.8-1.6-0.4c-0.6,0.3-0.8,1.1-0.4,1.6l20.8,36.1
					c0.3,0.6,1.1,0.8,1.6,0.4c0.6-0.3,0.8-1.1,0.4-1.6L434.6,80.3z"/>
				<path d="M466.6,121.7c-1.3,0-2.5-0.7-3.2-1.9l-27.8-48.2c-1-1.8-0.4-4,1.4-5.1c0.9-0.5,1.9-0.6,2.8-0.4c1,0.3,1.8,0.9,2.2,1.7
					l27.8,48.2c0.5,0.9,0.6,1.9,0.4,2.8c-0.3,1-0.9,1.8-1.7,2.2C467.8,121.5,467.2,121.7,466.6,121.7z M437.6,70.5
					C437.6,70.5,437.6,70.5,437.6,70.5L437.6,70.5z M454.4,120.7c-1.3,0-2.5-0.7-3.2-1.9l-20.8-36.1c-0.5-0.9-0.6-1.9-0.4-2.8
					c0.3-1,0.9-1.8,1.7-2.3c1.8-1,4-0.4,5.1,1.4l0,0l20.8,36.1c0.5,0.9,0.6,1.9,0.4,2.8c-0.3,1-0.9,1.8-1.7,2.3
					C455.6,120.5,455,120.7,454.4,120.7z"/>
			</g>
		</g>
	</g>
	<g text-rendering="geometricPrecision">
		<g>
			<g>
				<path d="M467.6,118.6L467.6,118.6l-27.8,48.2c-0.3,0.6-1.1,0.8-1.6,0.4c-0.6-0.3-0.8-1.1-0.4-1.6l0,0l27.8-48.2
					c0.3-0.6,1.1-0.8,1.6-0.4C467.7,117.3,467.9,118,467.6,118.6z"/>
				<path d="M438.7,169.9c-0.6,0-1.3-0.2-1.8-0.5c-1.8-1-2.4-3.3-1.4-5.1l27.8-48.2c1-1.8,3.3-2.4,5.1-1.4c0.9,0.5,1.5,1.3,1.7,2.2
					c0.3,1,0.1,2-0.4,2.8L441.9,168C441.3,169.2,440,169.9,438.7,169.9z M465.4,117.4C465.4,117.4,465.4,117.4,465.4,117.4
					L465.4,117.4z"/>
			</g>
		</g>
	</g>
	<g text-rendering="geometricPrecision">
		<g>
			<g>
				<path d="M438.7,167.4c0.7,0,1.2-0.5,1.2-1.2s-0.5-1.2-1.2-1.2h-55.6c-0.7,0-1.2,0.5-1.2,1.2s0.5,1.2,1.2,1.2H438.7z
					 M431.7,157.4c0.7,0,1.2-0.5,1.2-1.2s-0.5-1.2-1.2-1.2h-41.6c-0.7,0-1.2,0.5-1.2,1.2s0.5,1.2,1.2,1.2H431.7z"/>
				<path d="M438.7,169.9h-55.6c-2,0-3.7-1.7-3.7-3.7c0-2,1.7-3.7,3.7-3.7h55.6c2,0,3.7,1.7,3.7,3.7
					C442.4,168.2,440.8,169.9,438.7,169.9z M431.7,159.9h-41.6c-2,0-3.7-1.7-3.7-3.7s1.7-3.7,3.7-3.7h41.6c2,0,3.7,1.7,3.7,3.7
					S433.8,159.9,431.7,159.9z"/>
			</g>
		</g>
	</g>
	<g text-rendering="geometricPrecision">
		<g>
			<g>
				<path d="M356.3,117.4L356.3,117.4l27.8,48.2c0.3,0.6,0.1,1.3-0.4,1.6c-0.6,0.3-1.3,0.1-1.6-0.4l0,0l-27.8-48.2
					c-0.3-0.6-0.1-1.3,0.4-1.6C355.3,116.6,356,116.8,356.3,117.4z"/>
				<path d="M383.1,169.9c-1.3,0-2.5-0.7-3.2-1.9l-27.8-48.2c-1-1.8-0.4-4,1.4-5.1c0.9-0.5,1.9-0.6,2.8-0.4c1,0.3,1.8,0.9,2.2,1.7
					l27.8,48.2c1,1.8,0.4,4-1.4,5.1C384.4,169.7,383.7,169.9,383.1,169.9z M354.2,118.6C354.2,118.6,354.2,118.6,354.2,118.6
					L354.2,118.6z"/>
			</g>
		</g>
	</g>
	<g text-rendering="geometricPrecision">
		<g>
			<g>
				<path d="M139,129.7c0.3-0.6,0.1-1.3-0.4-1.6c-0.6-0.3-1.3-0.1-1.6,0.4l-20.8,36.1c-0.3,0.6-0.1,1.3,0.4,1.6
					c0.6,0.3,1.3,0.1,1.6-0.4L139,129.7z M133.8,118.6c0.3-0.6,0.1-1.3-0.4-1.6c-0.6-0.3-1.3-0.1-1.6,0.4l-27.8,48.2
					c-0.3,0.6-0.1,1.3,0.4,1.6c0.6,0.3,1.3,0.1,1.6-0.4L133.8,118.6z"/>
				<path d="M104.9,169.9c-0.6,0-1.3-0.2-1.8-0.5c-1.8-1-2.4-3.3-1.4-5.1l27.8-48.2c1-1.8,3.3-2.4,5.1-1.4c1.8,1,2.4,3.3,1.4,5.1v0
					L108.1,168C107.4,169.2,106.2,169.9,104.9,169.9z M131.6,117.4C131.6,117.4,131.6,117.4,131.6,117.4L131.6,117.4z M117.1,168.8
					c-0.6,0-1.3-0.2-1.8-0.5c-1.8-1-2.4-3.3-1.4-5.1l20.8-36.1c0.5-0.9,1.3-1.5,2.3-1.7c1-0.3,2-0.1,2.8,0.4
					c0.9,0.5,1.5,1.3,1.7,2.2c0.3,1,0.1,2-0.4,2.8h0L120.3,167C119.6,168.2,118.4,168.8,117.1,168.8z"/>
			</g>
		</g>
	</g>
	<g text-rendering="geometricPrecision">
		<g>
			<g>
				<path d="M104.9,167.4L104.9,167.4H49.3c-0.7,0-1.2-0.5-1.2-1.2s0.5-1.2,1.2-1.2l0,0h55.6c0.7,0,1.2,0.5,1.2,1.2
					S105.6,167.4,104.9,167.4z"/>
				<path d="M104.9,169.9H49.3c-2,0-3.7-1.7-3.7-3.7c0-2,1.7-3.7,3.7-3.7h55.6c2,0,3.7,1.7,3.7,3.7
					C108.6,168.2,106.9,169.9,104.9,169.9z"/>
			</g>
		</g>
	</g>
	<g text-rendering="geometricPrecision">
		<g>
			<g>
				<path d="M48.2,166.8c0.3,0.6,1.1,0.8,1.6,0.4c0.6-0.3,0.8-1.1,0.4-1.6l-27.8-48.2c-0.3-0.6-1.1-0.8-1.6-0.4
					c-0.6,0.3-0.8,1.1-0.4,1.6L48.2,166.8z M53.4,155.7c0.3,0.6,1.1,0.8,1.6,0.4c0.6-0.3,0.8-1.1,0.4-1.6l-20.8-36.1
					c-0.3-0.6-1.1-0.8-1.6-0.4s-0.8,1.1-0.4,1.6L53.4,155.7z"/>
				<path d="M49.3,169.9c-1.3,0-2.5-0.7-3.2-1.9l-27.8-48.2c-0.5-0.9-0.6-1.9-0.4-2.8c0.3-1,0.9-1.8,1.7-2.2c1.8-1,4-0.4,5.1,1.4
					l27.8,48.2c1,1.8,0.4,4-1.4,5.1C50.5,169.7,49.9,169.9,49.3,169.9z M50.4,165.5L50.4,165.5C50.4,165.5,50.4,165.5,50.4,165.5z
					 M54.5,158.8c-1.3,0-2.5-0.7-3.2-1.8l0,0l-20.8-36.1c-0.5-0.9-0.6-1.9-0.4-2.8c0.3-1,0.9-1.8,1.7-2.2c0.9-0.5,1.9-0.6,2.8-0.4
					c1,0.3,1.8,0.9,2.2,1.7l20.8,36.1c1,1.8,0.4,4-1.4,5.1C55.7,158.6,55.1,158.8,54.5,158.8z"/>
			</g>
		</g>
	</g>
	<g text-rendering="geometricPrecision">
		<g>
			<g>
				<path d="M20.4,117.4L20.4,117.4l27.8-48.2c0.3-0.6,1.1-0.8,1.6-0.4c0.6,0.3,0.8,1.1,0.4,1.6l0,0l-27.8,48.2
					c-0.3,0.6-1.1,0.8-1.6,0.4C20.3,118.7,20.1,118,20.4,117.4z"/>
				<path d="M21.4,121.7c-0.6,0-1.3-0.2-1.8-0.5c-0.9-0.5-1.5-1.3-1.7-2.2c-0.3-1-0.1-2,0.4-2.8L46.1,68c0.5-0.9,1.3-1.5,2.2-1.7
					c1-0.3,2-0.1,2.8,0.4c0.9,0.5,1.5,1.3,1.7,2.2c0.3,1,0.1,2-0.4,2.8l-27.8,48.2c-0.5,0.9-1.3,1.5-2.2,1.7
					C22.1,121.7,21.8,121.7,21.4,121.7z"/>
			</g>
		</g>
	</g>
	<g text-rendering="geometricPrecision">
		<g>
			<g>
				<path d="M49.3,68.6c-0.7,0-1.2,0.5-1.2,1.2s0.5,1.2,1.2,1.2h55.6c0.7,0,1.2-0.5,1.2-1.2s-0.5-1.2-1.2-1.2H49.3z M56.3,78.6
					c-0.7,0-1.2,0.5-1.2,1.2s0.5,1.2,1.2,1.2h41.6c0.7,0,1.2-0.5,1.2-1.2s-0.5-1.2-1.2-1.2H56.3z"/>
				<path d="M97.9,83.6H56.3c-2,0-3.7-1.7-3.7-3.7s1.7-3.7,3.7-3.7h41.6c2,0,3.7,1.7,3.7,3.7S99.9,83.6,97.9,83.6z M104.9,73.5H49.3
					c-2,0-3.7-1.7-3.7-3.7s1.7-3.7,3.7-3.7h55.6c2,0,3.7,1.7,3.7,3.7S106.9,73.5,104.9,73.5z"/>
			</g>
		</g>
	</g>
	<g text-rendering="geometricPrecision">
		<g>
			<g>
				<path d="M131.7,118.6L131.7,118.6l-27.8-48.2c-0.3-0.6-0.1-1.3,0.4-1.6c0.6-0.3,1.3-0.1,1.6,0.4l0,0l27.8,48.2
					c0.3,0.6,0.1,1.3-0.4,1.6C132.7,119.4,132,119.2,131.7,118.6z"/>
				<path d="M132.7,121.7c-0.3,0-0.6,0-1-0.1c-1-0.3-1.8-0.9-2.2-1.7l-27.8-48.2c-0.5-0.9-0.6-1.9-0.4-2.8c0.3-1,0.9-1.8,1.7-2.2
					c1.8-1,4-0.4,5.1,1.4l27.8,48.2c1,1.8,0.4,4-1.4,5.1C134,121.5,133.4,121.7,132.7,121.7z M133.8,117.4L133.8,117.4
					C133.8,117.4,133.8,117.4,133.8,117.4z"/>
			</g>
		</g>
	</g>
</g>
</svg>
