<?xml version="1.0" encoding="utf-8"?>
<svg version="1.1" id="Layer_1" text-rendering="auto" shape-rendering="auto" image-rendering="auto" color-rendering="auto"
	 xmlns="http://www.w3.org/2000/svg" xmlns:xlink="http://www.w3.org/1999/xlink" x="0px" y="0px" viewBox="0 0 52.1 9.7"
	 width="100px"
	 style="enable-background:new 0 0 52.1 9.7;" xml:space="preserve">
<style type="text/css">
	.st0{enable-background:new    ;}
</style>
<g>
	<g text-rendering="geometricPrecision">
		<g>
			<g>
				<path d="M33.5,6.6c0.3,0,0.6-0.3,0.6-0.6c0-0.3-0.3-0.6-0.6-0.6H17.6C17.3,5.4,17,5.7,17,6c0,0.3,0.3,0.6,0.6,0.6H33.5z
					 M33.5,1.7c0.3,0,0.6-0.3,0.6-0.6s-0.3-0.6-0.6-0.6H17.6c-0.3,0-0.6,0.3-0.6,0.6s0.3,0.6,0.6,0.6H33.5z"/>
				<path d="M33.5,7.1H17.6c-0.6,0-1.1-0.5-1.1-1.1s0.5-1.1,1.1-1.1h15.9c0.6,0,1.1,0.5,1.1,1.1C34.6,6.6,34.1,7.1,33.5,7.1z
					 M17.6,5.9C17.6,5.9,17.5,6,17.6,5.9c-0.1,0.1,0,0.2,0,0.2h15.9c0,0,0.1,0,0.1-0.1c0,0,0-0.1-0.1-0.1H17.6z M33.5,2.2H17.6
					c-0.6,0-1.1-0.5-1.1-1.1S17,0,17.6,0h15.9c0.6,0,1.1,0.5,1.1,1.1S34.1,2.2,33.5,2.2z M17.6,1C17.6,1,17.5,1,17.6,1
					c-0.1,0.1,0,0.2,0,0.2h15.9c0,0,0.1,0,0.1-0.1c0,0,0-0.1-0.1-0.1C33.5,1,17.6,1,17.6,1z"/>
			</g>
		</g>
	</g>
	<g text-rendering="geometricPrecision" transform="translate(49.6935,8.9462)">
		<g>
			<g class="st0">
				<path d="M-9-2.4c-0.4,0.5-1.1,0.7-1.8,0.7c-0.9,0-1.7-0.3-2.2-0.9s-0.8-1.4-0.8-2.5s0.3-2,0.9-2.6c0.5-0.5,1.2-0.8,2-0.8
					c1.1,0,1.9,0.4,2.4,1.1C-8.2-7-8.1-6.6-8.1-6.2h-1.3c-0.1-0.3-0.2-0.6-0.3-0.7c-0.3-0.3-0.7-0.4-1.1-0.4c-0.5,0-0.9,0.2-1.2,0.6
					c-0.3,0.3-0.4,0.9-0.4,1.6s0.1,1.3,0.4,1.7c0.3,0.3,0.7,0.5,1.2,0.5s0.8-0.2,1.1-0.5c0.1-0.2,0.3-0.4,0.3-0.8h1.3
					C-8.2-3.4-8.5-2.8-9-2.4z"/>
				<path d="M-3.2-1.9v-2.9h-2.5v2.9H-7v-6.5h1.3v2.5h2.5v-2.5h1.3v6.5H-3.2z"/>
			</g>
		</g>
	</g>
	<g text-rendering="geometricPrecision" transform="translate(63.811,14.5764)">
		<g>
			<g class="st0">
				<path d="M-12.8-8.3c-0.1-0.1-0.2-0.2-0.4-0.2c-0.3,0-0.4,0.1-0.5,0.3c-0.1,0.1-0.1,0.3-0.1,0.5h-0.8c0-0.4,0.1-0.7,0.2-0.9
					c0.2-0.4,0.6-0.6,1.1-0.6c0.4,0,0.8,0.1,1.1,0.4c0.3,0.2,0.4,0.6,0.4,1c0,0.3-0.1,0.6-0.3,0.8c-0.1,0.2-0.3,0.4-0.6,0.6L-13-6.2
					c-0.2,0.2-0.4,0.3-0.4,0.3c-0.1,0.1-0.1,0.1-0.2,0.2h1.9v0.8h-2.9c0-0.3,0.1-0.6,0.2-0.8c0.1-0.3,0.4-0.6,0.8-0.9
					c0.3-0.3,0.6-0.5,0.7-0.6c0.2-0.2,0.3-0.4,0.3-0.6S-12.7-8.2-12.8-8.3z"/>
			</g>
		</g>
	</g>
	<g text-rendering="geometricPrecision" transform="translate(10.0876,8.8189)">
		<g>
			<g class="st0">
				<path d="M-6.3-1.9v-2.9h-2.5v2.9h-1.3v-6.5h1.3v2.5h2.5v-2.5H-5v6.5H-6.3z"/>
			</g>
		</g>
	</g>
	<g text-rendering="geometricPrecision" transform="translate(17.3835,14.5764)">
		<g>
			<g class="st0">
				<path d="M-9.2-8.2c-0.1-0.2-0.3-0.2-0.5-0.2c-0.3,0-0.4,0.1-0.5,0.3c0,0.1-0.1,0.2-0.1,0.5h-0.8c0-0.4,0.1-0.7,0.2-0.9
					c0.2-0.4,0.6-0.6,1.2-0.6c0.4,0,0.8,0.1,1.1,0.4c0.3,0.2,0.4,0.6,0.4,1c0,0.2-0.1,0.5-0.3,0.8c-0.1,0.1-0.3,0.3-0.6,0.5
					l-0.4,0.2C-9.7-6-9.8-5.9-9.9-5.8C-10-5.7-10-5.7-10.1-5.6h1.9v0.7h-2.9c0-0.3,0.1-0.6,0.2-0.8c0.1-0.3,0.4-0.6,0.8-0.9
					c0.4-0.3,0.6-0.5,0.8-0.6C-9.1-7.4-9-7.6-9-7.8C-9.1-8-9.1-8.1-9.2-8.2z"/>
			</g>
		</g>
	</g>
	<g text-rendering="geometricPrecision" transform="translate(22.4849,8.9462)">
		<g>
			<g class="st0">
				<path d="M-8-2.4c-0.5,0.5-1.1,0.7-1.9,0.7c-0.9,0-1.7-0.3-2.2-0.9c-0.5-0.6-0.8-1.4-0.8-2.5s0.3-2,0.9-2.6
					c0.5-0.5,1.2-0.8,2-0.8c1.1,0,1.9,0.4,2.4,1.1C-7.3-7-7.2-6.6-7.1-6.2h-1.4c-0.1-0.3-0.2-0.6-0.3-0.7c-0.3-0.3-0.6-0.4-1.1-0.4
					s-0.9,0.2-1.2,0.6c-0.3,0.4-0.4,1-0.4,1.7s0.1,1.3,0.5,1.6c0.2,0.3,0.6,0.5,1.1,0.5s0.8-0.2,1.1-0.5c0.1-0.2,0.3-0.4,0.3-0.8
					h1.3C-7.3-3.4-7.6-2.8-8-2.4z"/>
			</g>
		</g>
	</g>
</g>
</svg>
