<?xml version="1.0" encoding="utf-8"?>
<svg version="1.1" id="Layer_1" text-rendering="auto" shape-rendering="auto" image-rendering="auto" color-rendering="auto"
	 xmlns="http://www.w3.org/2000/svg" xmlns:xlink="http://www.w3.org/1999/xlink" x="0px" y="0px" viewBox="0 0 100 27.6"
	 width="100px"
	 style="enable-background:new 0 0 100 27.6;" xml:space="preserve">
<style type="text/css">
	.st0{enable-background:new    ;}
</style>
<g>
	<g text-rendering="geometricPrecision">
		<g>
			<g>
				<path d="M41.9,25L41.9,25L69.2,9.2c0.4-0.2,1-0.1,1.2,0.3c0.2,0.4,0.1,1-0.3,1.2l0,0L42.8,26.6c-0.4,0.2-1,0.1-1.2-0.3
					C41.3,25.8,41.5,25.3,41.9,25z"/>
				<path d="M42.4,27.6c-0.6,0-1.2-0.3-1.6-0.9c-0.5-0.9-0.2-2,0.7-2.5L68.8,8.4c0.9-0.5,2-0.2,2.5,0.7s0.2,2-0.7,2.5L43.3,27.4
					C43,27.5,42.7,27.6,42.4,27.6z"/>
			</g>
		</g>
	</g>
	<g text-rendering="geometricPrecision">
		<g>
			<g>
				<path d="M17.7,10.5L17.7,10.5L42.8,25c0.4,0.2,0.6,0.8,0.3,1.2c-0.2,0.4-0.8,0.6-1.2,0.3l0,0L16.8,12c-0.4-0.2-0.6-0.8-0.3-1.2
					C16.7,10.4,17.2,10.3,17.7,10.5z"/>
				<path d="M42.4,27.6c-0.3,0-0.6-0.1-0.9-0.2L16.3,12.8c-0.9-0.5-1.2-1.6-0.7-2.5c0.5-0.9,1.6-1.2,2.5-0.7l25.1,14.5
					c0.9,0.5,1.2,1.6,0.7,2.5C43.6,27.3,43,27.6,42.4,27.6z"/>
			</g>
		</g>
	</g>
	<g text-rendering="geometricPrecision" transform="translate(39.6039,34.9672)">
		<g>
			<g class="st0">
				<path d="M-34.9-24.3h-4.7v-10.4h5.1c1.3,0,2.2,0.4,2.7,1.1c0.3,0.4,0.5,1,0.5,1.6s-0.2,1.1-0.5,1.5c-0.2,0.2-0.4,0.4-0.8,0.6
					c0.5,0.2,0.9,0.5,1.2,0.9c0.3,0.4,0.4,0.9,0.4,1.5s-0.2,1.2-0.5,1.7c-0.2,0.3-0.4,0.6-0.7,0.8c-0.3,0.3-0.7,0.4-1.2,0.5
					C-33.8-24.4-34.3-24.3-34.9-24.3z M-33.8-30.9c0.3-0.2,0.4-0.5,0.4-0.9c0-0.5-0.2-0.8-0.6-1c-0.3-0.1-0.7-0.2-1.2-0.2h-2.3v2.3
					h2.6C-34.5-30.7-34.1-30.7-33.8-30.9z M-34.9-28.9h-2.6v2.8h2.6c0.5,0,0.8-0.1,1.1-0.2c0.5-0.2,0.7-0.7,0.7-1.3
					c0-0.5-0.2-0.9-0.7-1.1C-34.1-28.9-34.5-28.9-34.9-28.9z"/>
				<path d="M-25.4-30.2c-0.8,0-1.4,0.3-1.6,0.8c-0.2,0.3-0.2,0.8-0.2,1.4v3.7h-2V-32h1.9v1.3c0.3-0.5,0.6-0.9,0.8-1.1
					c0.4-0.3,0.9-0.5,1.5-0.5h0.1c0,0,0.1,0,0.2,0v2.1c-0.1,0-0.2,0-0.3,0C-25.3-30.2-25.4-30.2-25.4-30.2z"/>
			</g>
		</g>
	</g>
	<g text-rendering="geometricPrecision" transform="translate(238.1153,34.9672)">
		<g>
			<g class="st0">
				<path d="M-157-25.1c-0.8,0.7-1.8,1.1-3,1.1c-1.5,0-2.7-0.5-3.5-1.4c-0.9-1-1.3-2.3-1.3-4c0-1.8,0.5-3.2,1.5-4.2
					c0.8-0.9,1.9-1.3,3.2-1.3c1.8,0,3,0.6,3.9,1.7c0.4,0.6,0.7,1.3,0.7,1.9h-2.2c-0.1-0.5-0.3-0.9-0.5-1.1c-0.4-0.5-1-0.7-1.8-0.7
					s-1.4,0.3-1.9,1c-0.5,0.6-0.7,1.5-0.7,2.7s0.2,2,0.7,2.6s1.1,0.9,1.8,0.9c0.8,0,1.3-0.2,1.7-0.8c0.2-0.3,0.4-0.7,0.6-1.2h2.2
					C-155.7-26.7-156.2-25.8-157-25.1z"/>
				<path d="M-147.6-24.3V-29h-4.1v4.7h-2.2v-10.4h2.2v4h4.1v-4h2.2v10.4C-145.4-24.3-147.6-24.3-147.6-24.3z"/>
			</g>
		</g>
	</g>
	<g text-rendering="geometricPrecision" transform="translate(295.5856,55.2875)">
		<g>
			<g class="st0">
				<path d="M-199.3-46.6c-0.2,0.2-0.3,0.6-0.3,1h-1.5c0-0.4,0.1-0.8,0.2-1.2c0.1-0.3,0.3-0.6,0.6-0.9c0.2-0.2,0.5-0.3,0.7-0.4
					c0.3-0.1,0.6-0.2,1.1-0.2c0.8,0,1.4,0.2,1.9,0.6c0.5,0.4,0.7,0.9,0.7,1.6c0,0.5-0.1,0.9-0.4,1.2c-0.2,0.2-0.4,0.3-0.6,0.4
					c0.1,0,0.4,0.1,0.6,0.4c0.4,0.4,0.6,0.9,0.6,1.6c0,0.7-0.2,1.3-0.7,1.8s-1.2,0.8-2.1,0.8c-1.2,0-2-0.4-2.4-1.1
					c-0.2-0.4-0.4-0.9-0.4-1.6h1.6c0,0.3,0.1,0.6,0.2,0.8c0.2,0.4,0.5,0.6,1.1,0.6c0.3,0,0.6-0.1,0.8-0.3s0.4-0.5,0.4-0.9
					c0-0.5-0.2-0.9-0.7-1.1c-0.2-0.1-0.6-0.2-1.2-0.2v-1.1c0.5,0,0.9-0.1,1.1-0.2c0.4-0.2,0.5-0.5,0.5-1c0-0.3-0.1-0.6-0.3-0.8
					s-0.4-0.3-0.8-0.3C-198.9-47-199.2-46.8-199.3-46.6z"/>
			</g>
		</g>
	</g>
</g>
</svg>
