<?xml version="1.0" encoding="utf-8"?>
<svg version="1.1" id="Layer_1" shape-rendering="auto" color-rendering="auto" text-rendering="auto" image-rendering="auto"
	 xmlns="http://www.w3.org/2000/svg" xmlns:xlink="http://www.w3.org/1999/xlink" x="0px" y="0px" viewBox="0 0 418.8 198.6"
	 width="100px"
	 style="enable-background:new 0 0 418.8 198.6;" xml:space="preserve">
<g>
	<g text-rendering="geometricPrecision">
		<g>
			<g>
				<path d="M210.5,2.1L210.5,2.1l67.6,49.1c0.8,0.6,1,1.7,0.4,2.5s-1.7,1-2.5,0.4l0,0L208.4,5c-0.8-0.6-1-1.7-0.4-2.5
					C208.5,1.7,209.7,1.5,210.5,2.1z"/>
				<path d="M277,57c-0.9,0-1.8-0.3-2.5-0.8L206.9,7c-0.9-0.7-1.5-1.7-1.7-2.8s0.1-2.3,0.8-3.2c1.4-1.9,4.1-2.4,6-1l67.6,49.1
					c0.9,0.7,1.5,1.7,1.7,2.8c0.2,1.1-0.1,2.3-0.8,3.2C279.7,56.4,278.4,57,277,57z M209,4.1L209,4.1L209,4.1L209,4.1z"/>
			</g>
		</g>
	</g>
	<g text-rendering="geometricPrecision">
		<g>
			<g>
				<path d="M276.6,50.9c-1,0.2-1.6,1.2-1.4,2.1c0.2,1,1.2,1.6,2.1,1.4L359.1,37c1-0.2,1.6-1.2,1.4-2.1c-0.2-1-1.2-1.6-2.1-1.4
					L276.6,50.9z M290.1,63.5c-1,0.2-1.6,1.2-1.4,2.1c0.2,1,1.2,1.6,2.1,1.4L352,54c1-0.2,1.6-1.2,1.4-2.1c-0.2-1-1.2-1.6-2.1-1.4
					L290.1,63.5z"/>
				<path d="M290.4,69.5c-0.8,0-1.6-0.2-2.3-0.7c-1-0.6-1.6-1.6-1.9-2.7c-0.5-2.3,1-4.6,3.3-5.1l0,0l61.2-13c1.1-0.2,2.3,0,3.2,0.6
					c1,0.6,1.6,1.6,1.9,2.7c0.2,1.1,0,2.3-0.6,3.2c-0.6,1-1.6,1.6-2.7,1.9l-61.2,13C291,69.5,290.7,69.5,290.4,69.5z M277,57
					c-2,0-3.8-1.4-4.2-3.4c-0.5-2.3,1-4.6,3.3-5.1l0,0l81.8-17.4c1.1-0.2,2.3,0,3.2,0.6c1,0.6,1.6,1.6,1.9,2.7
					c0.5,2.3-1,4.6-3.3,5.1l-81.8,17.4C277.6,57,277.3,57,277,57z M277.2,53.4L277.2,53.4L277.2,53.4L277.2,53.4z"/>
			</g>
		</g>
	</g>
	<g text-rendering="geometricPrecision">
		<g>
			<g>
				<path d="M360.1,34.1L360.1,34.1L416,96.2c0.7,0.7,0.6,1.9-0.1,2.6c-0.7,0.7-1.9,0.6-2.6-0.1l0,0l-55.9-62.1
					c-0.7-0.7-0.6-1.9,0.1-2.6C358.3,33.3,359.5,33.3,360.1,34.1z"/>
				<path d="M414.7,101.7c-0.1,0-0.2,0-0.2,0c-1.1-0.1-2.2-0.6-3-1.4l-55.9-62.1c-0.8-0.9-1.2-2-1.1-3.1s0.6-2.2,1.4-3
					c1.8-1.6,4.5-1.4,6.1,0.3l0,0l55.9,62.1c1.6,1.8,1.4,4.5-0.3,6.1C416.8,101.3,415.8,101.7,414.7,101.7z"/>
			</g>
		</g>
	</g>
	<g text-rendering="geometricPrecision">
		<g>
			<g>
				<path d="M416.4,98c0.3-1-0.2-2-1.2-2.3s-2,0.2-2.3,1.2l-25.8,79.5c-0.3,1,0.2,2,1.2,2.3c1,0.3,2-0.2,2.3-1.2L416.4,98z
					 M398.8,103.3c0.3-1-0.2-2-1.2-2.3s-2,0.2-2.3,1.2L376,161.7c-0.3,1,0.2,2,1.2,2.3c1,0.3,2-0.2,2.3-1.2L398.8,103.3z"/>
				<path d="M388.9,181.2c-0.4,0-0.9-0.1-1.3-0.2c-2.3-0.7-3.5-3.2-2.8-5.4l25.8-79.5c0.4-1.1,1.1-2,2.1-2.5s2.2-0.6,3.3-0.3
					c2.3,0.7,3.5,3.2,2.8,5.4l0,0L393,178.2c-0.4,1.1-1.1,2-2.1,2.5C390.2,181.1,389.6,181.2,388.9,181.2z M377.8,166.6
					c-0.4,0-0.9-0.1-1.3-0.2c-1.1-0.4-2-1.1-2.5-2.1s-0.6-2.2-0.3-3.3l19.3-59.5c0.7-2.3,3.2-3.5,5.4-2.8c2.3,0.7,3.5,3.2,2.8,5.4
					l-19.3,59.5C381.3,165.4,379.6,166.6,377.8,166.6z"/>
			</g>
		</g>
	</g>
	<g text-rendering="geometricPrecision">
		<g>
			<g>
				<path d="M389.3,178.7L389.3,178.7l-81.8,17.4c-1,0.2-1.9-0.4-2.1-1.4s0.4-1.9,1.4-2.1l0,0l81.8-17.4c1-0.2,1.9,0.4,2.1,1.4
					C390.9,177.5,390.2,178.5,389.3,178.7z"/>
				<path d="M307.1,198.6c-2,0-3.8-1.4-4.2-3.4c-0.5-2.3,1-4.6,3.3-5.1l81.8-17.4c2.3-0.5,4.6,1,5.1,3.3c0.5,2.3-1,4.6-3.3,5.1l0,0
					L308,198.5C307.7,198.6,307.4,198.6,307.1,198.6z M388.7,176.2L388.7,176.2L388.7,176.2z"/>
			</g>
		</g>
	</g>
	<g text-rendering="geometricPrecision">
		<g>
			<g>
				<path d="M305.8,195.5c0.7,0.7,1.8,0.8,2.6,0.1c0.7-0.7,0.8-1.8,0.1-2.6l-55.9-62.1c-0.7-0.7-1.8-0.8-2.6-0.1
					c-0.7,0.7-0.8,1.8-0.1,2.6L305.8,195.5z M309.9,177.6c0.7,0.7,1.8,0.8,2.6,0.1c0.7-0.7,0.8-1.8,0.1-2.6l-41.9-46.5
					c-0.7-0.7-1.8-0.8-2.6-0.1c-0.7,0.7-0.8,1.8-0.1,2.6L309.9,177.6z"/>
				<path d="M307.1,198.6c-0.1,0-0.2,0-0.2,0c-1.1-0.1-2.2-0.6-3-1.4L248,135.1c-1.6-1.8-1.4-4.5,0.3-6.1c1.8-1.6,4.5-1.4,6.1,0.3
					l55.9,62.1c0.8,0.9,1.2,2,1.1,3.1s-0.6,2.2-1.4,3C309.2,198.2,308.2,198.6,307.1,198.6z M311.3,180.7c-1.2,0-2.4-0.5-3.2-1.4
					l-41.9-46.5c-1.6-1.8-1.4-4.5,0.3-6.1c1.8-1.6,4.5-1.4,6.1,0.3l41.9,46.5c1.6,1.8,1.4,4.5-0.3,6.1
					C313.4,180.3,312.3,180.7,311.3,180.7z"/>
			</g>
		</g>
	</g>
	<g text-rendering="geometricPrecision">
		<g>
			<g>
				<path d="M278.7,53.2L278.7,53.2l-25.8,79.5c-0.3,1-1.3,1.5-2.3,1.2c-1-0.3-1.5-1.3-1.2-2.3l0,0l25.8-79.5c0.3-1,1.3-1.5,2.3-1.2
					C278.5,51.3,279.1,52.3,278.7,53.2z"/>
				<path d="M251.2,136.5c-0.4,0-0.9-0.1-1.3-0.2c-2.3-0.7-3.5-3.2-2.8-5.4l25.8-79.6c0.7-2.3,3.2-3.5,5.4-2.8
					c2.3,0.7,3.5,3.2,2.8,5.4l-25.8,79.5C254.7,135.3,253,136.5,251.2,136.5z"/>
			</g>
		</g>
	</g>
	<g text-rendering="geometricPrecision">
		<g>
			<g>
				<path d="M251.2,134L251.2,134h-83.6c-1,0-1.8-0.8-1.8-1.8s0.8-1.8,1.8-1.8l0,0h83.6c1,0,1.8,0.8,1.8,1.8S252.2,134,251.2,134z"
					/>
				<path d="M251.2,136.5h-83.6c-2.4,0-4.3-1.9-4.3-4.3c0-2.4,1.9-4.3,4.3-4.3h83.6c2.4,0,4.3,1.9,4.3,4.3
					C255.5,134.6,253.6,136.5,251.2,136.5z"/>
			</g>
		</g>
	</g>
	<g text-rendering="geometricPrecision">
		<g>
			<g>
				<path d="M169,133.4c0.7-0.7,0.6-1.9-0.1-2.6c-0.7-0.7-1.9-0.6-2.6,0.1L110.4,193c-0.7,0.7-0.6,1.9,0.1,2.6
					c0.7,0.7,1.9,0.6,2.6-0.1L169,133.4z M150.7,131.1c0.7-0.7,0.6-1.9-0.1-2.6c-0.7-0.7-1.9-0.6-2.6,0.1l-41.9,46.5
					c-0.7,0.7-0.6,1.9,0.1,2.6c0.7,0.7,1.9,0.6,2.6-0.1L150.7,131.1z"/>
				<path d="M111.7,198.6c-1,0-2.1-0.4-2.9-1.1c-0.9-0.8-1.4-1.8-1.4-3c-0.1-1.2,0.3-2.3,1.1-3.1l55.9-62.1c0.8-0.9,1.8-1.4,3-1.4
					c1.1-0.1,2.3,0.3,3.1,1.1c1.8,1.6,1.9,4.3,0.3,6.1l-55.9,62.1C114,198.1,112.9,198.6,111.7,198.6z M167.1,131.7L167.1,131.7
					L167.1,131.7z M107.5,180.7c-1,0-2.1-0.4-2.9-1.1c-1.8-1.6-1.9-4.3-0.3-6.1l41.9-46.5c1.6-1.8,4.3-1.9,6.1-0.3
					c1.8,1.6,1.9,4.3,0.3,6.1l0,0l-41.9,46.5C109.9,180.2,108.7,180.7,107.5,180.7z M148.9,129.4L148.9,129.4L148.9,129.4z"/>
			</g>
		</g>
	</g>
	<g text-rendering="geometricPrecision">
		<g>
			<g>
				<path d="M111.3,196.1L111.3,196.1l-81.8-17.4c-1-0.2-1.6-1.2-1.4-2.1c0.2-1,1.2-1.6,2.1-1.4l0,0l81.8,17.4
					c1,0.2,1.6,1.2,1.4,2.1C113.2,195.6,112.3,196.3,111.3,196.1z"/>
				<path d="M111.7,198.6c-0.3,0-0.6,0-0.9-0.1l0,0L29,181.1c-2.3-0.5-3.8-2.8-3.3-5.1c0.5-2.3,2.8-3.8,5.1-3.3l81.8,17.4
					c2.3,0.5,3.8,2.8,3.3,5.1C115.5,197.2,113.7,198.6,111.7,198.6z M111.8,193.6L111.8,193.6L111.8,193.6z"/>
			</g>
		</g>
	</g>
	<g text-rendering="geometricPrecision">
		<g>
			<g>
				<path d="M28.2,177.5c0.3,1,1.3,1.5,2.3,1.2c1-0.3,1.5-1.3,1.2-2.3L5.8,96.9c-0.3-1-1.3-1.5-2.3-1.2S2,97,2.3,98L28.2,177.5z
					 M39.3,162.8c0.3,1,1.3,1.5,2.3,1.2c1-0.3,1.5-1.3,1.2-2.3l-19.3-59.5c-0.3-1-1.3-1.5-2.3-1.2s-1.5,1.3-1.2,2.3L39.3,162.8z"/>
				<path d="M29.9,181.2c-0.7,0-1.3-0.2-2-0.5c-1-0.5-1.8-1.4-2.1-2.5l0,0L0,98.7c-0.7-2.3,0.5-4.7,2.8-5.4c1.1-0.4,2.3-0.3,3.3,0.3
					c1,0.5,1.8,1.4,2.1,2.5L34,175.6c0.4,1.1,0.3,2.3-0.3,3.3c-0.5,1-1.4,1.8-2.5,2.1C30.8,181.2,30.4,181.2,29.9,181.2z M41,166.6
					c-1.8,0-3.5-1.2-4.1-3l-19.3-59.5c-0.7-2.3,0.5-4.7,2.8-5.4c2.3-0.7,4.7,0.5,5.4,2.8l19.3,59.4c0.7,2.3-0.5,4.7-2.8,5.4
					C41.9,166.5,41.4,166.6,41,166.6z M41.7,162L41.7,162L41.7,162z"/>
			</g>
		</g>
	</g>
	<g text-rendering="geometricPrecision">
		<g>
			<g>
				<path d="M2.7,96.2L2.7,96.2l55.9-62.1c0.7-0.7,1.8-0.8,2.6-0.1c0.7,0.7,0.8,1.8,0.1,2.6l0,0L5.4,98.7c-0.7,0.7-1.8,0.8-2.6,0.1
					C2.1,98.1,2.1,96.9,2.7,96.2z"/>
				<path d="M4.1,101.7c-1.1,0-2.1-0.4-2.9-1.1c-0.9-0.8-1.4-1.8-1.4-3c-0.1-1.1,0.3-2.3,1.1-3.1l55.9-62.1c1.6-1.8,4.3-1.9,6.1-0.3
					c1.8,1.6,1.9,4.3,0.3,6.1L7.3,100.3c-0.8,0.9-1.8,1.4-3,1.4C4.2,101.7,4.2,101.7,4.1,101.7z M4.6,97.9L4.6,97.9L4.6,97.9z"/>
			</g>
		</g>
	</g>
	<g text-rendering="geometricPrecision">
		<g>
			<g>
				<path d="M60.4,33.5c-1-0.2-1.9,0.4-2.1,1.4s0.4,1.9,1.4,2.1l81.8,17.4c1,0.2,1.9-0.4,2.1-1.4c0.2-1-0.4-1.9-1.4-2.1L60.4,33.5z
					 M67.5,50.5c-1-0.2-1.9,0.4-2.1,1.4s0.4,1.9,1.4,2.1L128,67c1,0.2,1.9-0.4,2.1-1.4c0.2-1-0.4-1.9-1.4-2.1L67.5,50.5z"/>
				<path d="M128.4,69.5c-0.3,0-0.6,0-0.9-0.1l-61.2-13c-2.3-0.5-3.8-2.8-3.3-5.1c0.5-2.3,2.8-3.8,5.1-3.3l0,0l61.2,13
					c2.3,0.5,3.8,2.8,3.3,5.1c-0.2,1.1-0.9,2.1-1.9,2.7C130,69.3,129.2,69.5,128.4,69.5z M67,52.9L67,52.9L67,52.9L67,52.9z
					 M141.8,57c-0.3,0-0.6,0-0.9-0.1L59.1,39.5c-2.3-0.5-3.8-2.8-3.3-5.1c0.5-2.3,2.8-3.8,5.1-3.3l0,0l81.8,17.4
					c2.3,0.5,3.8,2.8,3.3,5.1C145.6,55.6,143.8,57,141.8,57z"/>
			</g>
		</g>
	</g>
	<g text-rendering="geometricPrecision">
		<g>
			<g>
				<path d="M210.5,5L210.5,5l-67.6,49.1c-0.8,0.6-1.9,0.4-2.5-0.4s-0.4-1.9,0.4-2.5l0,0l67.6-49.1c0.8-0.6,1.9-0.4,2.5,0.4
					C211.5,3.3,211.3,4.4,210.5,5z"/>
				<path d="M141.8,57c-0.2,0-0.5,0-0.7-0.1c-1.1-0.2-2.1-0.8-2.8-1.7c-0.7-0.9-0.9-2.1-0.8-3.2c0.2-1.1,0.8-2.1,1.7-2.8l67.7-49.1
					c1.9-1.4,4.6-1,6,1c0.7,0.9,1,2.1,0.8,3.2c-0.2,1.1-0.8,2.1-1.7,2.8l-67.6,49.1C143.6,56.7,142.7,57,141.8,57z"/>
			</g>
		</g>
	</g>
	<g text-rendering="geometricPrecision">
		<g>
			<g>
				<path d="M165.9,132.7L165.9,132.7l-25.8-79.5c-0.3-1,0.2-2,1.2-2.3s2,0.2,2.3,1.2l0,0l25.8,79.5c0.3,1-0.2,2-1.2,2.3
					C167.2,134.2,166.2,133.7,165.9,132.7z"/>
				<path d="M167.6,136.5c-1.8,0-3.5-1.2-4.1-3l0,0L137.7,54c-0.7-2.3,0.5-4.7,2.8-5.4c2.3-0.7,4.7,0.5,5.4,2.8l25.8,79.5
					c0.4,1.1,0.3,2.3-0.3,3.3c-0.5,1-1.4,1.8-2.5,2.1C168.5,136.4,168,136.5,167.6,136.5z"/>
			</g>
		</g>
	</g>
</g>
</svg>
