<?xml version="1.0" encoding="utf-8"?>
<svg version="1.1" id="Layer_1" shape-rendering="auto" color-rendering="auto" text-rendering="auto" image-rendering="auto"
	 xmlns="http://www.w3.org/2000/svg" xmlns:xlink="http://www.w3.org/1999/xlink" x="0px" y="0px" viewBox="0 0 181.4 55.8"
	 width="100px"
	 style="enable-background:new 0 0 181.4 55.8;" xml:space="preserve">
<style type="text/css">
	.st0{enable-background:new    ;}
</style>
<g>
	<g text-rendering="geometricPrecision">
		<g>
			<g>
				<path d="M51.4,21.9L51.4,21.9l50,28.9c0.9,0.5,1.2,1.6,0.7,2.4c-0.5,0.9-1.6,1.2-2.4,0.7l0,0L49.7,25c-0.9-0.5-1.2-1.6-0.7-2.4
					C49.4,21.7,50.5,21.4,51.4,21.9z"/>
				<path d="M100.4,55.6c-0.6,0-1.1-0.1-1.6-0.4l-50-28.9c-1.6-0.9-2.1-2.9-1.2-4.5c0.4-0.8,1.1-1.3,2-1.5s1.7-0.1,2.5,0.3l50,28.9
					c0.8,0.4,1.3,1.1,1.5,2s0.1,1.7-0.3,2.5c-0.4,0.8-1.1,1.3-2,1.5C101,55.6,100.7,55.6,100.4,55.6z M50.5,23.2
					C50.4,23.2,50.4,23.2,50.5,23.2c-0.1,0-0.2,0.1-0.3,0.1c-0.1,0.1,0,0.3,0.1,0.4l50,28.9c0.1,0.1,0.3,0,0.4-0.1
					c0.1-0.1,0-0.3-0.1-0.4L50.5,23.2C50.6,23.2,50.5,23.2,50.5,23.2z"/>
			</g>
		</g>
	</g>
	<g text-rendering="geometricPrecision">
		<g>
			<g>
				<path d="M101.1,32.6c-0.9,0.5-1.2,1.6-0.7,2.4c0.5,0.9,1.6,1.2,2.4,0.7l44.3-25.6c0.9-0.5,1.2-1.6,0.7-2.4
					c-0.5-0.9-1.6-1.2-2.4-0.7L101.1,32.6z M99.5,50.8c-0.9,0.5-1.2,1.6-0.7,2.4c0.5,0.9,1.6,1.2,2.4,0.7l53.4-30.8
					c0.9-0.5,1.2-1.6,0.7-2.4c-0.5-0.9-1.6-1.2-2.4-0.7L99.5,50.8z"/>
				<path d="M100.4,55.6c-0.3,0-0.6,0-0.9-0.1c-0.8-0.2-1.6-0.8-2-1.5c-0.9-1.6-0.4-3.6,1.2-4.5l0,0L152,18.7
					c0.8-0.4,1.6-0.6,2.5-0.3c0.8,0.2,1.6,0.8,2,1.5c0.9,1.6,0.4,3.6-1.2,4.5L102,55.2C101.6,55.4,101,55.6,100.4,55.6z M100.3,52
					c-0.1,0.1-0.1,0.1-0.1,0.2s0,0.1,0,0.2c0.1,0.1,0.3,0.2,0.4,0.1l53.3-30.8c0.1-0.1,0.2-0.3,0.1-0.4c0-0.1-0.1-0.1-0.2-0.1
					c-0.1,0-0.1,0-0.2,0L100.3,52z M102,37.5c-1.1,0-2.2-0.6-2.9-1.6c-0.9-1.6-0.4-3.6,1.2-4.5l0,0l44.3-25.6
					c0.8-0.4,1.7-0.6,2.5-0.3c0.8,0.2,1.6,0.8,2,1.5c0.4,0.8,0.6,1.6,0.3,2.5s-0.8,1.6-1.5,2l-44.3,25.6
					C103.1,37.3,102.6,37.5,102,37.5z M101.8,33.9c-0.1,0.1-0.2,0.3-0.1,0.4c0.1,0.1,0.3,0.2,0.4,0.1l44.3-25.6
					c0.1,0,0.1-0.1,0.1-0.2c0-0.1,0-0.1,0-0.2c0-0.1-0.1-0.1-0.2-0.1s-0.1,0-0.2,0L101.8,33.9z"/>
			</g>
		</g>
	</g>
	<g text-rendering="geometricPrecision" transform="translate(29.8323,26.3175)">
		<g>
			<g class="st0">
				<path d="M-17.3-4.9v-9.3h-8.2v9.3h-4.3v-20.9h4.3v8h8.2v-8h4.3v20.9H-17.3z"/>
				<path d="M0.4-4.3c-3,0-5.3-0.8-6.8-2.4c-2.1-2-3.2-4.9-3.2-8.6c0-3.8,1.1-6.7,3.2-8.6c1.6-1.6,3.9-2.4,6.8-2.4
					c3,0,5.3,0.8,6.8,2.4c2.1,1.9,3.2,4.8,3.2,8.6c0,3.7-1.1,6.6-3.2,8.6C5.6-5.1,3.4-4.3,0.4-4.3z M4.5-9.9C5.5-11.2,6-13,6-15.3
					s-0.5-4.2-1.5-5.4c-1-1.2-2.4-1.9-4.1-1.9c-1.7,0-3.1,0.6-4.1,1.9c-1,1.3-1.5,3.1-1.5,5.4c0,2.4,0.5,4.2,1.5,5.4
					C-2.7-8.6-1.3-8,0.4-8C2.1-8,3.5-8.7,4.5-9.9z"/>
			</g>
		</g>
	</g>
	<g text-rendering="geometricPrecision" transform="translate(192.081,26.3175)">
		<g>
			<g class="st0">
				<path d="M-20.6-4.3c-3,0-5.3-0.8-6.8-2.4c-2.1-2-3.2-4.9-3.2-8.6c0-3.8,1.1-6.7,3.2-8.6c1.6-1.6,3.9-2.4,6.8-2.4
					c3,0,5.3,0.8,6.8,2.4c2.1,1.9,3.2,4.8,3.2,8.6c0,3.7-1.1,6.6-3.2,8.6C-15.3-5.1-17.6-4.3-20.6-4.3z M-16.4-9.9
					c1-1.3,1.5-3.1,1.5-5.4s-0.5-4.2-1.5-5.4c-1-1.2-2.4-1.9-4.1-1.9s-3.1,0.6-4.1,1.9c-1,1.3-1.5,3.1-1.5,5.4
					c0,2.4,0.5,4.2,1.5,5.4c1,1.3,2.4,1.9,4.1,1.9C-18.8-8-17.5-8.7-16.4-9.9z"/>
			</g>
		</g>
	</g>
</g>
</svg>
