<?xml version="1.0" encoding="utf-8"?>
<svg version="1.1" id="Layer_1" shape-rendering="auto" color-rendering="auto" text-rendering="auto" image-rendering="auto"
	 xmlns="http://www.w3.org/2000/svg" xmlns:xlink="http://www.w3.org/1999/xlink" x="0px" y="0px" viewBox="0 0 346.3 395.1"
	 height="100px"
	 style="enable-background:new 0 0 346.3 395.1;" xml:space="preserve">
<style type="text/css">
	.st0{enable-background:new    ;}
</style>
<g>
	<g text-rendering="geometricPrecision">
		<g>
			<g>
				<path d="M123.2,24.9L123.2,24.9l50.2,29c0.9,0.5,1.2,1.6,0.7,2.5s-1.6,1.2-2.5,0.7l0,0l-50.2-29c-0.9-0.5-1.2-1.6-0.7-2.5
					C121.3,24.7,122.4,24.4,123.2,24.9z"/>
				<path d="M172.5,59.7c-0.7,0-1.5-0.2-2.1-0.6l-50.2-29c-2.1-1.2-2.8-3.8-1.6-5.9c1.2-2.1,3.8-2.8,5.9-1.6l50.2,29
					c1,0.6,1.7,1.5,2,2.6s0.1,2.3-0.4,3.3c-0.6,1-1.5,1.7-2.6,2C173.3,59.7,172.9,59.7,172.5,59.7z M122,27.1L122,27.1L122,27.1
					L122,27.1z"/>
			</g>
		</g>
		<g>
			<g>
				<path d="M123.2,24.9L123.2,24.9l50.2,29c0.9,0.5,1.2,1.6,0.7,2.5s-1.6,1.2-2.5,0.7l0,0l-50.2-29c-0.9-0.5-1.2-1.6-0.7-2.5
					C121.3,24.7,122.4,24.4,123.2,24.9z"/>
				<path d="M172.5,59.7c-0.7,0-1.5-0.2-2.1-0.6l-50.2-29c-2.1-1.2-2.8-3.8-1.6-5.9c1.2-2.1,3.8-2.8,5.9-1.6l50.2,29
					c1,0.6,1.7,1.5,2,2.6s0.1,2.3-0.4,3.3c-0.6,1-1.5,1.7-2.6,2C173.3,59.7,172.9,59.7,172.5,59.7z M122,27.1L122,27.1L122,27.1
					L122,27.1z"/>
			</g>
		</g>
	</g>
	<g text-rendering="geometricPrecision">
		<g>
			<path d="M172.5,135.5h1.8l9.4-78.6l-11.2-6.5l-11.2-6.5l9.4,91.6H172.5z"/>
		</g>
	</g>
	<g text-rendering="geometricPrecision">
		<g>
			<g>
				<path d="M173.4,133.9L173.4,133.9l53.6,30.9c0.9,0.5,1.2,1.6,0.7,2.5s-1.6,1.2-2.5,0.7l0,0l-53.6-30.9c-0.9-0.5-1.2-1.6-0.7-2.5
					C171.5,133.7,172.5,133.4,173.4,133.9z"/>
				<path d="M226.1,170.7c-0.7,0-1.5-0.2-2.1-0.6l-53.6-30.9c-2.1-1.2-2.8-3.8-1.6-5.9c0.6-1,1.5-1.7,2.6-2s2.3-0.1,3.3,0.4
					l53.6,30.9c1,0.6,1.7,1.5,2,2.6s0.1,2.3-0.4,3.3c-0.6,1-1.5,1.7-2.6,2C226.8,170.6,226.5,170.7,226.1,170.7z"/>
			</g>
		</g>
		<g>
			<g>
				<path d="M173.4,133.9L173.4,133.9l53.6,30.9c0.9,0.5,1.2,1.6,0.7,2.5s-1.6,1.2-2.5,0.7l0,0l-53.6-30.9c-0.9-0.5-1.2-1.6-0.7-2.5
					C171.5,133.7,172.5,133.4,173.4,133.9z"/>
				<path d="M226.1,170.7c-0.7,0-1.5-0.2-2.1-0.6l-53.6-30.9c-2.1-1.2-2.8-3.8-1.6-5.9c0.6-1,1.5-1.7,2.6-2s2.3-0.1,3.3,0.4
					l53.6,30.9c1,0.6,1.7,1.5,2,2.6s0.1,2.3-0.4,3.3c-0.6,1-1.5,1.7-2.6,2C226.8,170.6,226.5,170.7,226.1,170.7z"/>
			</g>
		</g>
	</g>
	<g text-rendering="geometricPrecision">
		<g>
			<g>
				<path d="M246.2,198.7L246.2,198.7V260c0,1-0.8,1.8-1.8,1.8s-1.8-0.8-1.8-1.8l0,0v-61.3c0-1,0.8-1.8,1.8-1.8
					S246.2,197.7,246.2,198.7z"/>
				<path d="M244.4,264.3c-2.4,0-4.3-1.9-4.3-4.3v-61.3c0-2.4,1.9-4.3,4.3-4.3s4.3,1.9,4.3,4.3V260
					C248.7,262.4,246.8,264.3,244.4,264.3z"/>
			</g>
		</g>
		<g>
			<g>
				<path d="M246.2,198.7L246.2,198.7V260c0,1-0.8,1.8-1.8,1.8s-1.8-0.8-1.8-1.8l0,0v-61.3c0-1,0.8-1.8,1.8-1.8
					S246.2,197.7,246.2,198.7z"/>
				<path d="M244.4,264.3c-2.4,0-4.3-1.9-4.3-4.3v-61.3c0-2.4,1.9-4.3,4.3-4.3s4.3,1.9,4.3,4.3V260
					C248.7,262.4,246.8,264.3,244.4,264.3z"/>
			</g>
		</g>
	</g>
	<g text-rendering="geometricPrecision">
		<g>
			<g>
				<path d="M245.3,258.4L245.3,258.4l53.6,30.9c0.9,0.5,1.2,1.6,0.7,2.5s-1.6,1.2-2.5,0.7l0,0l-53.6-30.9c-0.9-0.5-1.2-1.6-0.7-2.5
					S244.5,258,245.3,258.4z"/>
				<path d="M298,295.2c-0.7,0-1.5-0.2-2.1-0.6l-53.6-30.9c-1-0.6-1.7-1.5-2-2.6s-0.1-2.3,0.4-3.3c1.2-2.1,3.8-2.8,5.9-1.6
					l53.6,30.9c1,0.6,1.7,1.5,2,2.6s0.1,2.3-0.4,3.3s-1.5,1.7-2.6,2C298.7,295.2,298.4,295.2,298,295.2z M244.1,260.6L244.1,260.6
					L244.1,260.6L244.1,260.6z"/>
			</g>
		</g>
		<g>
			<g>
				<path d="M245.3,258.4L245.3,258.4l53.6,30.9c0.9,0.5,1.2,1.6,0.7,2.5s-1.6,1.2-2.5,0.7l0,0l-53.6-30.9c-0.9-0.5-1.2-1.6-0.7-2.5
					S244.5,258,245.3,258.4z"/>
				<path d="M298,295.2c-0.7,0-1.5-0.2-2.1-0.6l-53.6-30.9c-1-0.6-1.7-1.5-2-2.6s-0.1-2.3,0.4-3.3c1.2-2.1,3.8-2.8,5.9-1.6
					l53.6,30.9c1,0.6,1.7,1.5,2,2.6s0.1,2.3-0.4,3.3s-1.5,1.7-2.6,2C298.7,295.2,298.4,295.2,298,295.2z M244.1,260.6L244.1,260.6
					L244.1,260.6L244.1,260.6z"/>
			</g>
		</g>
	</g>
	<g text-rendering="geometricPrecision">
		<g>
			<g>
				<path d="M171.6,300L171.6,300l71.9-41.5c0.9-0.5,2-0.2,2.5,0.7c0.5,0.9,0.2,2-0.7,2.5l0,0l-71.9,41.5c-0.9,0.5-2,0.2-2.5-0.7
					C170.5,301.6,170.8,300.5,171.6,300z"/>
				<path d="M172.5,305.8c-1.5,0-2.9-0.8-3.7-2.1c-1.2-2.1-0.5-4.7,1.6-5.9l71.9-41.5c2-1.2,4.7-0.5,5.9,1.6
					c1.2,2.1,0.5,4.7-1.6,5.9l-71.9,41.5C174,305.6,173.2,305.8,172.5,305.8z M172.9,302.1L172.9,302.1L172.9,302.1z"/>
			</g>
		</g>
	</g>
	<g text-rendering="geometricPrecision">
		<g>
			<g>
				<path d="M174.8,305l-0.5-3.5h-1.8h-1.8l-0.5,3.5l0,0H174.8z M176.6,316.7l-0.5-3.6l0,0H169l0,0l-0.5,3.6l0,0H176.6z
					 M178.4,328.4l-0.5-3.6l0,0h-10.7l-0.5,3.6H178.4z M180.2,340l-0.5-3.6h-14.2l0,0L165,340l0,0H180.2z M182,351.7l-0.5-3.6h-17.8
					l-0.5,3.6l0,0H182z M183.7,363.4l-0.5-3.6l0,0h-21.4l0,0l-0.5,3.6h11.2H183.7z"/>
				<path d="M186.7,365.9h-28.3l1.3-8.6h25.6L186.7,365.9z M184.9,354.2h-24.7l1.3-8.6h22.1L184.9,354.2z M183.1,342.5h-21.2
					l1.3-8.6h18.5L183.1,342.5z M181.3,330.9h-17.6l1.3-8.6h15L181.3,330.9z M179.5,319.2h-14l1.3-8.6h11.4L179.5,319.2z
					 M177.7,307.5h-10.4l1.3-8.5h7.9L177.7,307.5z"/>
			</g>
		</g>
		<g>
			<g>
				<path d="M174.8,305l-0.5-3.5h-1.8h-1.8l-0.5,3.5l0,0H174.8z M176.6,316.7l-0.5-3.6l0,0H169l0,0l-0.5,3.6l0,0H176.6z
					 M178.4,328.4l-0.5-3.6l0,0h-10.7l-0.5,3.6H178.4z M180.2,340l-0.5-3.6h-14.2l0,0L165,340l0,0H180.2z M182,351.7l-0.5-3.6h-17.8
					l-0.5,3.6l0,0H182z M183.7,363.4l-0.5-3.6l0,0h-21.4l0,0l-0.5,3.6h11.2H183.7z"/>
				<path d="M186.7,365.9h-28.3l1.3-8.6h25.6L186.7,365.9z M184.9,354.2h-24.7l1.3-8.6h22.1L184.9,354.2z M183.1,342.5h-21.2
					l1.3-8.6h18.5L183.1,342.5z M181.3,330.9h-17.6l1.3-8.6h15L181.3,330.9z M179.5,319.2h-14l1.3-8.6h11.4L179.5,319.2z
					 M177.7,307.5h-10.4l1.3-8.5h7.9L177.7,307.5z"/>
			</g>
		</g>
	</g>
	<g text-rendering="geometricPrecision">
		<g>
			<g>
				<path d="M101.5,258.4L101.5,258.4l71.9,41.5c0.9,0.5,1.2,1.6,0.7,2.5s-1.6,1.2-2.5,0.7l0,0l-71.9-41.5c-0.9-0.5-1.2-1.6-0.7-2.5
					S100.6,258,101.5,258.4z"/>
				<path d="M172.5,305.8c-0.7,0-1.5-0.2-2.1-0.6l-71.9-41.5c-1-0.6-1.7-1.5-2-2.6s-0.1-2.3,0.4-3.3c1.2-2.1,3.8-2.8,5.9-1.6
					l71.9,41.5c2.1,1.2,2.8,3.8,1.6,5.9C175.4,305,174,305.8,172.5,305.8z"/>
			</g>
		</g>
	</g>
	<g text-rendering="geometricPrecision">
		<g>
			<path d="M100.6,260l-0.9-1.6l-55.4,21.1l5.6,9.7l5.6,9.7l45.9-37.4L100.6,260z"/>
		</g>
		<g>
			<path d="M100.6,260l-0.9-1.6l-55.4,21.1l5.6,9.7l5.6,9.7l45.9-37.4L100.6,260z"/>
		</g>
	</g>
	<g text-rendering="geometricPrecision">
		<g>
			<g>
				<path d="M98.8,260L98.8,260v-83c0-1,0.8-1.8,1.8-1.8s1.8,0.8,1.8,1.8l0,0v83c0,1-0.8,1.8-1.8,1.8S98.8,261,98.8,260z"/>
				<path d="M100.6,264.3c-2.4,0-4.3-1.9-4.3-4.3v-83c0-2.4,1.9-4.3,4.3-4.3s4.3,1.9,4.3,4.3v83C104.9,262.4,103,264.3,100.6,264.3z
					"/>
			</g>
		</g>
	</g>
	<g text-rendering="geometricPrecision">
		<g>
			<g>
				<path d="M99.7,175.4L99.7,175.4l71.9-41.5c0.9-0.5,2-0.2,2.5,0.7s0.2,2-0.7,2.5l0,0l-71.9,41.4c-0.9,0.5-2,0.2-2.5-0.7
					C98.5,177,98.8,175.9,99.7,175.4z"/>
				<path d="M100.6,181.3c-1.5,0-2.9-0.8-3.7-2.1c-1.2-2.1-0.5-4.7,1.6-5.9l0,0l71.9-41.5c1-0.6,2.2-0.7,3.3-0.4s2,1,2.6,2
					s0.7,2.2,0.4,3.3s-1,2-2,2.6l-71.9,41.5C102.1,181.1,101.3,181.3,100.6,181.3z"/>
			</g>
		</g>
	</g>
	<g text-rendering="geometricPrecision">
		<g>
			<g>
				<path d="M88.7,174.3l3.4,1.3l0,0l3.1-5.4l0,0l-2.8-2.3l0,0L88.7,174.3z M77.6,170.1l3.4,1.3l0,0l5-8.6l0,0l-2.8-2.3l0,0
					L77.6,170.1z M66.5,165.9l3.4,1.3l0,0l6.9-11.9L74,153l0,0L66.5,165.9z M55.5,161.7l3.4,1.3l0,0l8.8-15.2l0,0l-2.8-2.3l0,0
					L55.5,161.7z M44.4,157.5l3.4,1.3l0,0l10.7-18.4l0,0l-2.8-2.3l-5.6,9.7L44.4,157.5z"/>
				<path d="M93.2,178.7l-8.1-3.1l6.6-11.5l6.7,5.5L93.2,178.7z M82.1,174.5l-8.1-3.1l8.5-14.7l6.7,5.5L82.1,174.5z M71,170.3
					l-8.1-3.1l10.4-18l6.7,5.5L71,170.3z M60,166.1l-8.1-3.1l12.3-21.3l6.7,5.5L60,166.1z M48.9,161.9l-8.1-3.1L55,134.3l6.7,5.5
					L48.9,161.9z"/>
			</g>
		</g>
		<g>
			<g>
				<path d="M88.7,174.3l3.4,1.3l0,0l3.1-5.4l0,0l-2.8-2.3l0,0L88.7,174.3z M77.6,170.1l3.4,1.3l0,0l5-8.6l0,0l-2.8-2.3l0,0
					L77.6,170.1z M66.5,165.9l3.4,1.3l0,0l6.9-11.9L74,153l0,0L66.5,165.9z M55.5,161.7l3.4,1.3l0,0l8.8-15.2l0,0l-2.8-2.3l0,0
					L55.5,161.7z M44.4,157.5l3.4,1.3l0,0l10.7-18.4l0,0l-2.8-2.3l-5.6,9.7L44.4,157.5z"/>
				<path d="M93.2,178.7l-8.1-3.1l6.6-11.5l6.7,5.5L93.2,178.7z M82.1,174.5l-8.1-3.1l8.5-14.7l6.7,5.5L82.1,174.5z M71,170.3
					l-8.1-3.1l10.4-18l6.7,5.5L71,170.3z M60,166.1l-8.1-3.1l12.3-21.3l6.7,5.5L60,166.1z M48.9,161.9l-8.1-3.1L55,134.3l6.7,5.5
					L48.9,161.9z"/>
			</g>
		</g>
	</g>
	<g text-rendering="geometricPrecision" transform="translate(101.3707,26.9037)">
		<g>
			<g class="st0">
				<path d="M-17-5.5v-9.3h-8.2v9.3h-4.3v-20.9h4.3v8h8.2v-8h4.3v20.9H-17z"/>
				<path d="M0.7-4.9c-3,0-5.3-0.8-6.8-2.4c-2.1-2-3.2-4.9-3.2-8.6c0-3.8,1.1-6.7,3.2-8.6c1.6-1.6,3.9-2.4,6.8-2.4s5.3,0.8,6.8,2.4
					c2.1,1.9,3.2,4.8,3.2,8.6c0,3.7-1.1,6.6-3.2,8.6C5.9-5.7,3.7-4.9,0.7-4.9z M4.8-10.5c1-1.3,1.5-3.1,1.5-5.4s-0.5-4.2-1.5-5.4
					c-1-1.3-2.4-1.9-4.1-1.9s-3.1,0.6-4.1,1.9c-1,1.3-1.5,3.1-1.5,5.4c0,2.4,0.5,4.2,1.5,5.4c1,1.3,2.4,1.9,4.1,1.9
					S3.8-9.3,4.8-10.5z"/>
			</g>
		</g>
	</g>
	<g text-rendering="geometricPrecision" transform="translate(264.0766,192.9706)">
		<g>
			<g class="st0">
				<path d="M-20.3-4.9c-3,0-5.3-0.8-6.8-2.4c-2.1-2-3.2-4.9-3.2-8.6c0-3.8,1.1-6.7,3.2-8.6c1.6-1.6,3.9-2.4,6.8-2.4
					c3,0,5.3,0.8,6.8,2.4c2.1,1.9,3.2,4.8,3.2,8.6c0,3.7-1.1,6.6-3.2,8.6C-15-5.7-17.3-4.9-20.3-4.9z M-16.1-10.5
					c1-1.3,1.5-3.1,1.5-5.4s-0.5-4.2-1.5-5.4c-1-1.3-2.4-1.9-4.1-1.9s-3.1,0.6-4.1,1.9c-1,1.3-1.5,3.1-1.5,5.4
					c0,2.4,0.5,4.2,1.5,5.4c1,1.3,2.4,1.9,4.1,1.9C-18.5-8.6-17.2-9.3-16.1-10.5z"/>
			</g>
		</g>
	</g>
	<g text-rendering="geometricPrecision" transform="translate(336.4857,317.5209)">
		<g>
			<g class="st0">
				<path d="M-20.3-4.9c-3,0-5.3-0.8-6.8-2.4c-2.1-2-3.2-4.9-3.2-8.6c0-3.8,1.1-6.7,3.2-8.6c1.6-1.6,3.9-2.4,6.8-2.4
					c3,0,5.3,0.8,6.8,2.4c2.1,1.9,3.2,4.8,3.2,8.6c0,3.7-1.1,6.6-3.2,8.6C-15-5.7-17.3-4.9-20.3-4.9z M-16.1-10.5
					c1-1.3,1.5-3.1,1.5-5.4s-0.5-4.2-1.5-5.4c-1-1.3-2.4-1.9-4.1-1.9s-3.1,0.6-4.1,1.9c-1,1.3-1.5,3.1-1.5,5.4
					c0,2.4,0.5,4.2,1.5,5.4c1,1.3,2.4,1.9,4.1,1.9C-18.5-8.6-17.2-9.3-16.1-10.5z"/>
				<path d="M5.5-5.5v-9.3h-8.2v9.3H-7v-20.9h4.3v8h8.2v-8h4.3v20.9H5.5z"/>
			</g>
		</g>
	</g>
	<g text-rendering="geometricPrecision" transform="translate(192.6675,400.5544)">
		<g>
			<g class="st0">
				<path d="M-20.3-4.9c-3,0-5.3-0.8-6.8-2.4c-2.1-2-3.2-4.9-3.2-8.6c0-3.8,1.1-6.7,3.2-8.6c1.6-1.6,3.9-2.4,6.8-2.4
					s5.3,0.8,6.8,2.4c2.1,1.9,3.2,4.8,3.2,8.6c0,3.7-1.1,6.6-3.2,8.6C-15-5.7-17.3-4.9-20.3-4.9z M-16.1-10.5c1-1.3,1.5-3.1,1.5-5.4
					s-0.5-4.2-1.5-5.4c-1-1.3-2.4-1.9-4.1-1.9s-3.1,0.6-4.1,1.9c-1,1.3-1.5,3.1-1.5,5.4c0,2.4,0.5,4.2,1.5,5.4
					c1,1.3,2.4,1.9,4.1,1.9C-18.5-8.6-17.2-9.3-16.1-10.5z"/>
				<path d="M5.5-5.5v-9.3h-8.2v9.3H-7v-20.9h4.3v8h8.2v-8h4.3v20.9H5.5z"/>
			</g>
		</g>
	</g>
	<g text-rendering="geometricPrecision" transform="translate(29.4616,317.5209)">
		<g>
			<g class="st0">
				<path d="M-17-5.5v-9.3h-8.2v9.3h-4.3v-20.9h4.3v8h8.2v-8h4.3v20.9H-17z"/>
				<path d="M0.7-4.9c-3,0-5.3-0.8-6.8-2.4c-2.1-2-3.2-4.9-3.2-8.6c0-3.8,1.1-6.7,3.2-8.6c1.6-1.6,3.9-2.4,6.8-2.4s5.3,0.8,6.8,2.4
					c2.1,1.9,3.2,4.8,3.2,8.6c0,3.7-1.1,6.6-3.2,8.6C5.9-5.7,3.7-4.9,0.7-4.9z M4.8-10.5c1-1.3,1.5-3.1,1.5-5.4s-0.5-4.2-1.5-5.4
					c-1-1.3-2.4-1.9-4.1-1.9c-1.7,0-3.1,0.6-4.1,1.9c-1,1.3-1.5,3.1-1.5,5.4c0,2.4,0.5,4.2,1.5,5.4c1,1.3,2.4,1.9,4.1,1.9
					C2.4-8.6,3.8-9.3,4.8-10.5z"/>
			</g>
		</g>
	</g>
	<g text-rendering="geometricPrecision" transform="translate(29.4616,151.4539)">
		<g>
			<g class="st0">
				<path d="M-17-5.5v-9.3h-8.2v9.3h-4.3v-20.9h4.3v8h8.2v-8h4.3v20.9H-17z"/>
				<path d="M0.7-4.9c-3,0-5.3-0.8-6.8-2.4c-2.1-2-3.2-4.9-3.2-8.6c0-3.8,1.1-6.7,3.2-8.6c1.6-1.6,3.9-2.4,6.8-2.4s5.3,0.8,6.8,2.4
					c2.1,1.9,3.2,4.8,3.2,8.6c0,3.7-1.1,6.6-3.2,8.6C5.9-5.7,3.7-4.9,0.7-4.9z M4.8-10.5c1-1.3,1.5-3.1,1.5-5.4s-0.5-4.2-1.5-5.4
					c-1-1.3-2.4-1.9-4.1-1.9c-1.7,0-3.1,0.6-4.1,1.9c-1,1.3-1.5,3.1-1.5,5.4c0,2.4,0.5,4.2,1.5,5.4c1,1.3,2.4,1.9,4.1,1.9
					C2.4-8.6,3.8-9.3,4.8-10.5z"/>
			</g>
		</g>
	</g>
</g>
</svg>
