<?xml version="1.0" encoding="utf-8"?>
<svg version="1.1" id="Layer_1" text-rendering="auto" shape-rendering="auto" image-rendering="auto" color-rendering="auto"
	 xmlns="http://www.w3.org/2000/svg" xmlns:xlink="http://www.w3.org/1999/xlink" x="0px" y="0px" viewBox="0 0 100 53.7"
	 width="100px"
	 style="enable-background:new 0 0 100 53.7;" xml:space="preserve">
<style type="text/css">
	.st0{enable-background:new    ;}
</style>
<g>
	<g text-rendering="geometricPrecision">
		<g>
			<g>
				<path d="M86.1,44.3L86.1,44.3l-9.9-17c-0.2-0.3-0.1-0.7,0.2-0.8c0.3-0.2,0.7-0.1,0.8,0.2l0,0l9.9,17c0.2,0.3,0.1,0.7-0.2,0.8
					C86.6,44.6,86.3,44.5,86.1,44.3z"/>
				<path d="M86.6,45.4c-0.1,0-0.2,0-0.4,0c-0.4-0.1-0.7-0.3-0.8-0.7l-9.9-17c-0.2-0.3-0.2-0.7-0.1-1.1c0.1-0.4,0.3-0.7,0.7-0.8
					s0.7-0.2,1.1-0.1c0.4,0.1,0.7,0.3,0.8,0.7l9.9,17c0.2,0.3,0.2,0.7,0.1,1.1c-0.1,0.4-0.3,0.7-0.7,0.8
					C87.1,45.3,86.9,45.4,86.6,45.4z"/>
			</g>
		</g>
	</g>
	<g text-rendering="geometricPrecision">
		<g>
			<g>
				<path d="M76.8,27.5L76.8,27.5h-27c-0.3,0-0.6-0.3-0.6-0.6s0.3-0.6,0.6-0.6l0,0h27c0.3,0,0.6,0.3,0.6,0.6S77.1,27.5,76.8,27.5z"
					/>
				<path d="M76.8,28.3h-27c-0.8,0-1.4-0.6-1.4-1.4s0.6-1.4,1.4-1.4h27c0.8,0,1.4,0.6,1.4,1.4S77.5,28.3,76.8,28.3z"/>
			</g>
		</g>
	</g>
	<g text-rendering="geometricPrecision">
		<g>
			<g>
				<path d="M50.3,27.2L50.3,27.2l-9.6,16.6c-0.2,0.3-0.5,0.4-0.8,0.2s-0.4-0.5-0.2-0.8l0,0l9.6-16.6c0.2-0.3,0.5-0.4,0.8-0.2
					C50.4,26.5,50.5,26.9,50.3,27.2z"/>
				<path d="M40.2,44.9c-0.2,0-0.5-0.1-0.7-0.2c-0.3-0.2-0.6-0.5-0.7-0.8s0-0.7,0.1-1.1l9.6-16.6c0.2-0.3,0.5-0.6,0.8-0.7
					s0.7,0,1.1,0.1c0.3,0.2,0.6,0.5,0.7,0.8c0.1,0.4,0,0.7-0.1,1.1l-9.6,16.6c-0.2,0.3-0.5,0.6-0.8,0.7
					C40.5,44.9,40.3,44.9,40.2,44.9z M49.6,26.8L49.6,26.8L49.6,26.8z"/>
			</g>
		</g>
	</g>
	<g text-rendering="geometricPrecision">
		<g>
			<g>
				<path d="M49.3,27.2L49.3,27.2L35.8,3.8c-0.2-0.3-0.1-0.7,0.2-0.8c0.3-0.2,0.7-0.1,0.8,0.2l0,0l13.5,23.4
					c0.2,0.3,0.1,0.7-0.2,0.8C49.8,27.6,49.5,27.5,49.3,27.2z"/>
				<path d="M49.8,28.3c-0.5,0-0.9-0.3-1.2-0.7L35.1,4.2c-0.2-0.3-0.2-0.7-0.1-1.1s0.3-0.7,0.7-0.8c0.7-0.4,1.5-0.2,1.9,0.5L51,26.2
					c0.2,0.3,0.2,0.7,0.1,1.1c-0.1,0.4-0.3,0.7-0.7,0.8C50.3,28.2,50,28.3,49.8,28.3z"/>
			</g>
		</g>
	</g>
	<g text-rendering="geometricPrecision">
		<g>
			<g>
				<path d="M36.3,4.1L36.3,4.1H16.7c-0.3,0-0.6-0.3-0.6-0.6s0.3-0.6,0.6-0.6l0,0h19.6c0.3,0,0.6,0.3,0.6,0.6
					C36.9,3.9,36.7,4.1,36.3,4.1z"/>
				<path d="M36.3,4.9H16.7c-0.8,0-1.4-0.6-1.4-1.4c0-0.8,0.6-1.4,1.4-1.4h19.6c0.8,0,1.4,0.6,1.4,1.4C37.7,4.3,37.1,4.9,36.3,4.9z"
					/>
			</g>
		</g>
		<g>
			<g>
				<path d="M36.3,4.1L36.3,4.1H16.7c-0.3,0-0.6-0.3-0.6-0.6s0.3-0.6,0.6-0.6l0,0h19.6c0.3,0,0.6,0.3,0.6,0.6
					C36.9,3.9,36.7,4.1,36.3,4.1z"/>
				<path d="M36.3,4.9H16.7c-0.8,0-1.4-0.6-1.4-1.4c0-0.8,0.6-1.4,1.4-1.4h19.6c0.8,0,1.4,0.6,1.4,1.4C37.7,4.3,37.1,4.9,36.3,4.9z"
					/>
			</g>
		</g>
	</g>
	<g text-rendering="geometricPrecision" transform="translate(297.5159,170.0216)">
		<g>
			<g class="st0">
				<path d="M-207.3-116.2c-1,0-1.7-0.3-2.2-0.8c-0.7-0.7-1-1.6-1-2.8c0-1.2,0.4-2.2,1-2.8c0.5-0.5,1.3-0.8,2.2-0.8
					c1,0,1.7,0.3,2.2,0.8c0.7,0.6,1,1.6,1,2.8c0,1.2-0.4,2.1-1,2.8C-205.6-116.4-206.3-116.2-207.3-116.2z M-205.9-118
					c0.3-0.4,0.5-1,0.5-1.8c0-0.7-0.2-1.4-0.5-1.8c-0.3-0.4-0.8-0.6-1.3-0.6s-1,0.2-1.3,0.6c-0.3,0.4-0.5,1-0.5,1.8
					c0,0.8,0.2,1.4,0.5,1.8c0.3,0.4,0.8,0.6,1.3,0.6S-206.3-117.6-205.9-118z"/>
				<path d="M-198.9-116.3v-3h-2.7v3h-1.4v-6.8h1.4v2.6h2.7v-2.6h1.4v6.8H-198.9z"/>
			</g>
		</g>
	</g>
	<g text-rendering="geometricPrecision" transform="translate(112.3303,170.0216)">
		<g>
			<g class="st0">
				<path d="M-81.3-116.3v-3H-84v3h-1.4v-6.8h1.4v2.6h2.7v-2.6h1.4v6.8H-81.3z"/>
				<path d="M-75.5-116.2c-1,0-1.7-0.3-2.2-0.8c-0.7-0.7-1-1.6-1-2.8c0-1.2,0.4-2.2,1-2.8c0.5-0.5,1.3-0.8,2.2-0.8
					c1,0,1.7,0.3,2.2,0.8c0.7,0.6,1,1.6,1,2.8c0,1.2-0.4,2.1-1,2.8C-73.8-116.4-74.6-116.2-75.5-116.2z M-74.2-118
					c0.3-0.4,0.5-1,0.5-1.8c0-0.7-0.2-1.4-0.5-1.8s-0.8-0.6-1.3-0.6c-0.6,0-1,0.2-1.3,0.6s-0.5,1-0.5,1.8c0,0.8,0.2,1.4,0.5,1.8
					c0.3,0.4,0.8,0.6,1.3,0.6C-75-117.4-74.5-117.6-74.2-118z"/>
			</g>
		</g>
	</g>
	<g text-rendering="geometricPrecision" transform="translate(29.4313,26.4364)">
		<g>
			<g class="st0">
				<path d="M-25.4-19.5v-3H-28v3h-1.4v-6.8h1.4v2.6h2.7v-2.6h1.4v6.8H-25.4z"/>
				<path d="M-19.6-19.3c-1,0-1.7-0.3-2.2-0.8c-0.7-0.7-1-1.6-1-2.8c0-1.2,0.4-2.2,1-2.8c0.5-0.5,1.3-0.8,2.2-0.8
					c0.9,0,1.7,0.3,2.2,0.8c0.7,0.6,1,1.6,1,2.8c0,1.2-0.4,2.1-1,2.8C-17.9-19.5-18.6-19.3-19.6-19.3z M-18.3-21.1
					c0.3-0.4,0.5-1,0.5-1.8c0-0.7-0.2-1.4-0.5-1.8c-0.3-0.4-0.8-0.6-1.3-0.6s-1,0.2-1.3,0.6c-0.3,0.4-0.5,1-0.5,1.8
					c0,0.8,0.2,1.4,0.5,1.8c0.3,0.4,0.8,0.6,1.3,0.6S-18.6-20.7-18.3-21.1z"/>
			</g>
		</g>
	</g>
</g>
</svg>
