<?xml version="1.0" encoding="utf-8"?>
<svg version="1.1" id="Layer_1" text-rendering="auto" shape-rendering="auto" image-rendering="auto" color-rendering="auto"
	 xmlns="http://www.w3.org/2000/svg" xmlns:xlink="http://www.w3.org/1999/xlink" x="0px" y="0px" viewBox="0 0 90.5 99.9"
	 height="100px"
	 style="enable-background:new 0 0 90.5 99.9;" xml:space="preserve">
<style type="text/css">
	.st0{enable-background:new    ;}
</style>
<g>
	<g text-rendering="geometricPrecision">
		<g>
			<path d="M45.4,26.4h0.5l2.7-17.2h-3.2h-3.2l2.7,17.2C44.9,26.4,45.4,26.4,45.4,26.4z"/>
		</g>
		<g>
			<path d="M45.4,26.4h0.5l2.7-17.2h-3.2h-3.2l2.7,17.2C44.9,26.4,45.4,26.4,45.4,26.4z"/>
		</g>
	</g>
	<g text-rendering="geometricPrecision">
		<g>
			<g>
				<path d="M45.6,26L45.6,26l20.3,11.7c0.3,0.1,0.3,0.5,0.2,0.7c-0.1,0.3-0.5,0.3-0.7,0.2l0,0L45.1,26.9c-0.3-0.1-0.3-0.5-0.2-0.7
					C45.1,25.9,45.4,25.8,45.6,26z"/>
				<path d="M65.7,39.3c-0.2,0-0.4-0.1-0.6-0.2L44.8,27.5c-0.3-0.2-0.5-0.4-0.6-0.7c-0.1-0.3,0-0.6,0.1-0.9c0.2-0.3,0.4-0.5,0.7-0.6
					c0.3-0.1,0.6,0,0.9,0.1l20.3,11.7c0.6,0.3,0.8,1.1,0.5,1.7C66.5,39.1,66.1,39.3,65.7,39.3z M45.3,26.6L45.3,26.6
					C45.3,26.6,45.3,26.6,45.3,26.6L45.3,26.6z"/>
			</g>
		</g>
	</g>
	<g text-rendering="geometricPrecision">
		<g>
			<g>
				<path d="M66.8,37.2l-0.2,0.2l0.3,0.5l0.3,0.5l0.3-0.1l0,0L66.8,37.2z M69.4,35.1l-0.8,0.6l0.9,1.6l0,0l1-0.4l0,0L69.4,35.1z
					 M72,33l-0.8,0.6l1.4,2.5l0,0l1-0.4l0,0L72,33z M74.6,30.9l-0.8,0.6l2,3.4l0,0l1-0.4l0,0L74.6,30.9z M77.2,28.8l-0.8,0.6
					l2.5,4.3l0,0l1-0.4l0,0L77.2,28.8z M79.7,26.7L79,27.4l0,0l3,5.2l0,0l1-0.4l-1.6-2.7L79.7,26.7z"/>
				<path d="M66.8,39.1l-1.1-1.9l1.3-1.1l1.4,2.4L66.8,39.1z M69.2,38.2l-1.5-2.6l1.9-1.6l1.9,3.3L69.2,38.2z M72.3,37l-2-3.5
					l1.9-1.6l2.4,4.2L72.3,37z M75.4,35.8l-2.6-4.4l1.9-1.6l3,5.1L75.4,35.8z M78.5,34.7l-3.1-5.4l1.9-1.6l3.5,6L78.5,34.7z
					 M81.6,33.4L78,27.2l1.9-1.6l4,6.9L81.6,33.4z"/>
			</g>
		</g>
		<g>
			<g>
				<path d="M66.8,37.2l-0.2,0.2l0.3,0.5l0.3,0.5l0.3-0.1l0,0L66.8,37.2z M69.4,35.1l-0.8,0.6l0.9,1.6l0,0l1-0.4l0,0L69.4,35.1z
					 M72,33l-0.8,0.6l1.4,2.5l0,0l1-0.4l0,0L72,33z M74.6,30.9l-0.8,0.6l2,3.4l0,0l1-0.4l0,0L74.6,30.9z M77.2,28.8l-0.8,0.6
					l2.5,4.3l0,0l1-0.4l0,0L77.2,28.8z M79.7,26.7L79,27.4l0,0l3,5.2l0,0l1-0.4l-1.6-2.7L79.7,26.7z"/>
				<path d="M66.8,39.1l-1.1-1.9l1.3-1.1l1.4,2.4L66.8,39.1z M69.2,38.2l-1.5-2.6l1.9-1.6l1.9,3.3L69.2,38.2z M72.3,37l-2-3.5
					l1.9-1.6l2.4,4.2L72.3,37z M75.4,35.8l-2.6-4.4l1.9-1.6l3,5.1L75.4,35.8z M78.5,34.7l-3.1-5.4l1.9-1.6l3.5,6L78.5,34.7z
					 M81.6,33.4L78,27.2l1.9-1.6l4,6.9L81.6,33.4z"/>
			</g>
		</g>
	</g>
	<g text-rendering="geometricPrecision">
		<g>
			<g>
				<path d="M66.2,38.1L66.2,38.1v23.5c0,0.3-0.2,0.5-0.5,0.5c-0.3,0-0.5-0.2-0.5-0.5l0,0V38.1c0-0.3,0.2-0.5,0.5-0.5
					C66,37.6,66.2,37.8,66.2,38.1z"/>
				<path d="M65.7,62.8c-0.7,0-1.2-0.5-1.2-1.2V38.1c0-0.7,0.5-1.2,1.2-1.2c0.7,0,1.2,0.5,1.2,1.2v23.5
					C66.9,62.2,66.3,62.8,65.7,62.8z"/>
			</g>
		</g>
	</g>
	<g text-rendering="geometricPrecision">
		<g>
			<path d="M65.7,61.6L65.4,62l13.3,10.8l1.6-2.7l1.6-2.7l-16-6.2L65.7,61.6z"/>
		</g>
		<g>
			<path d="M65.7,61.6L65.4,62l13.3,10.8l1.6-2.7l1.6-2.7l-16-6.2L65.7,61.6z"/>
		</g>
	</g>
	<g text-rendering="geometricPrecision">
		<g>
			<g>
				<path d="M65.9,62L65.9,62L45.6,73.7c-0.3,0.1-0.6,0.1-0.7-0.2c-0.1-0.3-0.1-0.6,0.2-0.7l0,0l20.3-11.7c0.3-0.1,0.6-0.1,0.7,0.2
					C66.3,61.5,66.2,61.9,65.9,62z"/>
				<path d="M45.4,74.5c-0.4,0-0.8-0.2-1-0.6c-0.2-0.3-0.2-0.6-0.1-0.9c0.1-0.3,0.3-0.6,0.6-0.7l20.3-11.7c0.3-0.2,0.6-0.2,0.9-0.1
					s0.6,0.3,0.7,0.6c0.3,0.6,0.1,1.3-0.5,1.7l0,0L46,74.4C45.8,74.4,45.6,74.5,45.4,74.5z"/>
			</g>
		</g>
	</g>
	<g text-rendering="geometricPrecision">
		<g>
			<path d="M45.4,73.3h-0.5l-2.7,17.3h3.2h3.2l-2.7-17.3H45.4z"/>
		</g>
		<g>
			<path d="M45.4,73.3h-0.5l-2.7,17.3h3.2h3.2l-2.7-17.3H45.4z"/>
		</g>
	</g>
	<g text-rendering="geometricPrecision">
		<g>
			<g>
				<path d="M25.3,61.1L25.3,61.1l20.3,11.7c0.3,0.1,0.3,0.5,0.2,0.7c-0.1,0.3-0.5,0.3-0.7,0.2l0,0L24.8,62
					c-0.3-0.1-0.3-0.5-0.2-0.7C24.8,61.1,25.1,61,25.3,61.1z"/>
				<path d="M45.4,74.5c-0.2,0-0.4-0.1-0.6-0.2L24.5,62.6c-0.6-0.3-0.8-1.1-0.5-1.7c0.2-0.3,0.4-0.5,0.7-0.6c0.3-0.1,0.6,0,0.9,0.1
					L46,72.2c0.3,0.2,0.5,0.4,0.6,0.7c0.1,0.3,0,0.6-0.1,0.9C46.2,74.3,45.8,74.5,45.4,74.5z M25,61.7L25,61.7L25,61.7z"/>
			</g>
		</g>
	</g>
	<g text-rendering="geometricPrecision">
		<g>
			<g>
				<path d="M24.1,62.3l0.3-0.3l-0.3-0.5l-0.3-0.5l-0.4,0.1l0,0L24.1,62.3z M21.5,64.4l0.8-0.6l-0.9-1.6l-1,0.4L21.5,64.4z M19,66.5
					l0.8-0.6l0,0l-1.4-2.5l-1,0.4L19,66.5z M16.4,68.6l0.8-0.6l-2-3.4l-1,0.4L16.4,68.6z M13.8,70.7l0.8-0.6l0,0l-2.5-4.3l0,0
					l-1,0.4L13.8,70.7z M11.2,72.8l0.8-0.6l0,0l-3-5.2l0,0l-1,0.4L9.6,70L11.2,72.8z"/>
				<path d="M11,73.8l-4-6.9L9.2,66l3.6,6.3L11,73.8z M13.6,71.7l-3.5-6l2.3-0.9l3.1,5.4L13.6,71.7z M16.2,69.7l-3-5.1l2.3-0.9
					l2.6,4.5L16.2,69.7z M18.8,67.5l-2.4-4.2l2.3-0.9l2.1,3.6L18.8,67.5z M21.3,65.4l-1.9-3.3l2.3-0.9l1.5,2.7L21.3,65.4z
					 M23.9,63.3l-1.4-2.4l1.7-0.6l1.1,1.9L23.9,63.3z"/>
			</g>
		</g>
		<g>
			<g>
				<path d="M24.1,62.3l0.3-0.3l-0.3-0.5l-0.3-0.5l-0.4,0.1l0,0L24.1,62.3z M21.5,64.4l0.8-0.6l-0.9-1.6l-1,0.4L21.5,64.4z M19,66.5
					l0.8-0.6l0,0l-1.4-2.5l-1,0.4L19,66.5z M16.4,68.6l0.8-0.6l-2-3.4l-1,0.4L16.4,68.6z M13.8,70.7l0.8-0.6l0,0l-2.5-4.3l0,0
					l-1,0.4L13.8,70.7z M11.2,72.8l0.8-0.6l0,0l-3-5.2l0,0l-1,0.4L9.6,70L11.2,72.8z"/>
				<path d="M11,73.8l-4-6.9L9.2,66l3.6,6.3L11,73.8z M13.6,71.7l-3.5-6l2.3-0.9l3.1,5.4L13.6,71.7z M16.2,69.7l-3-5.1l2.3-0.9
					l2.6,4.5L16.2,69.7z M18.8,67.5l-2.4-4.2l2.3-0.9l2.1,3.6L18.8,67.5z M21.3,65.4l-1.9-3.3l2.3-0.9l1.5,2.7L21.3,65.4z
					 M23.9,63.3l-1.4-2.4l1.7-0.6l1.1,1.9L23.9,63.3z"/>
			</g>
		</g>
	</g>
	<g text-rendering="geometricPrecision">
		<g>
			<g>
				<path d="M25.6,38.1L25.6,38.1v23.5c0,0.3-0.2,0.5-0.5,0.5c-0.3,0-0.5-0.2-0.5-0.5l0,0V38.1c0-0.3,0.2-0.5,0.5-0.5
					C25.3,37.6,25.6,37.8,25.6,38.1z"/>
				<path d="M25,62.8c-0.7,0-1.2-0.5-1.2-1.2V38.1c0-0.7,0.5-1.2,1.2-1.2c0.7,0,1.2,0.5,1.2,1.2v23.5C26.3,62.2,25.7,62.8,25,62.8z"
					/>
			</g>
		</g>
	</g>
	<g text-rendering="geometricPrecision">
		<g>
			<g>
				<path d="M45.6,26.8L45.6,26.8L25.3,38.5c-0.3,0.1-0.6,0.1-0.7-0.2c-0.1-0.3-0.1-0.6,0.2-0.7l0,0l20.3-11.7
					c0.3-0.1,0.6-0.1,0.7,0.2C46,26.4,45.9,26.7,45.6,26.8z"/>
				<path d="M25,39.3c-0.4,0-0.8-0.2-1-0.6c-0.2-0.3-0.2-0.6-0.1-0.9c0.1-0.3,0.3-0.6,0.6-0.7l20.3-11.7c0.6-0.3,1.3-0.1,1.7,0.5
					c0.2,0.3,0.2,0.6,0.1,0.9c-0.1,0.3-0.3,0.6-0.6,0.7L25.7,39.2C25.5,39.3,25.3,39.3,25,39.3z M45.3,26.2L45.3,26.2L45.3,26.2z"/>
			</g>
		</g>
	</g>
	<g text-rendering="geometricPrecision">
		<g>
			<path d="M25,38.1l0.3-0.5L12.1,27l-1.6,2.7L9,32.5l15.8,6.1L25,38.1z"/>
		</g>
		<g>
			<path d="M25,38.1l0.3-0.5L12.1,27l-1.6,2.7L9,32.5l15.8,6.1L25,38.1z"/>
		</g>
	</g>
	<g text-rendering="geometricPrecision" transform="translate(172.9911,27.0294)">
		<g>
			<g class="st0">
				<path d="M-127.1-21.6c-0.5,0.4-1,0.6-1.7,0.6c-0.8,0-1.5-0.3-2-0.8c-0.5-0.5-0.7-1.3-0.7-2.3c0-1,0.3-1.8,0.8-2.4
					c0.5-0.5,1.1-0.7,1.8-0.7c1,0,1.7,0.3,2.2,1c0.3,0.4,0.4,0.7,0.4,1.1h-1.2c-0.1-0.3-0.2-0.5-0.3-0.6c-0.2-0.3-0.6-0.4-1-0.4
					c-0.5,0-0.8,0.2-1.1,0.5c-0.3,0.4-0.4,0.9-0.4,1.5c0,0.6,0.1,1.2,0.4,1.5c0.3,0.3,0.6,0.5,1,0.5s0.8-0.1,1-0.4
					c0.1-0.1,0.2-0.4,0.3-0.7h1.2C-126.4-22.5-126.6-22-127.1-21.6z"/>
				<path d="M-125.4-27h1.1v5.9h-1.1V-27z"/>
			</g>
		</g>
	</g>
	<g text-rendering="geometricPrecision" transform="translate(316.9242,110.1292)">
		<g>
			<g class="st0">
				<path d="M-229.3-81.5c-0.5,0.4-1,0.6-1.7,0.6c-0.8,0-1.5-0.3-2-0.8c-0.5-0.5-0.7-1.3-0.7-2.3c0-1,0.3-1.8,0.8-2.4
					c0.5-0.5,1.1-0.7,1.8-0.7c1,0,1.7,0.3,2.2,1c0.3,0.4,0.4,0.7,0.4,1.1h-1.2c-0.1-0.3-0.2-0.5-0.3-0.6c-0.2-0.3-0.6-0.4-1-0.4
					c-0.5,0-0.8,0.2-1.1,0.5c-0.3,0.4-0.4,0.9-0.4,1.5s0.1,1.2,0.4,1.5c0.3,0.3,0.6,0.5,1,0.5s0.8-0.1,1-0.4
					c0.1-0.1,0.2-0.4,0.3-0.7h1.2C-228.6-82.4-228.8-81.9-229.3-81.5z"/>
				<path d="M-227.6-87h1.1v5.9h-1.1V-87z"/>
			</g>
		</g>
	</g>
	<g text-rendering="geometricPrecision" transform="translate(316.9242,276.3288)">
		<g>
			<g class="st0">
				<path d="M-230.4-200.5c-0.5,0.4-1,0.6-1.7,0.6c-0.8,0-1.5-0.3-2-0.8c-0.5-0.5-0.7-1.3-0.7-2.3c0-1,0.3-1.8,0.8-2.4
					c0.5-0.5,1.1-0.7,1.8-0.7c1,0,1.7,0.3,2.2,1c0.3,0.4,0.4,0.7,0.4,1.1h-1.2c-0.1-0.3-0.2-0.5-0.3-0.6c-0.2-0.3-0.6-0.4-1-0.4
					c-0.5,0-0.8,0.2-1.1,0.5c-0.3,0.4-0.4,0.9-0.4,1.5s0.1,1.2,0.4,1.5c0.3,0.3,0.6,0.5,1,0.5s0.8-0.1,1-0.4
					c0.1-0.1,0.2-0.4,0.3-0.7h1.2C-229.7-201.4-229.9-200.9-230.4-200.5z"/>
				<path d="M-228.7-206h1.1v5.9h-1.1V-206z"/>
			</g>
		</g>
	</g>
	<g text-rendering="geometricPrecision" transform="translate(172.9911,359.4286)">
		<g>
			<g class="st0">
				<path d="M-127.1-260.2c-0.5,0.4-1,0.6-1.7,0.6c-0.8,0-1.5-0.3-2-0.8c-0.5-0.5-0.7-1.3-0.7-2.3c0-1,0.3-1.8,0.8-2.4
					c0.5-0.5,1.1-0.7,1.8-0.7c1,0,1.7,0.3,2.2,1c0.3,0.4,0.4,0.7,0.4,1.1h-1.2c-0.1-0.3-0.2-0.5-0.3-0.6c-0.2-0.3-0.6-0.4-1-0.4
					c-0.5,0-0.8,0.2-1.1,0.5c-0.3,0.4-0.4,0.9-0.4,1.5s0.1,1.2,0.4,1.5c0.3,0.3,0.6,0.5,1,0.5s0.8-0.1,1-0.4
					c0.1-0.1,0.2-0.4,0.3-0.7h1.2C-126.4-261.1-126.6-260.6-127.1-260.2z"/>
				<path d="M-125.4-265.6h1.1v5.9h-1.1V-265.6z"/>
			</g>
		</g>
	</g>
	<g text-rendering="geometricPrecision" transform="translate(29.058,276.3288)">
		<g>
			<g class="st0">
				<path d="M-24.6-200.5c-0.5,0.4-1,0.6-1.7,0.6c-0.8,0-1.5-0.3-2-0.8s-0.7-1.3-0.7-2.3c0-1,0.3-1.8,0.8-2.4
					c0.5-0.5,1.1-0.7,1.8-0.7c1,0,1.7,0.3,2.2,1c0.3,0.4,0.4,0.7,0.4,1.1h-1.2c-0.1-0.3-0.2-0.5-0.3-0.6c-0.2-0.3-0.6-0.4-1-0.4
					c-0.5,0-0.8,0.2-1.1,0.5c-0.3,0.4-0.4,0.9-0.4,1.5s0.1,1.2,0.4,1.5s0.6,0.5,1,0.5s0.8-0.1,1-0.4c0.1-0.1,0.2-0.4,0.3-0.7h1.2
					C-23.9-201.4-24.2-200.9-24.6-200.5z"/>
				<path d="M-22.9-206h1.1v5.9h-1.1V-206z"/>
			</g>
		</g>
	</g>
	<g text-rendering="geometricPrecision" transform="translate(29.058,110.1292)">
		<g>
			<g class="st0">
				<path d="M-23.8-81.2c-0.5,0.4-1,0.6-1.7,0.6c-0.8,0-1.5-0.3-2-0.8c-0.5-0.5-0.7-1.3-0.7-2.3c0-1,0.3-1.8,0.8-2.4
					c0.5-0.5,1.1-0.7,1.8-0.7c1,0,1.7,0.3,2.2,1c0.3,0.4,0.4,0.7,0.4,1.1h-1.2c-0.1-0.3-0.2-0.5-0.3-0.6c-0.2-0.3-0.6-0.4-1-0.4
					c-0.5,0-0.8,0.2-1.1,0.5s-0.4,0.9-0.4,1.5s0.1,1.2,0.4,1.5c0.3,0.3,0.6,0.5,1,0.5c0.4,0,0.8-0.1,1-0.4c0.1-0.1,0.2-0.4,0.3-0.7
					h1.2C-23.1-82.1-23.3-81.6-23.8-81.2z"/>
				<path d="M-22.1-86.7h1.1v5.9h-1.1V-86.7z"/>
			</g>
		</g>
	</g>
</g>
</svg>
