<?xml version="1.0" encoding="utf-8"?>
<svg version="1.1" id="Layer_1" text-rendering="auto" shape-rendering="auto" image-rendering="auto" color-rendering="auto"
	 xmlns="http://www.w3.org/2000/svg" xmlns:xlink="http://www.w3.org/1999/xlink" x="0px" y="0px" viewBox="0 0 100 42.3"
	 width="100px"
	 style="enable-background:new 0 0 100 42.3;" xml:space="preserve">
<style type="text/css">
	.st0{enable-background:new    ;}
</style>
<g>
	<g text-rendering="geometricPrecision">
		<g>
			<g>
				<path d="M86.1,36.3L86.1,36.3l-15.5-9c-0.2-0.1-0.3-0.5-0.2-0.7c0.1-0.2,0.5-0.3,0.7-0.2l0,0l15.5,9c0.2,0.1,0.3,0.5,0.2,0.7
					C86.6,36.4,86.3,36.5,86.1,36.3z"/>
				<path d="M86.3,37c-0.2,0-0.4,0-0.5-0.1l0,0l-15.5-9c-0.3-0.1-0.4-0.4-0.5-0.7c-0.1-0.3,0-0.6,0.1-0.8c0.1-0.3,0.4-0.4,0.7-0.5
					c0.3-0.1,0.6,0,0.8,0.1l15.5,9c0.3,0.1,0.4,0.4,0.5,0.7c0.1,0.3,0,0.6-0.1,0.8C87.1,36.8,86.7,37,86.3,37z M86.4,35.8L86.4,35.8
					L86.4,35.8z"/>
			</g>
		</g>
	</g>
	<g text-rendering="geometricPrecision">
		<g>
			<g>
				<path d="M68.1,28.2c0,0.3,0.2,0.5,0.5,0.5c0.3,0,0.5-0.2,0.5-0.5v-19c0-0.3-0.2-0.5-0.5-0.5c-0.3,0-0.5,0.2-0.5,0.5V28.2z
					 M72.5,28.2c0,0.3,0.2,0.5,0.5,0.5c0.3,0,0.5-0.2,0.5-0.5v-19c0-0.3-0.2-0.5-0.5-0.5c-0.3,0-0.5,0.2-0.5,0.5V28.2z"/>
				<path d="M73,29.3c-0.6,0-1.1-0.5-1.1-1.1v-19c0-0.6,0.5-1.1,1.1-1.1s1.1,0.5,1.1,1.1v19C74.1,28.8,73.6,29.3,73,29.3z
					 M68.6,29.3c-0.6,0-1.1-0.5-1.1-1.1v-19c0-0.6,0.5-1.1,1.1-1.1c0.6,0,1.1,0.5,1.1,1.1v19C69.8,28.8,69.3,29.3,68.6,29.3z"/>
			</g>
		</g>
		<g>
			<g>
				<path d="M68.1,28.2c0,0.3,0.2,0.5,0.5,0.5c0.3,0,0.5-0.2,0.5-0.5v-19c0-0.3-0.2-0.5-0.5-0.5c-0.3,0-0.5,0.2-0.5,0.5V28.2z
					 M72.5,28.2c0,0.3,0.2,0.5,0.5,0.5c0.3,0,0.5-0.2,0.5-0.5v-19c0-0.3-0.2-0.5-0.5-0.5c-0.3,0-0.5,0.2-0.5,0.5V28.2z"/>
				<path d="M73,29.3c-0.6,0-1.1-0.5-1.1-1.1v-19c0-0.6,0.5-1.1,1.1-1.1s1.1,0.5,1.1,1.1v19C74.1,28.8,73.6,29.3,73,29.3z
					 M68.6,29.3c-0.6,0-1.1-0.5-1.1-1.1v-19c0-0.6,0.5-1.1,1.1-1.1c0.6,0,1.1,0.5,1.1,1.1v19C69.8,28.8,69.3,29.3,68.6,29.3z"/>
			</g>
		</g>
	</g>
	<g text-rendering="geometricPrecision">
		<g>
			<g>
				<path d="M71.1,27.4L71.1,27.4l-20.9,12c-0.2,0.1-0.6,0.1-0.7-0.2c-0.1-0.2-0.1-0.6,0.2-0.7l0,0l20.9-12c0.2-0.1,0.6-0.1,0.7,0.2
					C71.4,26.9,71.3,27.2,71.1,27.4z"/>
				<path d="M50,40.1c-0.1,0-0.2,0-0.3,0c-0.3-0.1-0.5-0.3-0.7-0.5c-0.1-0.3-0.2-0.6-0.1-0.8c0.1-0.3,0.3-0.5,0.5-0.7l20.9-12
					c0.5-0.3,1.2-0.1,1.5,0.4c0.3,0.5,0.1,1.2-0.4,1.5l-20.9,12C50.3,40,50.2,40.1,50,40.1z M70.8,26.9L70.8,26.9L70.8,26.9z"/>
			</g>
		</g>
	</g>
	<g text-rendering="geometricPrecision">
		<g>
			<g>
				<path d="M49.7,39.4L49.7,39.4l-20.9-12c-0.2-0.1-0.3-0.5-0.2-0.7c0.1-0.2,0.5-0.3,0.7-0.2l0,0l20.9,12c0.2,0.1,0.3,0.5,0.2,0.7
					C50.3,39.5,50,39.6,49.7,39.4z"/>
				<path d="M50,40.1c-0.2,0-0.4-0.1-0.6-0.1l-20.9-12c-0.5-0.3-0.7-1-0.4-1.5c0.3-0.5,1-0.7,1.5-0.4l20.9,12
					c0.3,0.1,0.4,0.4,0.5,0.7c0.1,0.3,0,0.6-0.1,0.8c-0.1,0.3-0.4,0.4-0.7,0.5C50.2,40.1,50.1,40.1,50,40.1z"/>
			</g>
		</g>
	</g>
	<g text-rendering="geometricPrecision">
		<g>
			<g>
				<path d="M29.4,27.4L29.4,27.4L15,35.7c-0.2,0.1-0.6,0.1-0.7-0.2c-0.1-0.2-0.1-0.6,0.2-0.7l0,0l14.4-8.3c0.2-0.1,0.6-0.1,0.7,0.2
					C29.7,26.9,29.6,27.2,29.4,27.4z"/>
				<path d="M14.7,36.3c-0.1,0-0.2,0-0.3,0c-0.3-0.1-0.5-0.3-0.7-0.5c-0.1-0.3-0.2-0.6-0.1-0.8c0.1-0.3,0.3-0.5,0.5-0.7L28.6,26
					c0.5-0.3,1.2-0.1,1.5,0.4c0.3,0.5,0.1,1.2-0.4,1.5l0,0l-14.4,8.3C15.1,36.3,14.9,36.3,14.7,36.3z M29.1,26.9
					C29.1,26.9,29.1,26.9,29.1,26.9L29.1,26.9z"/>
			</g>
		</g>
		<g>
			<g>
				<path d="M29.4,27.4L29.4,27.4L15,35.7c-0.2,0.1-0.6,0.1-0.7-0.2c-0.1-0.2-0.1-0.6,0.2-0.7l0,0l14.4-8.3c0.2-0.1,0.6-0.1,0.7,0.2
					C29.7,26.9,29.6,27.2,29.4,27.4z"/>
				<path d="M14.7,36.3c-0.1,0-0.2,0-0.3,0c-0.3-0.1-0.5-0.3-0.7-0.5c-0.1-0.3-0.2-0.6-0.1-0.8c0.1-0.3,0.3-0.5,0.5-0.7L28.6,26
					c0.5-0.3,1.2-0.1,1.5,0.4c0.3,0.5,0.1,1.2-0.4,1.5l0,0l-14.4,8.3C15.1,36.3,14.9,36.3,14.7,36.3z M29.1,26.9
					C29.1,26.9,29.1,26.9,29.1,26.9L29.1,26.9z"/>
			</g>
		</g>
	</g>
	<g text-rendering="geometricPrecision">
		<g>
			<g>
				<path d="M26.4,28.2c0,0.3,0.2,0.5,0.5,0.5c0.3,0,0.5-0.2,0.5-0.5v-19c0-0.3-0.2-0.5-0.5-0.5c-0.3,0-0.5,0.2-0.5,0.5V28.2z
					 M30.8,28.2c0,0.3,0.2,0.5,0.5,0.5s0.5-0.2,0.5-0.5v-19c0-0.3-0.2-0.5-0.5-0.5s-0.5,0.2-0.5,0.5V28.2z"/>
				<path d="M31.3,29.3c-0.6,0-1.1-0.5-1.1-1.1v-19c0-0.6,0.5-1.1,1.1-1.1s1.1,0.5,1.1,1.1v19C32.4,28.8,31.9,29.3,31.3,29.3z
					 M26.9,29.3c-0.6,0-1.1-0.5-1.1-1.1v-19c0-0.6,0.5-1.1,1.1-1.1S28,8.5,28,9.2v19C28,28.8,27.5,29.3,26.9,29.3z"/>
			</g>
		</g>
		<g>
			<g>
				<path d="M26.4,28.2c0,0.3,0.2,0.5,0.5,0.5c0.3,0,0.5-0.2,0.5-0.5v-19c0-0.3-0.2-0.5-0.5-0.5c-0.3,0-0.5,0.2-0.5,0.5V28.2z
					 M30.8,28.2c0,0.3,0.2,0.5,0.5,0.5s0.5-0.2,0.5-0.5v-19c0-0.3-0.2-0.5-0.5-0.5s-0.5,0.2-0.5,0.5V28.2z"/>
				<path d="M31.3,29.3c-0.6,0-1.1-0.5-1.1-1.1v-19c0-0.6,0.5-1.1,1.1-1.1s1.1,0.5,1.1,1.1v19C32.4,28.8,31.9,29.3,31.3,29.3z
					 M26.9,29.3c-0.6,0-1.1-0.5-1.1-1.1v-19c0-0.6,0.5-1.1,1.1-1.1S28,8.5,28,9.2v19C28,28.8,27.5,29.3,26.9,29.3z"/>
			</g>
		</g>
	</g>
	<g text-rendering="geometricPrecision" transform="translate(168.3886,75.3433)">
		<g>
			<g class="st0">
				<path d="M-76.9-33c-0.8,0-1.5-0.2-1.9-0.7c-0.6-0.6-0.9-1.4-0.9-2.4c0-1.1,0.3-1.9,0.9-2.4c0.4-0.5,1.1-0.7,1.9-0.7
					c0.8,0,1.5,0.2,1.9,0.7c0.6,0.5,0.9,1.3,0.9,2.4c0,1.1-0.3,1.9-0.9,2.4C-75.4-33.2-76-33-76.9-33z M-75.7-34.6
					c0.3-0.4,0.4-0.9,0.4-1.5c0-0.7-0.1-1.2-0.4-1.5c-0.3-0.4-0.7-0.5-1.2-0.5c-0.5,0-0.9,0.2-1.2,0.5c-0.3,0.4-0.4,0.9-0.4,1.5
					s0.1,1.2,0.4,1.5c0.3,0.4,0.7,0.5,1.2,0.5C-76.4-34-76-34.2-75.7-34.6z"/>
				<path d="M-69.6-33.2v-2.6h-2.3v2.6h-1.2V-39h1.2v2.2h2.3V-39h1.2v5.9H-69.6z"/>
			</g>
		</g>
	</g>
	<g text-rendering="geometricPrecision" transform="translate(132.6174,13.3857)">
		<g>
			<g class="st0">
				<path d="M-61.9-7.2c-0.8,0-1.5-0.2-1.9-0.7c-0.6-0.6-0.9-1.4-0.9-2.4c0-1.1,0.3-1.9,0.9-2.4c0.4-0.5,1.1-0.7,1.9-0.7
					c0.8,0,1.5,0.2,1.9,0.7c0.6,0.5,0.9,1.3,0.9,2.4c0,1.1-0.3,1.9-0.9,2.4C-60.5-7.4-61.1-7.2-61.9-7.2z M-60.8-8.7
					c0.3-0.4,0.4-0.9,0.4-1.5c0-0.7-0.1-1.2-0.4-1.5c-0.3-0.4-0.7-0.5-1.2-0.5c-0.5,0-0.9,0.2-1.2,0.5c-0.3,0.4-0.4,0.9-0.4,1.5
					s0.1,1.2,0.4,1.5c0.3,0.4,0.7,0.5,1.2,0.5C-61.5-8.2-61.1-8.4-60.8-8.7z"/>
			</g>
		</g>
	</g>
	<g text-rendering="geometricPrecision" transform="translate(15.86,75.3433)">
		<g>
			<g class="st0">
				<path d="M-12.3-33.2v-2.6h-2.3v2.6h-1.2V-39h1.2v2.2h2.3V-39h1.2v5.9H-12.3z"/>
				<path d="M-7.4-33c-0.8,0-1.5-0.2-1.9-0.7c-0.6-0.6-0.9-1.4-0.9-2.4c0-1.1,0.3-1.9,0.9-2.4c0.4-0.5,1.1-0.7,1.9-0.7
					s1.5,0.2,1.9,0.7c0.6,0.5,0.9,1.3,0.9,2.4c0,1.1-0.3,1.9-0.9,2.4C-5.9-33.2-6.5-33-7.4-33z M-6.2-34.6c0.3-0.4,0.4-0.9,0.4-1.5
					c0-0.7-0.1-1.2-0.4-1.5c-0.3-0.4-0.7-0.5-1.2-0.5s-0.9,0.2-1.2,0.5C-8.8-37.3-9-36.8-9-36.1s0.1,1.2,0.4,1.5
					c0.3,0.4,0.7,0.5,1.2,0.5S-6.5-34.2-6.2-34.6z"/>
			</g>
		</g>
	</g>
	<g text-rendering="geometricPrecision" transform="translate(61.075,13.3857)">
		<g>
			<g class="st0">
				<path d="M-32.1-7.2c-0.8,0-1.5-0.2-1.9-0.7c-0.6-0.6-0.9-1.4-0.9-2.4c0-1.1,0.3-1.9,0.9-2.4c0.4-0.5,1.1-0.7,1.9-0.7
					c0.8,0,1.5,0.2,1.9,0.7c0.6,0.5,0.9,1.3,0.9,2.4c0,1.1-0.3,1.9-0.9,2.4C-30.6-7.4-31.3-7.2-32.1-7.2z M-30.9-8.7
					c0.3-0.4,0.4-0.9,0.4-1.5c0-0.7-0.1-1.2-0.4-1.5c-0.3-0.4-0.7-0.5-1.2-0.5c-0.5,0-0.9,0.2-1.2,0.5c-0.3,0.4-0.4,0.9-0.4,1.5
					s0.1,1.2,0.4,1.5c0.3,0.4,0.7,0.5,1.2,0.5C-31.6-8.2-31.2-8.4-30.9-8.7z"/>
			</g>
		</g>
	</g>
</g>
</svg>
