<?xml version="1.0" encoding="utf-8"?>
<svg version="1.1" id="Layer_1" text-rendering="auto" shape-rendering="auto" image-rendering="auto" color-rendering="auto"
	 xmlns="http://www.w3.org/2000/svg" xmlns:xlink="http://www.w3.org/1999/xlink" x="0px" y="0px" viewBox="0 0 354 232"
	 width="100px"
	 style="enable-background:new 0 0 354 232;" xml:space="preserve">
<g>
	<g text-rendering="geometricPrecision">
		<g>
			<g>
				<path d="M31.3,72.6c-0.9,0.5-1.2,1.6-0.7,2.5c0.5,0.9,1.6,1.2,2.5,0.7L105.5,34c0.9-0.5,1.2-1.6,0.7-2.5
					c-0.5-0.9-1.6-1.2-2.5-0.7L31.3,72.6z M48,80.4c-0.9,0.5-1.2,1.6-0.7,2.5c0.5,0.9,1.6,1.2,2.5,0.7l54.2-31.3
					c0.9-0.5,1.2-1.6,0.7-2.5c-0.5-0.9-1.6-1.2-2.5-0.7L48,80.4z"/>
				<path d="M48.9,86.3c-0.4,0-0.8,0-1.1-0.1c-1.1-0.3-2-1-2.6-2c-1.2-2.1-0.5-4.7,1.6-5.9l0,0L100.9,47c2.1-1.2,4.7-0.5,5.9,1.6
					c1.2,2.1,0.5,4.7-1.6,5.9L51,85.7C50.4,86.1,49.6,86.3,48.9,86.3z M49.2,82.6L49.2,82.6C49.2,82.6,49.2,82.6,49.2,82.6
					L49.2,82.6z M32.2,78.5c-0.4,0-0.8,0-1.1-0.1c-1.1-0.3-2-1-2.6-2c-0.6-1-0.7-2.2-0.4-3.3c0.3-1.1,1-2,2-2.6l72.4-41.8
					c1-0.6,2.2-0.7,3.3-0.4c1.1,0.3,2,1,2.6,2c0.6,1,0.7,2.2,0.4,3.3c-0.3,1.1-1,2-2,2.6L34.4,77.9C33.7,78.3,33,78.5,32.2,78.5z
					 M32.6,74.8L32.6,74.8C32.6,74.8,32.6,74.8,32.6,74.8z"/>
			</g>
		</g>
	</g>
	<g text-rendering="geometricPrecision">
		<g>
			<g>
				<path d="M105.5,30.8L105.5,30.8l72.4,41.8c0.9,0.5,1.2,1.6,0.7,2.5c-0.5,0.9-1.6,1.2-2.5,0.7l0,0L103.7,34
					c-0.9-0.5-1.2-1.6-0.7-2.5C103.5,30.6,104.6,30.3,105.5,30.8z"/>
				<path d="M177,78.5c-0.7,0-1.5-0.2-2.1-0.6l-72.4-41.8c-1-0.6-1.7-1.5-2-2.6c-0.3-1.1-0.1-2.3,0.4-3.3c0.6-1,1.5-1.7,2.6-2
					c1.1-0.3,2.3-0.1,3.3,0.4l72.4,41.8c1,0.6,1.7,1.5,2,2.6s0.1,2.3-0.4,3.3c-0.6,1-1.5,1.7-2.6,2C177.7,78.5,177.4,78.5,177,78.5z
					"/>
			</g>
		</g>
	</g>
	<g text-rendering="geometricPrecision">
		<g>
			<g>
				<path d="M176.1,72.6c-0.9,0.5-1.2,1.6-0.7,2.5c0.5,0.9,1.6,1.2,2.5,0.7L250.3,34c0.9-0.5,1.2-1.6,0.7-2.5
					c-0.5-0.9-1.6-1.2-2.5-0.7L176.1,72.6z M192.7,80.4c-0.9,0.5-1.2,1.6-0.7,2.5c0.5,0.9,1.6,1.2,2.5,0.7l54.2-31.3
					c0.9-0.5,1.2-1.6,0.7-2.5c-0.5-0.9-1.6-1.2-2.5-0.7L192.7,80.4z"/>
				<path d="M193.7,86.3c-1.5,0-2.9-0.8-3.7-2.2c-0.6-1-0.7-2.2-0.4-3.3c0.3-1.1,1-2,2-2.6l0,0L245.7,47c2.1-1.2,4.7-0.5,5.9,1.6
					c1.2,2.1,0.5,4.7-1.6,5.9l-54.2,31.3C195.1,86.1,194.4,86.3,193.7,86.3z M194,82.6L194,82.6C194,82.6,194,82.6,194,82.6
					L194,82.6z M177,78.5c-0.4,0-0.8,0-1.1-0.1c-1.1-0.3-2-1-2.6-2c-0.6-1-0.7-2.2-0.4-3.3c0.3-1.1,1-2,2-2.6l72.4-41.8
					c1-0.6,2.2-0.7,3.3-0.4c1.1,0.3,2,1,2.6,2c0.6,1,0.7,2.2,0.4,3.3c-0.3,1.1-1,2-2,2.6l-72.4,41.8C178.5,78.3,177.8,78.5,177,78.5
					z"/>
			</g>
		</g>
	</g>
	<g text-rendering="geometricPrecision">
		<g>
			<g>
				<path d="M250.3,30.8L250.3,30.8l72.4,41.8c0.9,0.5,1.2,1.6,0.7,2.5c-0.5,0.9-1.6,1.2-2.5,0.7l0,0L248.5,34
					c-0.9-0.5-1.2-1.6-0.7-2.5C248.3,30.6,249.4,30.3,250.3,30.8z"/>
				<path d="M321.8,78.5c-0.7,0-1.5-0.2-2.1-0.6l-72.4-41.8c-1-0.6-1.7-1.5-2-2.6c-0.3-1.1-0.1-2.3,0.4-3.3c1.2-2.1,3.8-2.8,5.9-1.6
					l72.4,41.8c1,0.6,1.7,1.5,2,2.6c0.3,1.1,0.1,2.3-0.4,3.3c-0.6,1-1.5,1.7-2.6,2C322.5,78.5,322.1,78.5,321.8,78.5z"/>
			</g>
		</g>
	</g>
	<g text-rendering="geometricPrecision">
		<g>
			<g>
				<path d="M323.6,74.2c0-1-0.8-1.8-1.8-1.8c-1,0-1.8,0.8-1.8,1.8v83.6c0,1,0.8,1.8,1.8,1.8c1,0,1.8-0.8,1.8-1.8V74.2z M308.5,84.7
					c0-1-0.8-1.8-1.8-1.8c-1,0-1.8,0.8-1.8,1.8v62.6c0,1,0.8,1.8,1.8,1.8c1,0,1.8-0.8,1.8-1.8V84.7z"/>
				<path d="M321.8,162.1c-2.4,0-4.3-1.9-4.3-4.3V74.2c0-2.4,1.9-4.3,4.3-4.3s4.3,1.9,4.3,4.3v83.6
					C326.1,160.2,324.2,162.1,321.8,162.1z M306.7,151.6c-2.4,0-4.3-1.9-4.3-4.3V84.7c0-2.4,1.9-4.3,4.3-4.3s4.3,1.9,4.3,4.3v62.6
					C311,149.7,309.1,151.6,306.7,151.6z"/>
			</g>
		</g>
	</g>
	<g text-rendering="geometricPrecision">
		<g>
			<g>
				<path d="M322.7,159.4L322.7,159.4l-72.4,41.8c-0.9,0.5-2,0.2-2.5-0.7c-0.5-0.9-0.2-2,0.7-2.5l0,0l72.4-41.8
					c0.9-0.5,2-0.2,2.5,0.7C323.8,157.8,323.5,158.9,322.7,159.4z"/>
				<path d="M249.4,203.9c-1.5,0-2.9-0.8-3.7-2.2c-1.2-2.1-0.5-4.7,1.6-5.9l72.4-41.8c1-0.6,2.2-0.7,3.3-0.4c1.1,0.3,2,1,2.6,2
					c1.2,2.1,0.5,4.7-1.6,5.9h0l-72.4,41.8C250.9,203.7,250.1,203.9,249.4,203.9z M321.4,157.2C321.4,157.2,321.4,157.2,321.4,157.2
					L321.4,157.2z"/>
			</g>
		</g>
	</g>
	<g text-rendering="geometricPrecision">
		<g>
			<g>
				<path d="M248.5,201.2c0.9,0.5,2,0.2,2.5-0.7c0.5-0.9,0.2-2-0.7-2.5l-72.4-41.8c-0.9-0.5-2-0.2-2.5,0.7c-0.5,0.9-0.2,2,0.7,2.5
					L248.5,201.2z M246.9,182.8c0.9,0.5,2,0.2,2.5-0.7c0.5-0.9,0.2-2-0.7-2.5l-54.2-31.3c-0.9-0.5-2-0.2-2.5,0.7
					c-0.5,0.9-0.2,2,0.7,2.5L246.9,182.8z"/>
				<path d="M249.4,203.9c-0.7,0-1.5-0.2-2.1-0.6l0,0l-72.4-41.8c-2.1-1.2-2.8-3.8-1.6-5.9c0.6-1,1.5-1.7,2.6-2
					c1.1-0.3,2.3-0.1,3.3,0.4l72.4,41.8c1,0.6,1.7,1.5,2,2.6s0.1,2.3-0.4,3.3c-0.6,1-1.5,1.7-2.6,2
					C250.1,203.8,249.8,203.9,249.4,203.9z M247.8,185.6c-0.7,0-1.5-0.2-2.1-0.6l-54.2-31.3c-1-0.6-1.7-1.5-2-2.6
					c-0.3-1.1-0.1-2.3,0.4-3.3c1.2-2.1,3.8-2.8,5.9-1.6l54.2,31.3c2.1,1.2,2.8,3.8,1.6,5.9c-0.6,1-1.5,1.7-2.6,2
					C248.6,185.5,248.2,185.6,247.8,185.6z"/>
			</g>
		</g>
	</g>
	<g text-rendering="geometricPrecision">
		<g>
			<g>
				<path d="M178.8,74.2L178.8,74.2v83.6c0,1-0.8,1.8-1.8,1.8s-1.8-0.8-1.8-1.8l0,0V74.2c0-1,0.8-1.8,1.8-1.8S178.8,73.2,178.8,74.2
					z"/>
				<path d="M177,162.1c-2.4,0-4.3-1.9-4.3-4.3V74.2c0-2.4,1.9-4.3,4.3-4.3s4.3,1.9,4.3,4.3v83.6C181.3,160.2,179.4,162.1,177,162.1
					z"/>
			</g>
		</g>
	</g>
	<g text-rendering="geometricPrecision">
		<g>
			<g>
				<path d="M177.9,159.4L177.9,159.4l-72.4,41.8c-0.9,0.5-2,0.2-2.5-0.7c-0.5-0.9-0.2-2,0.7-2.5l0,0l72.4-41.8
					c0.9-0.5,2-0.2,2.5,0.7C179.1,157.8,178.8,158.9,177.9,159.4z"/>
				<path d="M104.6,203.9c-1.5,0-2.9-0.8-3.7-2.2c-1.2-2.1-0.5-4.7,1.6-5.9l72.4-41.8c1-0.6,2.2-0.7,3.3-0.4c1.1,0.3,2,1,2.6,2
					c1.2,2.1,0.5,4.7-1.6,5.9l0,0l-72.4,41.8C106.1,203.7,105.3,203.9,104.6,203.9z"/>
			</g>
		</g>
	</g>
	<g text-rendering="geometricPrecision">
		<g>
			<g>
				<path d="M103.7,201.2c0.9,0.5,2,0.2,2.5-0.7c0.5-0.9,0.2-2-0.7-2.5l-72.4-41.8c-0.9-0.5-2-0.2-2.5,0.7c-0.5,0.9-0.2,2,0.7,2.5
					L103.7,201.2z M102.1,182.8c0.9,0.5,2,0.2,2.5-0.7c0.5-0.9,0.2-2-0.7-2.5l-54.2-31.3c-0.9-0.5-2-0.2-2.5,0.7
					c-0.5,0.9-0.2,2,0.7,2.5L102.1,182.8z"/>
				<path d="M104.6,203.9c-0.7,0-1.5-0.2-2.1-0.6l0,0l-72.4-41.8c-1-0.6-1.7-1.5-2-2.6s-0.1-2.3,0.4-3.3c0.6-1,1.5-1.7,2.6-2
					c1.1-0.3,2.3-0.1,3.3,0.4l72.4,41.8c2.1,1.2,2.8,3.8,1.6,5.9C107.5,203.1,106.1,203.9,104.6,203.9z M105,199L105,199
					C105,199,105,199,105,199z M103,185.6c-0.7,0-1.5-0.2-2.1-0.6l-54.2-31.3c-2.1-1.2-2.8-3.8-1.6-5.9c1.2-2.1,3.8-2.8,5.9-1.6
					l54.2,31.3c2.1,1.2,2.8,3.8,1.6,5.9c-0.6,1-1.5,1.7-2.6,2C103.8,185.5,103.4,185.6,103,185.6z M103.4,180.7L103.4,180.7
					C103.4,180.7,103.4,180.7,103.4,180.7z"/>
			</g>
		</g>
	</g>
	<g text-rendering="geometricPrecision">
		<g>
			<g>
				<path d="M34,74.2L34,74.2v83.6c0,1-0.8,1.8-1.8,1.8c-1,0-1.8-0.8-1.8-1.8l0,0V74.2c0-1,0.8-1.8,1.8-1.8
					C33.2,72.4,34,73.2,34,74.2z"/>
				<path d="M32.2,162.1c-2.4,0-4.3-1.9-4.3-4.3V74.2c0-2.4,1.9-4.3,4.3-4.3c2.4,0,4.3,1.9,4.3,4.3v83.6
					C36.5,160.2,34.6,162.1,32.2,162.1z"/>
			</g>
		</g>
	</g>
</g>
</svg>
