<?xml version="1.0" encoding="utf-8"?>
<svg version="1.1" id="Layer_1" text-rendering="auto" shape-rendering="auto" image-rendering="auto" color-rendering="auto"
	 xmlns="http://www.w3.org/2000/svg" xmlns:xlink="http://www.w3.org/1999/xlink" x="0px" y="0px" viewBox="0 0 98.9 100"
	 height="100px"
	 style="enable-background:new 0 0 98.9 100;" xml:space="preserve">
<style type="text/css">
	.st0{enable-background:new    ;}
</style>
<g>
	<g text-rendering="geometricPrecision">
		<g>
			<g>
				<path d="M75.6,18.4L75.6,18.4L63.7,39c-0.3,0.5-1,0.7-1.5,0.4c-0.5-0.3-0.7-1-0.4-1.5l0,0l11.9-20.5c0.3-0.5,1-0.7,1.5-0.4
					S75.9,17.9,75.6,18.4z"/>
				<path d="M62.8,40.7c-0.4,0-0.8-0.1-1.1-0.3c-1.1-0.6-1.5-2-0.8-3.1l11.9-20.5c0.6-1.1,2-1.5,3.1-0.8c0.5,0.3,0.9,0.8,1.1,1.4
					c0.2,0.6,0.1,1.2-0.2,1.7L64.8,39.6c-0.3,0.5-0.8,0.9-1.4,1.1C63.2,40.7,63,40.7,62.8,40.7z M74.5,17.8
					C74.5,17.8,74.5,17.8,74.5,17.8L74.5,17.8z"/>
			</g>
		</g>
	</g>
	<g text-rendering="geometricPrecision">
		<g>
			<g>
				<path d="M63.7,59.9L63.7,59.9l12,20.8c0.3,0.5,0.1,1.2-0.4,1.5c-0.5,0.3-1.2,0.1-1.5-0.4l0,0L61.9,61c-0.3-0.5-0.1-1.2,0.4-1.5
					C62.8,59.2,63.4,59.4,63.7,59.9z"/>
				<path d="M74.8,83.6c-0.8,0-1.6-0.4-2-1.1l-12-20.8c-0.6-1.1-0.3-2.5,0.8-3.1c1.1-0.6,2.5-0.3,3.1,0.8l12,20.8
					c0.6,1.1,0.3,2.5-0.8,3.1C75.6,83.5,75.2,83.6,74.8,83.6z"/>
			</g>
		</g>
	</g>
	<g text-rendering="geometricPrecision">
		<g>
			<g>
				<path d="M46.5,55.1c0.6,0,1.1-0.5,1.1-1.1c0-0.6-0.5-1.1-1.1-1.1h-29c-0.6,0-1.1,0.5-1.1,1.1c0,0.6,0.5,1.1,1.1,1.1H46.5z
					 M46.5,46c0.6,0,1.1-0.5,1.1-1.1c0-0.6-0.5-1.1-1.1-1.1h-29c-0.6,0-1.1,0.5-1.1,1.1c0,0.6,0.5,1.1,1.1,1.1H46.5z"/>
				<path d="M46.5,56.3h-29c-1.3,0-2.3-1-2.3-2.3c0-1.3,1-2.3,2.3-2.3h29c1.3,0,2.3,1,2.3,2.3C48.8,55.3,47.7,56.3,46.5,56.3z
					 M46.5,47.2h-29c-1.3,0-2.3-1-2.3-2.3s1-2.3,2.3-2.3h29c1.3,0,2.3,1,2.3,2.3S47.7,47.2,46.5,47.2z"/>
			</g>
		</g>
		<g>
			<g>
				<path d="M46.5,55.1c0.6,0,1.1-0.5,1.1-1.1c0-0.6-0.5-1.1-1.1-1.1h-29c-0.6,0-1.1,0.5-1.1,1.1c0,0.6,0.5,1.1,1.1,1.1H46.5z
					 M46.5,46c0.6,0,1.1-0.5,1.1-1.1c0-0.6-0.5-1.1-1.1-1.1h-29c-0.6,0-1.1,0.5-1.1,1.1c0,0.6,0.5,1.1,1.1,1.1H46.5z"/>
				<path d="M46.5,56.3h-29c-1.3,0-2.3-1-2.3-2.3c0-1.3,1-2.3,2.3-2.3h29c1.3,0,2.3,1,2.3,2.3C48.8,55.3,47.7,56.3,46.5,56.3z
					 M46.5,47.2h-29c-1.3,0-2.3-1-2.3-2.3s1-2.3,2.3-2.3h29c1.3,0,2.3,1,2.3,2.3S47.7,47.2,46.5,47.2z"/>
			</g>
		</g>
	</g>
	<g text-rendering="geometricPrecision" transform="translate(77.2232,13.4547)">
		<g>
			<g class="st0">
				<path d="M4-0.5C2.3-0.5,1-1,0-2c-1.2-1.2-1.9-2.8-1.9-5c0-2.2,0.6-3.9,1.9-5c0.9-1,2.3-1.4,4-1.4c1.7,0,3.1,0.5,4,1.4
					c1.2,1.1,1.8,2.8,1.8,5c0,2.2-0.6,3.9-1.8,5C7.1-1,5.8-0.5,4-0.5z M6.5-3.8C7-4.6,7.3-5.6,7.3-7c0-1.4-0.3-2.4-0.9-3.2
					c-0.6-0.7-1.4-1.1-2.4-1.1s-1.8,0.4-2.4,1.1C1-9.4,0.7-8.4,0.7-7S1-4.6,1.6-3.8C2.2-3.1,3-2.7,4-2.7S5.9-3.1,6.5-3.8z"/>
				<path d="M19.1-0.9v-5.5h-4.8v5.5h-2.5v-12.2h2.5v4.7h4.8v-4.7h2.5v12.2H19.1z"/>
			</g>
		</g>
	</g>
	<g text-rendering="geometricPrecision" transform="translate(56.6326,49.3645)">
		<g>
			<g class="st0">
				<path d="M4.1,6.8H1.6l-5-8.7v8.7h-2.4V-5.5h2.7l4.9,8.5v-8.5h2.4V6.8z"/>
			</g>
		</g>
	</g>
	<g>
		<g class="st0">
			<path d="M81.3,100c-1.7,0-3.1-0.5-4-1.4c-1.2-1.2-1.9-2.8-1.9-5c0-2.2,0.6-3.9,1.9-5c0.9-1,2.3-1.4,4-1.4c1.7,0,3.1,0.5,4,1.4
				c1.2,1.1,1.8,2.8,1.8,5c0,2.2-0.6,3.9-1.8,5C84.3,99.5,83,100,81.3,100z M83.7,96.7c0.6-0.7,0.9-1.8,0.9-3.2
				c0-1.4-0.3-2.4-0.9-3.2c-0.6-0.7-1.4-1.1-2.4-1.1c-1,0-1.8,0.4-2.4,1.1c-0.6,0.7-0.9,1.8-0.9,3.2c0,1.4,0.3,2.4,0.9,3.2
				c0.6,0.7,1.4,1.1,2.4,1.1C82.3,97.8,83.1,97.5,83.7,96.7z"/>
		</g>
	</g>
	<g>
		<g class="st0">
			<path d="M5.9,56.5c-1.7,0-3.1-0.5-4-1.4C0.6,53.9,0,52.2,0,50c0-2.2,0.6-3.9,1.9-5c0.9-1,2.3-1.4,4-1.4s3.1,0.5,4,1.4
				c1.2,1.1,1.8,2.8,1.8,5c0,2.2-0.6,3.9-1.8,5C8.9,56,7.6,56.5,5.9,56.5z M8.3,53.2c0.6-0.7,0.9-1.8,0.9-3.2c0-1.4-0.3-2.4-0.9-3.2
				c-0.6-0.7-1.4-1.1-2.4-1.1S4,46.1,3.4,46.8S2.5,48.6,2.5,50c0,1.4,0.3,2.4,0.9,3.2s1.4,1.1,2.4,1.1S7.7,53.9,8.3,53.2z"/>
		</g>
	</g>
	<g>
		<path d="M66.2,40.2v3.4h3.3v0.9h-3.3v3.4h-0.9v-3.4H62v-0.9h3.3v-3.4H66.2z"/>
	</g>
	<g>
		<path d="M91.6,86.7v0.9H88v-0.9H91.6z"/>
	</g>
</g>
</svg>
