<?xml version="1.0" encoding="utf-8"?>
<svg version="1.1" id="Layer_1" text-rendering="auto" shape-rendering="auto" image-rendering="auto" color-rendering="auto"
	 xmlns="http://www.w3.org/2000/svg" xmlns:xlink="http://www.w3.org/1999/xlink" x="0px" y="0px" viewBox="0 0 227.9 238"
	 height="100px"
	 style="enable-background:new 0 0 227.9 238;" xml:space="preserve">
<style type="text/css">
	.st0{enable-background:new    ;}
</style>
<g>
	<g text-rendering="geometricPrecision">
		<g>
			<g>
				<path d="M107.6,31.2L107.6,31.2L136.9,82c0.5,0.9,0.2,2-0.7,2.5s-2,0.2-2.5-0.7l0,0L104.4,33c-0.5-0.9-0.2-2,0.7-2.5
					C106,30.1,107.1,30.4,107.6,31.2z"/>
				<path d="M135.4,86.2c-1.1,0-2.3-0.6-2.9-1.6l-29.3-50.8c-0.4-0.8-0.6-1.7-0.3-2.5c0.2-0.9,0.8-1.6,1.5-2
					c0.8-0.4,1.7-0.6,2.5-0.3c0.9,0.2,1.6,0.8,2,1.5l29.3,50.8c0.4,0.8,0.6,1.7,0.3,2.5c-0.2,0.9-0.8,1.6-1.5,2
					C136.5,86.1,136,86.2,135.4,86.2z M106.1,31.8H106c-0.1,0.1-0.1,0.1-0.1,0.2c0,0.1,0,0.1,0,0.2L135.2,83
					c0.1,0.1,0.3,0.2,0.4,0.1c0.1-0.1,0.1-0.1,0.1-0.2s0-0.1,0-0.2l-29.3-50.8C106.3,31.9,106.2,31.9,106.1,31.8
					C106.1,31.9,106.1,31.8,106.1,31.8z"/>
			</g>
		</g>
		<g>
			<g>
				<path d="M107.6,31.2L107.6,31.2L136.9,82c0.5,0.9,0.2,2-0.7,2.5s-2,0.2-2.5-0.7l0,0L104.4,33c-0.5-0.9-0.2-2,0.7-2.5
					C106,30.1,107.1,30.4,107.6,31.2z"/>
				<path d="M135.4,86.2c-1.1,0-2.3-0.6-2.9-1.6l-29.3-50.8c-0.4-0.8-0.6-1.7-0.3-2.5c0.2-0.9,0.8-1.6,1.5-2
					c0.8-0.4,1.7-0.6,2.5-0.3c0.9,0.2,1.6,0.8,2,1.5l29.3,50.8c0.4,0.8,0.6,1.7,0.3,2.5c-0.2,0.9-0.8,1.6-1.5,2
					C136.5,86.1,136,86.2,135.4,86.2z M106.1,31.8H106c-0.1,0.1-0.1,0.1-0.1,0.2c0,0.1,0,0.1,0,0.2L135.2,83
					c0.1,0.1,0.3,0.2,0.4,0.1c0.1-0.1,0.1-0.1,0.1-0.2s0-0.1,0-0.2l-29.3-50.8C106.3,31.9,106.2,31.9,106.1,31.8
					C106.1,31.9,106.1,31.8,106.1,31.8z"/>
			</g>
		</g>
	</g>
	<g text-rendering="geometricPrecision">
		<g>
			<g>
				<path d="M131.1,73.6c-1,0-1.8,0.8-1.8,1.8s0.8,1.8,1.8,1.8h68.7c1,0,1.8-0.8,1.8-1.8s-0.8-1.8-1.8-1.8H131.1z M131.1,88.6
					c-1,0-1.8,0.8-1.8,1.8s0.8,1.8,1.8,1.8h68.7c1,0,1.8-0.8,1.8-1.8s-0.8-1.8-1.8-1.8H131.1z"/>
				<path d="M199.8,93.7h-68.7c-1.8,0-3.3-1.5-3.3-3.3s1.5-3.3,3.3-3.3h68.7c1.8,0,3.3,1.5,3.3,3.3S201.6,93.7,199.8,93.7z
					 M131.1,90.1c-0.2,0-0.3,0.1-0.3,0.3s0.1,0.3,0.3,0.3h68.7c0.2,0,0.3-0.1,0.3-0.3s-0.1-0.3-0.3-0.3H131.1z M199.8,78.7h-68.7
					c-1.8,0-3.3-1.5-3.3-3.3s1.5-3.3,3.3-3.3h68.7c1.8,0,3.3,1.5,3.3,3.3S201.6,78.7,199.8,78.7z M131.1,75.1
					c-0.2,0-0.3,0.1-0.3,0.3s0.1,0.3,0.3,0.3h68.7c0.2,0,0.3-0.1,0.3-0.3s-0.1-0.3-0.3-0.3H131.1z"/>
			</g>
		</g>
		<g>
			<g>
				<path d="M131.1,73.6c-1,0-1.8,0.8-1.8,1.8s0.8,1.8,1.8,1.8h68.7c1,0,1.8-0.8,1.8-1.8s-0.8-1.8-1.8-1.8H131.1z M131.1,88.6
					c-1,0-1.8,0.8-1.8,1.8s0.8,1.8,1.8,1.8h68.7c1,0,1.8-0.8,1.8-1.8s-0.8-1.8-1.8-1.8H131.1z"/>
				<path d="M199.8,93.7h-68.7c-1.8,0-3.3-1.5-3.3-3.3s1.5-3.3,3.3-3.3h68.7c1.8,0,3.3,1.5,3.3,3.3S201.6,93.7,199.8,93.7z
					 M131.1,90.1c-0.2,0-0.3,0.1-0.3,0.3s0.1,0.3,0.3,0.3h68.7c0.2,0,0.3-0.1,0.3-0.3s-0.1-0.3-0.3-0.3H131.1z M199.8,78.7h-68.7
					c-1.8,0-3.3-1.5-3.3-3.3s1.5-3.3,3.3-3.3h68.7c1.8,0,3.3,1.5,3.3,3.3S201.6,78.7,199.8,78.7z M131.1,75.1
					c-0.2,0-0.3,0.1-0.3,0.3s0.1,0.3,0.3,0.3h68.7c0.2,0,0.3-0.1,0.3-0.3s-0.1-0.3-0.3-0.3H131.1z"/>
			</g>
		</g>
	</g>
	<g text-rendering="geometricPrecision">
		<g>
			<g>
				<path d="M136.9,83.8L136.9,83.8l-41.6,72c-0.5,0.9-1.6,1.2-2.5,0.7s-1.2-1.6-0.7-2.5l0,0l41.6-72c0.5-0.9,1.6-1.2,2.5-0.7
					C137.1,81.9,137.4,83,136.9,83.8z"/>
				<path d="M93.8,158.2c-0.6,0-1.1-0.1-1.6-0.4c-0.8-0.4-1.3-1.2-1.5-2s-0.1-1.7,0.3-2.5l41.6-72c0.9-1.6,2.9-2.1,4.5-1.2
					s2.1,2.9,1.2,4.5l-41.6,72c-0.4,0.8-1.2,1.3-2,1.5C94.4,158.2,94.1,158.2,93.8,158.2z M135.4,82.6c-0.1,0-0.2,0.1-0.3,0.1
					l-41.6,72c-0.1,0.1,0,0.2,0,0.2s0.1,0.1,0.1,0.2c0.1,0.1,0.2,0,0.2,0c0.1,0,0.1-0.1,0.2-0.1l41.6-72
					C135.7,82.9,135.6,82.7,135.4,82.6C135.5,82.6,135.4,82.6,135.4,82.6z"/>
			</g>
		</g>
	</g>
	<g text-rendering="geometricPrecision">
		<g>
			<g>
				<path d="M95.4,154L95.4,154l30.4,52.6c0.5,0.9,0.2,2-0.7,2.5s-2,0.2-2.5-0.7l0,0l-30.4-52.6c-0.5-0.9-0.2-2,0.7-2.5
					C93.8,152.9,94.9,153.2,95.4,154z"/>
				<path d="M124.2,210.9c-1.1,0-2.3-0.6-2.9-1.6l-30.4-52.6c-0.9-1.6-0.4-3.6,1.2-4.5c0.8-0.4,1.7-0.6,2.5-0.3
					c0.9,0.2,1.6,0.8,2,1.5L127,206c0.4,0.8,0.6,1.7,0.3,2.5s-0.8,1.6-1.5,2C125.3,210.7,124.8,210.9,124.2,210.9z M93.8,154.6
					L93.8,154.6c-0.2,0.1-0.3,0.3-0.2,0.4l30.4,52.6c0.1,0.1,0.3,0.2,0.4,0.1c0.1-0.1,0.2-0.3,0.1-0.4l-30.4-52.5
					C94,154.7,93.9,154.7,93.8,154.6C93.9,154.6,93.8,154.6,93.8,154.6z"/>
			</g>
		</g>
		<g>
			<g>
				<path d="M95.4,154L95.4,154l30.4,52.6c0.5,0.9,0.2,2-0.7,2.5s-2,0.2-2.5-0.7l0,0l-30.4-52.6c-0.5-0.9-0.2-2,0.7-2.5
					C93.8,152.9,94.9,153.2,95.4,154z"/>
				<path d="M124.2,210.9c-1.1,0-2.3-0.6-2.9-1.6l-30.4-52.6c-0.9-1.6-0.4-3.6,1.2-4.5c0.8-0.4,1.7-0.6,2.5-0.3
					c0.9,0.2,1.6,0.8,2,1.5L127,206c0.4,0.8,0.6,1.7,0.3,2.5s-0.8,1.6-1.5,2C125.3,210.7,124.8,210.9,124.2,210.9z M93.8,154.6
					L93.8,154.6c-0.2,0.1-0.3,0.3-0.2,0.4l30.4,52.6c0.1,0.1,0.3,0.2,0.4,0.1c0.1-0.1,0.2-0.3,0.1-0.4l-30.4-52.5
					C94,154.7,93.9,154.7,93.8,154.6C93.9,154.6,93.8,154.6,93.8,154.6z"/>
			</g>
		</g>
	</g>
	<g text-rendering="geometricPrecision">
		<g>
			<g>
				<path d="M98.1,164.2c1,0,1.8-0.8,1.8-1.8s-0.8-1.8-1.8-1.8H29.4c-1,0-1.8,0.8-1.8,1.8s0.8,1.8,1.8,1.8H98.1z M98.1,149.2
					c1,0,1.8-0.8,1.8-1.8s-0.8-1.8-1.8-1.8H29.4c-1,0-1.8,0.8-1.8,1.8s0.8,1.8,1.8,1.8H98.1z"/>
				<path d="M98.1,165.7H29.4c-1.8,0-3.3-1.5-3.3-3.3s1.5-3.3,3.3-3.3h68.7c1.8,0,3.3,1.5,3.3,3.3S100,165.7,98.1,165.7z
					 M29.4,162.1c-0.2,0-0.3,0.1-0.3,0.3s0.1,0.3,0.3,0.3h68.7c0.2,0,0.3-0.1,0.3-0.3s-0.1-0.3-0.3-0.3H29.4z M98.1,150.7H29.4
					c-1.8,0-3.3-1.5-3.3-3.3s1.5-3.3,3.3-3.3h68.7c1.8,0,3.3,1.5,3.3,3.3S100,150.7,98.1,150.7z M29.4,147.1c-0.2,0-0.3,0.1-0.3,0.3
					s0.1,0.3,0.3,0.3h68.7c0.2,0,0.3-0.1,0.3-0.3s-0.1-0.3-0.3-0.3H29.4z"/>
			</g>
		</g>
		<g>
			<g>
				<path d="M98.1,164.2c1,0,1.8-0.8,1.8-1.8s-0.8-1.8-1.8-1.8H29.4c-1,0-1.8,0.8-1.8,1.8s0.8,1.8,1.8,1.8H98.1z M98.1,149.2
					c1,0,1.8-0.8,1.8-1.8s-0.8-1.8-1.8-1.8H29.4c-1,0-1.8,0.8-1.8,1.8s0.8,1.8,1.8,1.8H98.1z"/>
				<path d="M98.1,165.7H29.4c-1.8,0-3.3-1.5-3.3-3.3s1.5-3.3,3.3-3.3h68.7c1.8,0,3.3,1.5,3.3,3.3S100,165.7,98.1,165.7z
					 M29.4,162.1c-0.2,0-0.3,0.1-0.3,0.3s0.1,0.3,0.3,0.3h68.7c0.2,0,0.3-0.1,0.3-0.3s-0.1-0.3-0.3-0.3H29.4z M98.1,150.7H29.4
					c-1.8,0-3.3-1.5-3.3-3.3s1.5-3.3,3.3-3.3h68.7c1.8,0,3.3,1.5,3.3,3.3S100,150.7,98.1,150.7z M29.4,147.1c-0.2,0-0.3,0.1-0.3,0.3
					s0.1,0.3,0.3,0.3h68.7c0.2,0,0.3-0.1,0.3-0.3s-0.1-0.3-0.3-0.3H29.4z"/>
			</g>
		</g>
	</g>
	<g text-rendering="geometricPrecision" transform="translate(93.7799,26.7057)">
		<g>
			<g class="st0">
				<path d="M-16.2-5.3v-9.3h-8.2v9.3h-4.3v-20.9h4.3v8h8.2v-8h4.3v20.9H-16.2z"/>
				<path d="M1.5-4.7c-3,0-5.3-0.8-6.8-2.4c-2.1-2-3.2-4.9-3.2-8.6c0-3.8,1.1-6.7,3.2-8.6c1.6-1.6,3.9-2.4,6.8-2.4s5.3,0.8,6.8,2.4
					c2.1,1.9,3.2,4.8,3.2,8.6c0,3.7-1.1,6.6-3.2,8.6C6.7-5.5,4.5-4.7,1.5-4.7z M5.6-10.3c1-1.3,1.5-3.1,1.5-5.4s-0.5-4.2-1.5-5.4
					c-1-1.3-2.4-1.9-4.1-1.9s-3.1,0.6-4.1,1.9c-1,1.3-1.5,3.1-1.5,5.4c0,2.4,0.5,4.2,1.5,5.4c1,1.3,2.4,1.9,4.1,1.9
					S4.6-9.1,5.6-10.3z"/>
			</g>
		</g>
	</g>
	<g text-rendering="geometricPrecision" transform="translate(237.4021,98.7212)">
		<g>
			<g class="st0">
				<path d="M-19.5-4.7c-3,0-5.3-0.8-6.8-2.4c-2.1-2-3.2-4.9-3.2-8.6c0-3.8,1.1-6.7,3.2-8.6c1.6-1.6,3.9-2.4,6.8-2.4
					c3,0,5.3,0.8,6.8,2.4c2.1,1.9,3.2,4.8,3.2,8.6c0,3.7-1.1,6.6-3.2,8.6C-14.2-5.5-16.5-4.7-19.5-4.7z M-15.3-10.3
					c1-1.3,1.5-3.1,1.5-5.4s-0.5-4.2-1.5-5.4c-1-1.2-2.4-1.9-4.1-1.9s-3.1,0.6-4.1,1.9c-1,1.3-1.5,3.1-1.5,5.4
					c0,2.4,0.5,4.2,1.5,5.4c1,1.3,2.4,1.9,4.1,1.9C-17.7-8.4-16.4-9.1-15.3-10.3z"/>
			</g>
		</g>
	</g>
	<g text-rendering="geometricPrecision" transform="translate(154.7458,242.7523)">
		<g>
			<g class="st0">
				<path d="M-19.5-4.7c-3,0-5.3-0.8-6.8-2.4c-2.1-2-3.2-4.9-3.2-8.6c0-3.8,1.1-6.7,3.2-8.6c1.6-1.6,3.9-2.4,6.8-2.4
					c3,0,5.3,0.8,6.8,2.4c2.1,1.9,3.2,4.8,3.2,8.6c0,3.7-1.1,6.6-3.2,8.6C-14.2-5.5-16.5-4.7-19.5-4.7z M-15.3-10.3
					c1-1.3,1.5-3.1,1.5-5.4s-0.5-4.2-1.5-5.4c-1-1.2-2.4-1.9-4.1-1.9s-3.1,0.6-4.1,1.9c-1,1.3-1.5,3.1-1.5,5.4
					c0,2.4,0.5,4.2,1.5,5.4c1,1.3,2.4,1.9,4.1,1.9C-17.7-8.4-16.4-9.1-15.3-10.3z"/>
				<path d="M6.3-5.3v-9.3h-8.2v9.3h-4.3v-20.9h4.3v8h8.2v-8h4.3v20.9H6.3z"/>
			</g>
		</g>
	</g>
	<g text-rendering="geometricPrecision" transform="translate(29.5112,170.7368)">
		<g>
			<g class="st0">
				<path d="M-19.5-4.7c-3,0-5.3-0.8-6.8-2.4c-2.1-2-3.2-4.9-3.2-8.6c0-3.8,1.1-6.7,3.2-8.6c1.6-1.6,3.9-2.4,6.8-2.4
					s5.3,0.8,6.8,2.4c2.1,1.9,3.2,4.8,3.2,8.6c0,3.7-1.1,6.6-3.2,8.6C-14.2-5.5-16.5-4.7-19.5-4.7z M-15.3-10.3
					c1-1.3,1.5-3.1,1.5-5.4s-0.5-4.2-1.5-5.4c-1-1.3-2.4-1.9-4.1-1.9s-3.1,0.6-4.1,1.9c-1,1.3-1.5,3.1-1.5,5.4
					c0,2.4,0.5,4.2,1.5,5.4c1,1.3,2.4,1.9,4.1,1.9C-17.7-8.4-16.4-9.1-15.3-10.3z"/>
			</g>
		</g>
	</g>
</g>
</svg>
