<?xml version="1.0" encoding="utf-8"?>
<svg version="1.1" id="Layer_1" text-rendering="auto" shape-rendering="auto" image-rendering="auto" color-rendering="auto"
	 xmlns="http://www.w3.org/2000/svg" xmlns:xlink="http://www.w3.org/1999/xlink" x="0px" y="0px" viewBox="0 0 236 321"
	 height="100px"
	 style="enable-background:new 0 0 236 321;" xml:space="preserve">
<g>
	<g text-rendering="geometricPrecision">
		<g>
			<g>
				<path d="M33.3,265.5c-0.6-0.3-1.3-0.1-1.6,0.4c-0.3,0.6-0.1,1.3,0.4,1.6l36.1,20.8c0.6,0.3,1.3,0.1,1.6-0.4
					c0.3-0.6,0.1-1.3-0.4-1.6L33.3,265.5z M22.3,270.7c-0.6-0.3-1.3-0.1-1.6,0.4c-0.3,0.6-0.1,1.3,0.4,1.6l48.2,27.8
					c0.6,0.3,1.3,0.1,1.6-0.4c0.3-0.6,0.1-1.3-0.4-1.6L22.3,270.7z"/>
				<path d="M69.8,303.3c-0.6,0-1.3-0.2-1.8-0.5L19.8,275c-1.8-1-2.4-3.3-1.4-5.1c1-1.8,3.3-2.4,5.1-1.4l0,0l48.2,27.8
					c1.8,1,2.4,3.3,1.4,5.1C72.4,302.6,71.1,303.3,69.8,303.3z M21,272.9L21,272.9C21,272.9,21,272.9,21,272.9L21,272.9z
					 M68.8,291.1c-0.6,0-1.3-0.2-1.8-0.5l-36.1-20.8c-0.9-0.5-1.5-1.3-1.7-2.2c-0.3-1-0.1-2,0.4-2.8c1-1.8,3.3-2.4,5.1-1.4l0,0
					l36.1,20.8c0.9,0.5,1.5,1.3,1.7,2.2c0.3,1,0.1,2-0.4,2.8c-0.5,0.9-1.3,1.5-2.2,1.7C69.4,291,69.1,291.1,68.8,291.1z M32.1,267.7
					L32.1,267.7C32.1,267.7,32.1,267.7,32.1,267.7L32.1,267.7z"/>
			</g>
		</g>
	</g>
	<g text-rendering="geometricPrecision">
		<g>
			<g>
				<path d="M69.2,298.5L69.2,298.5l48.2-27.8c0.6-0.3,1.3-0.1,1.6,0.4c0.3,0.6,0.1,1.3-0.4,1.6l0,0l-48.2,27.8
					c-0.6,0.3-1.3,0.1-1.6-0.4C68.5,299.6,68.7,298.8,69.2,298.5z"/>
				<path d="M69.8,303.3c-1.3,0-2.5-0.7-3.2-1.8c-1-1.8-0.4-4,1.4-5.1l0,0l48.2-27.8c1.8-1,4-0.4,5.1,1.4c1,1.8,0.4,4-1.4,5.1
					l-48.2,27.8C71.1,303.1,70.5,303.3,69.8,303.3z M70.5,300.7L70.5,300.7C70.5,300.7,70.5,300.7,70.5,300.7L70.5,300.7z"/>
			</g>
		</g>
	</g>
	<g text-rendering="geometricPrecision">
		<g>
			<g>
				<path d="M129.7,265.5c-0.6-0.3-1.3-0.1-1.6,0.4c-0.3,0.6-0.1,1.3,0.4,1.6l36.1,20.8c0.6,0.3,1.3,0.1,1.6-0.4
					c0.3-0.6,0.1-1.3-0.4-1.6L129.7,265.5z M118.6,270.7c-0.6-0.3-1.3-0.1-1.6,0.4c-0.3,0.6-0.1,1.3,0.4,1.6l48.2,27.8
					c0.6,0.3,1.3,0.1,1.6-0.4c0.3-0.6,0.1-1.3-0.4-1.6L118.6,270.7z"/>
				<path d="M166.2,303.3c-0.6,0-1.3-0.2-1.8-0.5L116.1,275c-1.8-1-2.4-3.3-1.4-5.1c1-1.8,3.3-2.4,5.1-1.4l0,0l48.2,27.8
					c1.8,1,2.4,3.3,1.4,5.1C168.7,302.6,167.4,303.3,166.2,303.3z M117.4,272.9L117.4,272.9C117.4,272.9,117.4,272.9,117.4,272.9
					L117.4,272.9z M165.1,291.1c-0.6,0-1.3-0.2-1.8-0.5l-36.1-20.8c-0.9-0.5-1.5-1.3-1.7-2.2c-0.3-1-0.1-2,0.4-2.8
					c1-1.8,3.3-2.4,5.1-1.4l0,0l36.1,20.8c0.9,0.5,1.5,1.3,1.7,2.2c0.3,1,0.1,2-0.4,2.8c-0.5,0.9-1.3,1.5-2.2,1.7
					C165.8,291,165.4,291.1,165.1,291.1z"/>
			</g>
		</g>
	</g>
	<g text-rendering="geometricPrecision">
		<g>
			<g>
				<path d="M165.6,298.5L165.6,298.5l48.2-27.8c0.6-0.3,1.3-0.1,1.6,0.4c0.3,0.6,0.1,1.3-0.4,1.6l0,0l-48.2,27.8
					c-0.6,0.3-1.3,0.1-1.6-0.4C164.8,299.6,165,298.8,165.6,298.5z"/>
				<path d="M166.2,303.3c-1.3,0-2.5-0.7-3.2-1.9c-1-1.8-0.4-4,1.4-5.1l0,0l48.2-27.8c1.8-1,4-0.4,5.1,1.4c1,1.8,0.4,4-1.4,5.1
					L168,302.8C167.4,303.1,166.8,303.3,166.2,303.3z"/>
			</g>
		</g>
	</g>
	<g text-rendering="geometricPrecision">
		<g>
			<g>
				<path d="M203.1,264.8c0,0.7,0.5,1.2,1.2,1.2s1.2-0.5,1.2-1.2v-41.6c0-0.7-0.5-1.2-1.2-1.2s-1.2,0.5-1.2,1.2V264.8z M213.1,271.7
					c0,0.7,0.5,1.2,1.2,1.2c0.7,0,1.2-0.5,1.2-1.2v-55.6c0-0.7-0.5-1.2-1.2-1.2c-0.7,0-1.2,0.5-1.2,1.2V271.7z"/>
				<path d="M214.3,275.5c-2,0-3.7-1.7-3.7-3.7v-55.6c0-2,1.7-3.7,3.7-3.7s3.7,1.7,3.7,3.7v55.6C218,273.8,216.4,275.5,214.3,275.5z
					 M204.3,268.5c-2,0-3.7-1.7-3.7-3.7v-41.6c0-2,1.7-3.7,3.7-3.7s3.7,1.7,3.7,3.7v41.6C208,266.8,206.4,268.5,204.3,268.5z"/>
			</g>
		</g>
	</g>
	<g text-rendering="geometricPrecision">
		<g>
			<g>
				<path d="M213.7,217.2L213.7,217.2l-48.2-27.8c-0.6-0.3-0.8-1.1-0.4-1.6c0.3-0.6,1.1-0.8,1.6-0.4l0,0l48.2,27.8
					c0.6,0.3,0.8,1.1,0.4,1.6C215.1,217.3,214.3,217.5,213.7,217.2z"/>
				<path d="M214.3,219.8c-0.6,0-1.3-0.2-1.8-0.5l-48.2-27.8c-0.9-0.5-1.5-1.3-1.7-2.2c-0.3-1-0.1-2,0.4-2.8
					c0.5-0.9,1.3-1.5,2.2-1.7c1-0.3,2-0.1,2.8,0.4l48.2,27.8c1.8,1,2.4,3.3,1.4,5.1c-0.5,0.9-1.3,1.5-2.3,1.7
					C215,219.8,214.7,219.8,214.3,219.8z M215,215L215,215C215,215,215,215,215,215z"/>
			</g>
		</g>
	</g>
	<g text-rendering="geometricPrecision">
		<g>
			<g>
				<path d="M165.7,201.5c0.6-0.3,0.8-1.1,0.4-1.6c-0.3-0.6-1.1-0.8-1.6-0.4l-36.1,20.8c-0.6,0.3-0.8,1.1-0.4,1.6
					c0.3,0.6,1.1,0.8,1.6,0.4L165.7,201.5z M166.8,189.4c0.6-0.3,0.8-1.1,0.4-1.6c-0.3-0.6-1.1-0.8-1.6-0.4l-48.2,27.8
					c-0.6,0.3-0.8,1.1-0.4,1.6c0.3,0.6,1.1,0.8,1.6,0.4L166.8,189.4z"/>
				<path d="M129.1,225c-0.3,0-0.6,0-1-0.1c-1-0.3-1.8-0.9-2.2-1.7c-0.5-0.9-0.6-1.9-0.4-2.8c0.3-1,0.9-1.8,1.7-2.2l36.1-20.8
					c1.8-1,4-0.4,5.1,1.4c0.5,0.9,0.6,1.9,0.4,2.8c-0.3,1-0.9,1.8-1.7,2.2l0,0l-36.1,20.8C130.4,224.9,129.7,225,129.1,225z
					 M164.5,199.4C164.5,199.4,164.5,199.4,164.5,199.4L164.5,199.4z M118,219.8c-0.3,0-0.6,0-1-0.1c-1-0.3-1.8-0.9-2.2-1.7
					c-0.5-0.9-0.6-1.9-0.4-2.8c0.3-1,0.9-1.8,1.7-2.2l48.2-27.8c0.9-0.5,1.9-0.6,2.8-0.4c1,0.3,1.8,0.9,2.2,1.7
					c0.5,0.9,0.6,1.9,0.4,2.8c-0.3,1-0.9,1.8-1.7,2.2l0,0l-48.2,27.8C119.3,219.7,118.6,219.8,118,219.8z M165.5,187.2
					C165.5,187.2,165.5,187.2,165.5,187.2L165.5,187.2z"/>
			</g>
		</g>
	</g>
	<g text-rendering="geometricPrecision">
		<g>
			<g>
				<path d="M116.8,271.7L116.8,271.7v-55.6c0-0.7,0.5-1.2,1.2-1.2s1.2,0.5,1.2,1.2l0,0v55.6c0,0.7-0.5,1.2-1.2,1.2
					S116.8,272.4,116.8,271.7z"/>
				<path d="M118,275.5c-2,0-3.7-1.7-3.7-3.7v-55.6c0-2,1.7-3.7,3.7-3.7c2,0,3.7,1.7,3.7,3.7v55.6C121.7,273.8,120,275.5,118,275.5z
					"/>
			</g>
		</g>
	</g>
	<g text-rendering="geometricPrecision">
		<g>
			<g>
				<path d="M117.4,217.2L117.4,217.2l-48.2-27.8c-0.6-0.3-0.8-1.1-0.4-1.6c0.3-0.6,1.1-0.8,1.6-0.4l0,0l48.2,27.8
					c0.6,0.3,0.8,1.1,0.4,1.6C118.7,217.3,118,217.5,117.4,217.2z"/>
				<path d="M118,219.8c-0.6,0-1.3-0.2-1.8-0.5L68,191.5c-1.8-1-2.4-3.3-1.4-5.1c0.5-0.9,1.3-1.5,2.2-1.7c1-0.3,2-0.1,2.8,0.4
					l48.2,27.8c1.8,1,2.4,3.3,1.4,5.1c-0.5,0.9-1.3,1.5-2.3,1.7C118.6,219.8,118.3,219.8,118,219.8z M118.6,215L118.6,215
					C118.6,215,118.6,215,118.6,215z"/>
			</g>
		</g>
	</g>
	<g text-rendering="geometricPrecision">
		<g>
			<g>
				<path d="M69.4,201.5c0.6-0.3,0.8-1.1,0.4-1.6c-0.3-0.6-1.1-0.8-1.6-0.4l-36.1,20.8c-0.6,0.3-0.8,1.1-0.4,1.6
					c0.3,0.6,1.1,0.8,1.6,0.4L69.4,201.5z M70.4,189.4c0.6-0.3,0.8-1.1,0.4-1.6c-0.3-0.6-1.1-0.8-1.6-0.4l-48.2,27.8
					c-0.6,0.3-0.8,1.1-0.4,1.6c0.3,0.6,1.1,0.8,1.6,0.4L70.4,189.4z"/>
				<path d="M32.7,225c-0.3,0-0.6,0-1-0.1c-1-0.3-1.8-0.9-2.2-1.7s-0.6-1.9-0.4-2.8c0.3-1,0.9-1.8,1.7-2.2l36.1-20.8
					c1.8-1,4-0.4,5.1,1.4c1,1.8,0.4,4-1.4,5.1l0,0l-36.1,20.8C34,224.9,33.4,225,32.7,225z M21.7,219.8c-0.3,0-0.6,0-1-0.1
					c-1-0.3-1.8-0.9-2.2-1.7s-0.6-1.9-0.4-2.8c0.3-1,0.9-1.8,1.7-2.2L68,185.1c0.9-0.5,1.9-0.6,2.8-0.4c1,0.3,1.8,0.9,2.2,1.7
					c1,1.8,0.4,4-1.4,5.1l0,0l-48.2,27.8C22.9,219.7,22.3,219.8,21.7,219.8z M69.2,187.2C69.2,187.2,69.2,187.2,69.2,187.2
					L69.2,187.2z"/>
			</g>
		</g>
	</g>
	<g text-rendering="geometricPrecision">
		<g>
			<g>
				<path d="M20.5,271.7L20.5,271.7v-55.6c0-0.7,0.5-1.2,1.2-1.2c0.7,0,1.2,0.5,1.2,1.2l0,0v55.6c0,0.7-0.5,1.2-1.2,1.2
					C21,273,20.5,272.4,20.5,271.7z"/>
				<path d="M21.7,275.5c-2,0-3.7-1.7-3.7-3.7v-55.6c0-2,1.7-3.7,3.7-3.7c2,0,3.7,1.7,3.7,3.7v55.6
					C25.4,273.8,23.7,275.5,21.7,275.5z"/>
			</g>
		</g>
	</g>
	<g text-rendering="geometricPrecision">
		<g>
			<g>
				<path d="M68.6,188.3L68.6,188.3v-55.6c0-0.7,0.5-1.2,1.2-1.2c0.7,0,1.2,0.5,1.2,1.2l0,0v55.6c0,0.7-0.5,1.2-1.2,1.2
					C69.2,189.5,68.6,189,68.6,188.3z"/>
				<path d="M69.8,192c-2,0-3.7-1.7-3.7-3.7v-55.6c0-2,1.7-3.7,3.7-3.7s3.7,1.7,3.7,3.7v55.6C73.5,190.4,71.9,192,69.8,192z"/>
			</g>
		</g>
	</g>
	<g text-rendering="geometricPrecision">
		<g>
			<g>
				<path d="M69.2,133.7c0.6,0.3,1.3,0.1,1.6-0.4c0.3-0.6,0.1-1.3-0.4-1.6l-48.2-27.8c-0.6-0.3-1.3-0.1-1.6,0.4
					c-0.3,0.6-0.1,1.3,0.4,1.6L69.2,133.7z M68.2,121.5c0.6,0.3,1.3,0.1,1.6-0.4c0.3-0.6,0.1-1.3-0.4-1.6L33.3,98.6
					c-0.6-0.3-1.3-0.1-1.6,0.4c-0.3,0.6-0.1,1.3,0.4,1.6L68.2,121.5z"/>
				<path d="M69.8,136.4c-0.6,0-1.3-0.2-1.8-0.5h0l-48.2-27.8c-1.8-1-2.4-3.3-1.4-5.1c1-1.8,3.3-2.4,5.1-1.4l48.2,27.8
					c0.9,0.5,1.5,1.3,1.7,2.2s0.1,2-0.4,2.8C72.4,135.7,71.1,136.4,69.8,136.4z M70.5,131.6L70.5,131.6
					C70.5,131.6,70.5,131.6,70.5,131.6z M68.8,124.2c-0.6,0-1.3-0.2-1.8-0.5l0,0l-36.1-20.8c-0.9-0.5-1.5-1.3-1.7-2.2
					s-0.1-2,0.4-2.8c1-1.8,3.3-2.4,5.1-1.4l36.1,20.8c0.9,0.5,1.5,1.3,1.7,2.2s0.1,2-0.4,2.8C71.3,123.5,70.1,124.2,68.8,124.2z
					 M69.4,119.4L69.4,119.4C69.4,119.4,69.4,119.4,69.4,119.4z"/>
			</g>
		</g>
	</g>
	<g text-rendering="geometricPrecision">
		<g>
			<g>
				<path d="M20.5,104.9L20.5,104.9V49.3c0-0.7,0.5-1.2,1.2-1.2c0.7,0,1.2,0.5,1.2,1.2l0,0v55.6c0,0.7-0.5,1.2-1.2,1.2
					C21,106.1,20.5,105.5,20.5,104.9z"/>
				<path d="M21.7,108.6c-2,0-3.7-1.7-3.7-3.7V49.3c0-2,1.7-3.7,3.7-3.7c2,0,3.7,1.7,3.7,3.7v55.6C25.4,106.9,23.7,108.6,21.7,108.6
					z"/>
			</g>
		</g>
	</g>
	<g text-rendering="geometricPrecision">
		<g>
			<g>
				<path d="M21.1,48.2c-0.6,0.3-0.8,1.1-0.4,1.6c0.3,0.6,1.1,0.8,1.6,0.4l48.2-27.8c0.6-0.3,0.8-1.1,0.4-1.6
					c-0.3-0.6-1.1-0.8-1.6-0.4L21.1,48.2z M32.1,53.4c-0.6,0.3-0.8,1.1-0.4,1.6c0.3,0.6,1.1,0.8,1.6,0.4l36.1-20.8
					c0.6-0.3,0.8-1.1,0.4-1.6c-0.3-0.6-1.1-0.8-1.6-0.4L32.1,53.4z"/>
				<path d="M32.7,58.1c-1.3,0-2.5-0.7-3.2-1.9c-1-1.8-0.4-4,1.4-5.1h0l36.1-20.8c0.9-0.5,1.9-0.6,2.8-0.4s1.8,0.9,2.2,1.7
					c1,1.8,0.4,4-1.4,5.1L34.6,57.7C34,58,33.4,58.1,32.7,58.1z M21.7,53c-1.3,0-2.5-0.7-3.2-1.9c-0.5-0.9-0.6-1.9-0.4-2.8
					s0.9-1.8,1.7-2.2h0L68,18.2c1.8-1,4-0.4,5.1,1.4c1,1.8,0.4,4-1.4,5.1L23.5,52.5C22.9,52.8,22.3,53,21.7,53z"/>
			</g>
		</g>
	</g>
	<g text-rendering="geometricPrecision">
		<g>
			<g>
				<path d="M70.4,20.4L70.4,20.4l48.2,27.8c0.6,0.3,0.8,1.1,0.4,1.6c-0.3,0.6-1.1,0.8-1.6,0.4l0,0L69.2,22.5
					c-0.6-0.3-0.8-1.1-0.4-1.6C69.1,20.3,69.9,20.1,70.4,20.4z"/>
				<path d="M118,53c-0.6,0-1.3-0.2-1.8-0.5L68,24.6c-0.9-0.5-1.5-1.3-1.7-2.2s-0.1-2,0.4-2.8c0.5-0.9,1.3-1.5,2.2-1.7
					c1-0.3,2-0.1,2.8,0.4L119.9,46c1.8,1,2.4,3.3,1.4,5.1C120.5,52.3,119.3,53,118,53z"/>
			</g>
		</g>
	</g>
	<g text-rendering="geometricPrecision">
		<g>
			<path d="M130.2,56.2c0-0.7-0.5-1.2-1.2-1.2s-1.2,0.5-1.2,1.2v41.6c0,0.7,0.5,1.2,1.2,1.2s1.2-0.5,1.2-1.2V56.2z M119.2,49.3
				c0-0.7-0.5-1.2-1.2-1.2s-1.2,0.5-1.2,1.2v55.6c0,0.7,0.5,1.2,1.2,1.2s1.2-0.5,1.2-1.2V49.3z"/>
			<path d="M118,108.6c-2,0-3.7-1.7-3.7-3.7V49.3c0-2,1.7-3.7,3.7-3.7c2,0,3.7,1.7,3.7,3.7v55.6C121.7,106.9,120,108.6,118,108.6z
				 M129,101.6c-2,0-3.7-1.7-3.7-3.7V56.2c0-2,1.7-3.7,3.7-3.7s3.7,1.7,3.7,3.7v41.6C132.7,99.9,131.1,101.6,129,101.6z"/>
		</g>
	</g>
	<g text-rendering="geometricPrecision">
		<g>
			<g>
				<path d="M69.2,131.6L69.2,131.6l48.2-27.8c0.6-0.3,1.3-0.1,1.6,0.4c0.3,0.6,0.1,1.3-0.4,1.6l0,0l-48.2,27.8
					c-0.6,0.3-1.3,0.1-1.6-0.4C68.5,132.7,68.7,132,69.2,131.6z"/>
				<path d="M69.8,136.4c-0.3,0-0.6,0-1-0.1c-1-0.3-1.8-0.9-2.2-1.7c-0.5-0.9-0.6-1.9-0.4-2.8s0.9-1.8,1.7-2.2h0l48.2-27.8
					c1.8-1,4-0.4,5.1,1.4c1,1.8,0.4,4-1.4,5.1l-48.2,27.8C71.1,136.2,70.5,136.4,69.8,136.4z"/>
			</g>
		</g>
	</g>
	<g text-rendering="geometricPrecision">
		<g>
			<g>
				<path d="M118.6,103.8L118.6,103.8l48.2,27.8c0.6,0.3,0.8,1.1,0.4,1.6c-0.3,0.6-1.1,0.8-1.6,0.4l0,0l-48.2-27.8
					c-0.6-0.3-0.8-1.1-0.4-1.6C117.3,103.7,118,103.5,118.6,103.8z"/>
				<path d="M166.2,136.4c-0.6,0-1.3-0.2-1.8-0.5l-48.2-27.8c-1.8-1-2.4-3.3-1.4-5.1c1-1.8,3.3-2.4,5.1-1.4l48.2,27.8
					c0.9,0.5,1.5,1.3,1.7,2.2s0.1,2-0.4,2.8c-0.5,0.9-1.3,1.5-2.2,1.7C166.8,136.4,166.5,136.4,166.2,136.4z M117.4,106L117.4,106
					C117.4,106,117.4,106,117.4,106L117.4,106z"/>
			</g>
		</g>
	</g>
	<g text-rendering="geometricPrecision">
		<g>
			<g>
				<path d="M165,188.3L165,188.3v-55.6c0-0.7,0.5-1.2,1.2-1.2c0.7,0,1.2,0.5,1.2,1.2l0,0v55.6c0,0.7-0.5,1.2-1.2,1.2
					C165.5,189.5,165,189,165,188.3z"/>
				<path d="M166.2,192c-2,0-3.7-1.7-3.7-3.7v-55.6c0-2,1.7-3.7,3.7-3.7s3.7,1.7,3.7,3.7v55.6C169.9,190.4,168.2,192,166.2,192z"/>
			</g>
		</g>
	</g>
	<g text-rendering="geometricPrecision">
		<g>
			<g>
				<path d="M166.6,119.5c-0.6,0.3-0.8,1.1-0.4,1.6c0.3,0.6,1.1,0.8,1.6,0.4l36.1-20.8c0.6-0.3,0.8-1.1,0.4-1.6
					c-0.3-0.6-1.1-0.8-1.6-0.4L166.6,119.5z M165.6,131.6c-0.6,0.3-0.8,1.1-0.4,1.6c0.3,0.6,1.1,0.8,1.6,0.4l48.2-27.8
					c0.6-0.3,0.8-1.1,0.4-1.6c-0.3-0.6-1.1-0.8-1.6-0.4L165.6,131.6z"/>
				<path d="M166.2,136.4c-0.3,0-0.6,0-1-0.1c-1-0.3-1.8-0.9-2.2-1.7c-0.5-0.9-0.6-1.9-0.4-2.8s0.9-1.8,1.7-2.2l48.2-27.8
					c1.8-1,4-0.4,5.1,1.4c1,1.8,0.4,4-1.4,5.1L168,135.9C167.5,136.2,166.8,136.4,166.2,136.4z M167.2,124.2c-1.3,0-2.5-0.7-3.2-1.8
					c-1-1.8-0.4-4,1.4-5.1l36.1-20.8c1.8-1,4-0.4,5.1,1.4c0.5,0.9,0.6,1.9,0.4,2.8c-0.3,1-0.9,1.8-1.7,2.2l-36.1,20.8
					C168.5,124,167.8,124.2,167.2,124.2z"/>
			</g>
		</g>
	</g>
	<g text-rendering="geometricPrecision">
		<g>
			<g>
				<path d="M213.1,104.9L213.1,104.9V49.3c0-0.7,0.5-1.2,1.2-1.2c0.7,0,1.2,0.5,1.2,1.2l0,0v55.6c0,0.7-0.5,1.2-1.2,1.2
					C213.7,106.1,213.1,105.5,213.1,104.9z"/>
				<path d="M214.3,108.6c-2,0-3.7-1.7-3.7-3.7V49.3c0-2,1.7-3.7,3.7-3.7s3.7,1.7,3.7,3.7v55.6C218,106.9,216.4,108.6,214.3,108.6z"
					/>
			</g>
		</g>
	</g>
	<g text-rendering="geometricPrecision">
		<g>
			<g>
				<path d="M202.7,55.5c0.6,0.3,1.3,0.1,1.6-0.4c0.3-0.6,0.1-1.3-0.4-1.6l-36.1-20.8c-0.6-0.3-1.3-0.1-1.6,0.4
					c-0.3,0.6-0.1,1.3,0.4,1.6L202.7,55.5z M213.7,50.3c0.6,0.3,1.3,0.1,1.6-0.4c0.3-0.6,0.1-1.3-0.4-1.6l-48.2-27.8
					c-0.6-0.3-1.3-0.1-1.6,0.4c-0.3,0.6-0.1,1.3,0.4,1.6L213.7,50.3z"/>
				<path d="M203.3,58.1c-0.6,0-1.3-0.2-1.8-0.5l-36.1-20.8c-1.8-1-2.4-3.3-1.4-5.1c1-1.8,3.3-2.4,5.1-1.4l36.1,20.8
					c1.8,1,2.4,3.3,1.4,5.1c-0.5,0.9-1.3,1.5-2.2,1.7C203.9,58.1,203.6,58.1,203.3,58.1z M214.3,53c-0.6,0-1.3-0.2-1.8-0.5v0
					l-48.2-27.8c-0.9-0.5-1.5-1.3-1.7-2.2s-0.1-2,0.4-2.8c0.5-0.9,1.3-1.5,2.2-1.7c1-0.3,2-0.1,2.8,0.4L216.2,46
					c1.8,1,2.4,3.3,1.4,5.1C216.9,52.3,215.6,53,214.3,53z M215,48.1L215,48.1C215,48.1,215,48.1,215,48.1z"/>
			</g>
		</g>
	</g>
	<g text-rendering="geometricPrecision">
		<g>
			<g>
				<path d="M117.4,48.2L117.4,48.2l48.2-27.8c0.6-0.3,1.3-0.1,1.6,0.4c0.3,0.6,0.1,1.3-0.4,1.6l0,0l-48.2,27.8
					c-0.6,0.3-1.3,0.1-1.6-0.4C116.6,49.3,116.8,48.5,117.4,48.2z"/>
				<path d="M118,53c-1.3,0-2.5-0.7-3.2-1.9c-0.5-0.9-0.6-1.9-0.4-2.8s0.9-1.8,1.7-2.2h0l48.2-27.8c0.9-0.5,1.9-0.6,2.8-0.4
					c1,0.3,1.8,0.9,2.2,1.7c0.5,0.9,0.6,1.9,0.4,2.8s-0.9,1.8-1.7,2.2l-48.2,27.8C119.3,52.8,118.6,53,118,53z"/>
			</g>
		</g>
	</g>
</g>
</svg>
