<?xml version="1.0" encoding="utf-8"?>
<svg version="1.1" id="Layer_1" shape-rendering="auto" color-rendering="auto" text-rendering="auto" image-rendering="auto"
	 xmlns="http://www.w3.org/2000/svg" xmlns:xlink="http://www.w3.org/1999/xlink" x="0px" y="0px" viewBox="0 0 426.2 225.6"
	 width="100px"
	 style="enable-background:new 0 0 426.2 225.6;" xml:space="preserve">
<g>
	<g text-rendering="geometricPrecision">
		<g>
			<g>
				<path d="M423.5,77.5c0.5-0.9,0.2-2-0.7-2.5c-0.9-0.5-2-0.2-2.5,0.7L378.5,148c-0.5,0.9-0.2,2,0.7,2.5c0.9,0.5,2,0.2,2.5-0.7
					L423.5,77.5z M405.2,79.1c0.5-0.9,0.2-2-0.7-2.5c-0.9-0.5-2-0.2-2.5,0.7l-31.3,54.1c-0.5,0.9-0.2,2,0.7,2.5
					c0.9,0.5,2,0.2,2.5-0.7L405.2,79.1z"/>
				<path d="M380.1,153.3c-0.7,0-1.5-0.2-2.1-0.6c-1-0.6-1.7-1.5-2-2.6s-0.1-2.3,0.4-3.3l41.8-72.3c0.6-1,1.5-1.7,2.6-2
					s2.3-0.1,3.3,0.4c2.1,1.2,2.8,3.8,1.6,5.9l0,0l-41.8,72.3C383.1,152.5,381.6,153.3,380.1,153.3z M421.3,76.3L421.3,76.3
					L421.3,76.3z M372.3,136.6c-0.7,0-1.5-0.2-2.1-0.6c-1-0.6-1.7-1.5-2-2.6s-0.1-2.3,0.4-3.3L399.9,76c1.2-2.1,3.8-2.8,5.9-1.6
					c2.1,1.2,2.8,3.8,1.6,5.9l0,0l-31.3,54.2c-0.6,1-1.5,1.7-2.6,2C373.1,136.6,372.7,136.6,372.3,136.6z"/>
			</g>
		</g>
	</g>
	<g text-rendering="geometricPrecision">
		<g>
			<g>
				<path d="M380.1,150.8L380.1,150.8h-83.5c-1,0-1.8-0.8-1.8-1.8s0.8-1.8,1.8-1.8l0,0h83.5c1,0,1.8,0.8,1.8,1.8
					C382,150,381.1,150.8,380.1,150.8z"/>
				<path d="M380.1,153.3h-83.5c-2.4,0-4.3-1.9-4.3-4.3s1.9-4.3,4.3-4.3h83.5c2.4,0,4.3,1.9,4.3,4.3S382.5,153.3,380.1,153.3z"/>
			</g>
		</g>
	</g>
	<g text-rendering="geometricPrecision">
		<g>
			<g>
				<path d="M276.8,148.3c0.5,0.9,1.6,1.2,2.5,0.7s1.2-1.6,0.7-2.5l-31.3-54.1c-0.5-0.9-1.6-1.2-2.5-0.7s-1.2,1.6-0.7,2.5
					L276.8,148.3z M295.1,149.9c0.5,0.9,1.6,1.2,2.5,0.7s1.2-1.6,0.7-2.5l-41.8-72.3c-0.5-0.9-1.6-1.2-2.5-0.7s-1.2,1.6-0.7,2.5
					L295.1,149.9z"/>
				<path d="M296.6,153.3c-1.5,0-2.9-0.8-3.7-2.2l-41.8-72.3c-0.6-1-0.7-2.2-0.4-3.3c0.3-1.1,1-2,2-2.6s2.2-0.7,3.3-0.4
					c1.1,0.3,2,1,2.6,2l41.8,72.3c1.2,2.1,0.5,4.7-1.6,5.9C298.1,153.1,297.4,153.3,296.6,153.3z M278.3,151.7c-0.4,0-0.8,0-1.1-0.1
					c-1.1-0.3-2-1-2.6-2l-31.3-54.1c-1.2-2.1-0.5-4.7,1.6-5.9c1-0.6,2.2-0.7,3.3-0.4c1.1,0.3,2,1,2.6,2l31.3,54.1
					c1.2,2.1,0.5,4.7-1.6,5.9C279.8,151.5,279.1,151.7,278.3,151.7z M278.9,147.1L278.9,147.1L278.9,147.1z"/>
			</g>
		</g>
	</g>
	<g text-rendering="geometricPrecision">
		<g>
			<g>
				<path d="M253.3,75.7L253.3,75.7l41.8-72.3c0.5-0.9,1.6-1.2,2.5-0.7s1.2,1.6,0.7,2.5l0,0l-41.8,72.3c-0.5,0.9-1.6,1.2-2.5,0.7
					C253.1,77.7,252.8,76.6,253.3,75.7z"/>
				<path d="M254.9,80.9c-0.7,0-1.5-0.2-2.1-0.6c-1-0.6-1.7-1.5-2-2.6s-0.1-2.3,0.4-3.3l0,0L293,2.1c0.6-1,1.5-1.7,2.6-2
					s2.3-0.1,3.3,0.4c2.1,1.2,2.8,3.8,1.6,5.9l-41.9,72.4c-0.6,1-1.5,1.7-2.6,2C255.6,80.9,255.2,80.9,254.9,80.9z M255.5,77
					L255.5,77L255.5,77L255.5,77z"/>
			</g>
		</g>
	</g>
	<g text-rendering="geometricPrecision">
		<g>
			<g>
				<path d="M296.6,2.5c-1,0-1.8,0.8-1.8,1.8s0.8,1.8,1.8,1.8h83.5c1,0,1.8-0.8,1.8-1.8s-0.8-1.8-1.8-1.8H296.6z M307.1,17.6
					c-1,0-1.8,0.8-1.8,1.8s0.8,1.8,1.8,1.8h62.5c1,0,1.8-0.8,1.8-1.8s-0.8-1.8-1.8-1.8H307.1z"/>
				<path d="M369.6,23.7h-62.5c-2.4,0-4.3-1.9-4.3-4.3c0-2.4,1.9-4.3,4.3-4.3h62.5c2.4,0,4.3,1.9,4.3,4.3
					C373.9,21.7,372,23.7,369.6,23.7z M380.1,8.6h-83.5c-2.4,0-4.3-1.9-4.3-4.3s1.9-4.3,4.3-4.3h83.5c2.4,0,4.3,1.9,4.3,4.3
					S382.5,8.6,380.1,8.6z"/>
			</g>
		</g>
	</g>
	<g text-rendering="geometricPrecision">
		<g>
			<g>
				<path d="M420.3,77.5L420.3,77.5L378.5,5.2c-0.5-0.9-0.2-2,0.7-2.5c0.9-0.5,2-0.2,2.5,0.7l0,0l41.8,72.3c0.5,0.9,0.2,2-0.7,2.5
					C421.9,78.7,420.8,78.4,420.3,77.5z"/>
				<path d="M421.9,80.9c-0.4,0-0.8,0-1.1-0.1c-1.1-0.3-2-1-2.6-2L376.4,6.5c-0.6-1-0.7-2.2-0.4-3.3c0.3-1.1,1-2,2-2.6
					s2.2-0.7,3.3-0.4c1.1,0.3,2,1,2.6,2l41.8,72.3c1.2,2.1,0.5,4.7-1.6,5.9C423.4,80.7,422.7,80.9,421.9,80.9z M422.5,76.3
					L422.5,76.3L422.5,76.3z"/>
			</g>
		</g>
	</g>
	<g text-rendering="geometricPrecision">
		<g>
			<g>
				<path d="M254.9,78.4L254.9,78.4h-83.5c-1,0-1.8-0.8-1.8-1.8s0.8-1.8,1.8-1.8l0,0h83.5c1,0,1.8,0.8,1.8,1.8
					C256.7,77.6,255.9,78.4,254.9,78.4z"/>
				<path d="M254.9,80.9h-83.5c-2.4,0-4.3-1.9-4.3-4.3s1.9-4.3,4.3-4.3h83.5c2.4,0,4.3,1.9,4.3,4.3S257.2,80.9,254.9,80.9z"/>
			</g>
		</g>
	</g>
	<g text-rendering="geometricPrecision">
		<g>
			<g>
				<path d="M180.7,94.2c0.5-0.9,0.2-2-0.7-2.5s-2-0.2-2.5,0.7l-31.3,54.1c-0.5,0.9-0.2,2,0.7,2.5s2,0.2,2.5-0.7L180.7,94.2z
					 M172.9,77.5c0.5-0.9,0.2-2-0.7-2.5s-2-0.2-2.5,0.7L127.9,148c-0.5,0.9-0.2,2,0.7,2.5c0.9,0.5,2,0.2,2.5-0.7L172.9,77.5z"/>
				<path d="M129.6,153.3c-0.7,0-1.5-0.2-2.1-0.6c-1-0.6-1.7-1.5-2-2.6s-0.1-2.3,0.4-3.3l41.8-72.3c0.6-1,1.5-1.7,2.6-2
					s2.3-0.1,3.3,0.4c1,0.6,1.7,1.5,2,2.6s0.1,2.3-0.4,3.3l0,0l-41.8,72.3C132.5,152.5,131.1,153.3,129.6,153.3z M147.9,151.7
					c-0.7,0-1.5-0.2-2.1-0.6c-1-0.6-1.7-1.5-2-2.6s-0.1-2.3,0.4-3.3l31.3-54.1c0.6-1,1.5-1.7,2.6-2s2.3-0.1,3.3,0.4
					c1,0.6,1.7,1.5,2,2.6s0.1,2.3-0.4,3.3l0,0l-31.3,54.1C150.8,150.9,149.4,151.7,147.9,151.7z M178.5,92.9L178.5,92.9L178.5,92.9z
					"/>
			</g>
		</g>
	</g>
	<g text-rendering="geometricPrecision">
		<g>
			<g>
				<path d="M129.6,150.8L129.6,150.8H46.1c-1,0-1.8-0.8-1.8-1.8s0.8-1.8,1.8-1.8l0,0h83.5c1,0,1.8,0.8,1.8,1.8
					S130.6,150.8,129.6,150.8z"/>
				<path d="M129.6,153.3H46.1c-2.4,0-4.3-1.9-4.3-4.3s1.9-4.3,4.3-4.3h83.5c2.4,0,4.3,1.9,4.3,4.3S132,153.3,129.6,153.3z"/>
			</g>
		</g>
	</g>
	<g text-rendering="geometricPrecision">
		<g>
			<g>
				<path d="M44.5,149.9c0.5,0.9,1.6,1.2,2.5,0.7s1.2-1.6,0.7-2.5L5.9,75.8c-0.5-0.9-1.6-1.2-2.5-0.7c-0.9,0.5-1.2,1.6-0.7,2.5
					L44.5,149.9z M52.3,133.2c0.5,0.9,1.6,1.2,2.5,0.7s1.2-1.6,0.7-2.5L24.2,77.3c-0.5-0.9-1.6-1.2-2.5-0.7s-1.2,1.6-0.7,2.5
					L52.3,133.2z"/>
				<path d="M46.1,153.3c-1.5,0-2.9-0.8-3.7-2.2l0,0L0.6,78.8c-0.6-1-0.7-2.2-0.4-3.3c0.3-1.1,1-2,2-2.6s2.2-0.7,3.3-0.4
					c1.1,0.3,2,1,2.6,2l41.7,72.3c1.2,2.1,0.5,4.7-1.6,5.9C47.5,153.1,46.8,153.3,46.1,153.3z M46.7,148.6L46.7,148.6L46.7,148.6z
					 M53.9,136.6c-1.5,0-2.9-0.8-3.7-2.2l0,0L18.9,80.3c-0.6-1-0.7-2.2-0.4-3.3s1-2,2-2.6s2.2-0.7,3.3-0.4c1.1,0.3,2,1,2.6,2
					l31.3,54.1c1.2,2.1,0.5,4.7-1.6,5.9C55.3,136.5,54.6,136.6,53.9,136.6z M54.4,132L54.4,132L54.4,132z"/>
			</g>
		</g>
	</g>
	<g text-rendering="geometricPrecision">
		<g>
			<g>
				<path d="M2.7,75.7L2.7,75.7L44.5,3.4C45,2.5,46.1,2.2,47,2.7s1.2,1.6,0.7,2.5l0,0L5.9,77.5c-0.5,0.9-1.6,1.2-2.5,0.7
					C2.5,77.7,2.2,76.6,2.7,75.7z"/>
				<path d="M4.3,80.9c-0.7,0-1.5-0.2-2.1-0.6c-1-0.6-1.7-1.5-2-2.6s-0.1-2.3,0.4-3.3L42.4,2.1c0.6-1,1.5-1.7,2.6-2s2.3-0.1,3.3,0.4
					c2.1,1.2,2.8,3.8,1.6,5.9L8,78.8c-0.6,1-1.5,1.7-2.6,2C5,80.9,4.7,80.9,4.3,80.9z"/>
			</g>
		</g>
	</g>
	<g text-rendering="geometricPrecision">
		<g>
			<g>
				<path d="M46.1,2.5c-1,0-1.8,0.8-1.8,1.8s0.8,1.8,1.8,1.8h83.5c1,0,1.8-0.8,1.8-1.8s-0.8-1.8-1.8-1.8H46.1z M56.6,17.6
					c-1,0-1.8,0.8-1.8,1.8s0.8,1.8,1.8,1.8h62.5c1,0,1.8-0.8,1.8-1.8s-0.8-1.8-1.8-1.8H56.6z"/>
				<path d="M119.1,23.7H56.6c-2.4,0-4.3-1.9-4.3-4.3c0-2.4,1.9-4.3,4.3-4.3h62.5c2.4,0,4.3,1.9,4.3,4.3
					C123.4,21.7,121.4,23.7,119.1,23.7z M129.6,8.6H46.1c-2.4,0-4.3-1.9-4.3-4.3S43.7,0,46.1,0h83.5c2.4,0,4.3,1.9,4.3,4.3
					S132,8.6,129.6,8.6z"/>
			</g>
		</g>
	</g>
	<g text-rendering="geometricPrecision">
		<g>
			<g>
				<path d="M169.8,77.5L169.8,77.5L128,5.2c-0.5-0.9-0.2-2,0.7-2.5c0.9-0.5,2-0.2,2.5,0.7l0,0L173,75.7c0.5,0.9,0.2,2-0.7,2.5
					C171.4,78.7,170.3,78.4,169.8,77.5z"/>
				<path d="M171.3,80.9c-0.4,0-0.8,0-1.1-0.1c-1.1-0.3-2-1-2.6-2l0,0L125.8,6.5c-0.6-1-0.7-2.2-0.4-3.3c0.3-1.1,1-2,2-2.6
					c1-0.6,2.2-0.7,3.3-0.4c1.1,0.3,2,1,2.6,2l41.8,72.3c1.2,2.1,0.5,4.7-1.6,5.9C172.8,80.7,172.1,80.9,171.3,80.9z M171.9,76.3
					L171.9,76.3L171.9,76.3z"/>
			</g>
		</g>
	</g>
	<g text-rendering="geometricPrecision">
		<g>
			<g>
				<path d="M131.1,148.1L131.1,148.1l41.8,72.3c0.5,0.9,0.2,2-0.7,2.5s-2,0.2-2.5-0.7l0,0l-41.8-72.3c-0.5-0.9-0.2-2,0.7-2.5
					C129.5,146.9,130.6,147.2,131.1,148.1z"/>
				<path d="M171.3,225.6c-1.5,0-2.9-0.8-3.7-2.2l-41.8-72.3c-0.6-1-0.7-2.2-0.4-3.3s1-2,2-2.6c2.1-1.2,4.7-0.5,5.9,1.6l0,0
					l41.8,72.3c1.2,2.1,0.5,4.7-1.6,5.9C172.8,225.4,172.1,225.6,171.3,225.6z M129,149.3L129,149.3L129,149.3L129,149.3z"/>
			</g>
		</g>
	</g>
	<g text-rendering="geometricPrecision">
		<g>
			<g>
				<path d="M181.8,204.4c-1,0-1.8,0.8-1.8,1.8s0.8,1.8,1.8,1.8h62.5c1,0,1.8-0.8,1.8-1.8s-0.8-1.8-1.8-1.8H181.8z M171.3,219.5
					c-1,0-1.8,0.8-1.8,1.8s0.8,1.8,1.8,1.8h83.5c1,0,1.8-0.8,1.8-1.8s-0.8-1.8-1.8-1.8H171.3z"/>
				<path d="M254.9,225.6h-83.5c-2.4,0-4.3-1.9-4.3-4.3s1.9-4.3,4.3-4.3h83.5c2.4,0,4.3,1.9,4.3,4.3S257.2,225.6,254.9,225.6z
					 M244.4,210.5h-62.5c-2.4,0-4.3-1.9-4.3-4.3s1.9-4.3,4.3-4.3h62.5c2.4,0,4.3,1.9,4.3,4.3S246.7,210.5,244.4,210.5z"/>
			</g>
		</g>
	</g>
	<g text-rendering="geometricPrecision">
		<g>
			<g>
				<path d="M298.2,149.9L298.2,149.9l-41.8,72.3c-0.5,0.9-1.6,1.2-2.5,0.7s-1.2-1.6-0.7-2.5l0,0l41.8-72.3c0.5-0.9,1.6-1.2,2.5-0.7
					S298.7,149,298.2,149.9z"/>
				<path d="M254.9,225.6c-0.7,0-1.5-0.2-2.1-0.6c-1-0.6-1.7-1.5-2-2.6s-0.1-2.3,0.4-3.3l41.8-72.3c1.2-2.1,3.8-2.8,5.9-1.6
					s2.8,3.8,1.6,5.9l0,0l-41.8,72.3C257.8,224.8,256.3,225.6,254.9,225.6z"/>
			</g>
		</g>
	</g>
</g>
</svg>
