<?xml version="1.0" encoding="utf-8"?>
<svg version="1.1" id="Layer_1" color-rendering="auto" shape-rendering="auto" image-rendering="auto" text-rendering="auto"
	 xmlns="http://www.w3.org/2000/svg" xmlns:xlink="http://www.w3.org/1999/xlink" x="0px" y="0px" viewBox="0 0 86.37 25.34"
	 width="100px"
	 style="enable-background:new 0 0 86.37 25.34;" xml:space="preserve">
<g>
	<g>
		<g>
			<path d="M59.13,25.06c0.3,0,0.61-0.08,0.9-0.19C59.74,24.98,59.44,25.05,59.13,25.06C59.13,25.05,59.13,25.06,59.13,25.06z"/>
			<path d="M58.24,24.87c-0.11-0.04-0.22-0.07-0.32-0.13C58.02,24.79,58.13,24.82,58.24,24.87z"/>
			<path d="M59.82,17.03c0.42,0,0.84-0.11,1.22-0.33L81.73,4.76c1.17-0.68,1.57-2.18,0.9-3.36c-0.33-0.57-0.86-0.97-1.49-1.14
				c-0.63-0.17-1.3-0.08-1.86,0.25L58.59,12.45c-0.57,0.33-0.97,0.86-1.14,1.49c-0.17,0.63-0.08,1.3,0.24,1.86
				C58.14,16.59,58.97,17.03,59.82,17.03z"/>
			<path d="M82.58,6.23L59.13,19.76l1.23,0.71c0.57,0.33,0.97,0.86,1.14,1.49c0.17,0.63,0.08,1.3-0.25,1.86
				c-0.23,0.39-0.54,0.69-0.91,0.9c0,0,0.01,0,0.01,0l24.68-14.25c1.17-0.68,1.57-2.18,0.9-3.35C85.26,5.95,83.75,5.55,82.58,6.23z"
				/>
			<path d="M26.25,2.13c0.07-0.04,0.15-0.07,0.23-0.1C26.4,2.06,26.33,2.09,26.25,2.13z"/>
			<path d="M27.65,1.85c0.09,0.01,0.18,0.03,0.27,0.05C27.83,1.88,27.74,1.86,27.65,1.85z"/>
			<path d="M28.12,1.94C28.2,1.97,28.28,2,28.36,2.03C28.28,2,28.2,1.97,28.12,1.94z"/>
			<path d="M27.18,1.85c0.08-0.01,0.16-0.01,0.24-0.01C27.34,1.84,27.26,1.84,27.18,1.85z"/>
			<path d="M26.78,1.92c-0.02,0.01-0.04,0.02-0.07,0.03c0.07-0.02,0.14-0.03,0.21-0.05C26.87,1.9,26.83,1.91,26.78,1.92z"/>
			<path d="M61.26,23.83c0.33-0.57,0.42-1.23,0.25-1.86c-0.17-0.63-0.58-1.16-1.14-1.49l-1.23-0.71L28.64,2.16
				c-0.02-0.01-0.04-0.02-0.07-0.03c0.4,0.21,0.73,0.53,0.97,0.93c0.68,1.17,0.27,2.68-0.9,3.35h0l-1.23,0.71l30.49,17.6
				c0,0,0.01,0,0.01,0c0.1,0.06,0.21,0.09,0.32,0.13c0.29,0.11,0.59,0.19,0.89,0.19c0,0,0,0,0,0c0.31,0,0.61-0.08,0.9-0.19
				c0.11-0.04,0.22-0.07,0.31-0.13C60.71,24.52,61.03,24.22,61.26,23.83z"/>
			<path d="M28.64,6.42c1.17-0.68,1.58-2.18,0.9-3.35c-0.23-0.4-0.57-0.72-0.97-0.93c-0.07-0.04-0.15-0.07-0.22-0.1
				C28.28,2,28.2,1.97,28.12,1.94c-0.02-0.01-0.04-0.02-0.06-0.02c-0.04-0.01-0.09-0.01-0.13-0.02c-0.09-0.02-0.18-0.04-0.27-0.05
				c-0.08-0.01-0.15-0.01-0.22-0.01c-0.08,0-0.16,0-0.24,0.01c-0.09,0.01-0.17,0.03-0.26,0.04c-0.07,0.01-0.14,0.03-0.21,0.05
				C26.63,1.97,26.56,2,26.48,2.03c-0.08,0.03-0.15,0.06-0.23,0.1c-0.02,0.01-0.04,0.02-0.07,0.03L1.49,16.42
				c-1.17,0.68-1.57,2.18-0.9,3.35c0.33,0.57,0.86,0.97,1.49,1.14c0.21,0.06,0.43,0.09,0.64,0.09c0.43,0,0.85-0.11,1.22-0.33
				L27.42,7.13L28.64,6.42L28.64,6.42z"/>
		</g>
	</g>
</g>
</svg>
