<?xml version="1.0" encoding="utf-8"?>
<svg version="1.1" id="Layer_1" shape-rendering="auto" color-rendering="auto" text-rendering="auto" image-rendering="auto"
	 xmlns="http://www.w3.org/2000/svg" xmlns:xlink="http://www.w3.org/1999/xlink" x="0px" y="0px" viewBox="0 0 425.1 298"
	 width="100px"
	 style="enable-background:new 0 0 425.1 298;" xml:space="preserve">
<g>
	<g text-rendering="geometricPrecision">
		<g>
			<g>
				<path d="M401.4,148.3c0.5,0.9,1.6,1.2,2.5,0.7s1.2-1.6,0.7-2.5l-31.3-54.1c-0.5-0.9-1.6-1.2-2.5-0.7s-1.2,1.6-0.7,2.5
					L401.4,148.3z M419.7,149.9c0.5,0.9,1.6,1.2,2.5,0.7s1.2-1.6,0.7-2.5l-41.8-72.3c-0.5-0.9-1.6-1.2-2.5-0.7s-1.2,1.6-0.7,2.5
					L419.7,149.9z"/>
				<path d="M421.3,153.3c-1.5,0-2.9-0.8-3.7-2.2l-41.8-72.3c-0.6-1-0.7-2.2-0.4-3.3c0.3-1.1,1-2,2-2.6s2.2-0.7,3.3-0.4
					c1.1,0.3,2,1,2.6,2l41.8,72.3c1.2,2.1,0.5,4.7-1.6,5.9C422.8,153.1,422,153.3,421.3,153.3z M403,151.7c-1.5,0-2.9-0.8-3.7-2.2
					L368,95.4c-0.6-1-0.7-2.2-0.4-3.3c0.3-1.1,1-2,2-2.6s2.2-0.7,3.3-0.4c1.1,0.3,2,1,2.6,2l31.3,54.1c1.2,2.1,0.5,4.7-1.6,5.9
					C404.5,151.6,403.7,151.7,403,151.7z"/>
			</g>
		</g>
	</g>
	<g text-rendering="geometricPrecision">
		<g>
			<g>
				<path d="M379.5,78.5L379.5,78.5H296c-1,0-1.8-0.8-1.8-1.8s0.8-1.8,1.8-1.8l0,0h83.5c1,0,1.8,0.8,1.8,1.8
					C381.4,77.7,380.5,78.5,379.5,78.5z"/>
				<path d="M379.5,81H296c-2.4,0-4.3-1.9-4.3-4.3s1.9-4.3,4.3-4.3h83.5c2.4,0,4.3,1.9,4.3,4.3C383.9,79,381.9,81,379.5,81z"/>
			</g>
		</g>
	</g>
	<g text-rendering="geometricPrecision">
		<g>
			<g>
				<path d="M305.4,94.2c0.5-0.9,0.2-2-0.7-2.5c-0.9-0.5-2-0.2-2.5,0.7l-31.3,54.1c-0.5,0.9-0.2,2,0.7,2.5c0.9,0.5,2,0.2,2.5-0.7
					L305.4,94.2z M297.6,77.6c0.5-0.9,0.2-2-0.7-2.5c-0.9-0.5-2-0.2-2.5,0.7l-41.8,72.3c-0.5,0.9-0.2,2,0.7,2.5
					c0.9,0.5,2,0.2,2.5-0.7L297.6,77.6z"/>
				<path d="M254.3,153.3c-0.7,0-1.5-0.2-2.1-0.6c-1-0.6-1.7-1.5-2-2.6s-0.1-2.3,0.4-3.3l41.8-72.3c0.6-1,1.5-1.7,2.6-2
					s2.3-0.1,3.3,0.4c2.1,1.2,2.8,3.8,1.6,5.9l0,0l-41.8,72.3c-0.6,1-1.5,1.7-2.6,2C255,153.3,254.6,153.3,254.3,153.3z
					 M272.6,151.7c-0.7,0-1.5-0.2-2.1-0.6c-1-0.6-1.7-1.5-2-2.6s-0.1-2.3,0.4-3.3l31.3-54.1c1.2-2.1,3.8-2.8,5.9-1.6
					c2.1,1.2,2.8,3.8,1.6,5.9l0,0l-31.3,54.1c-0.6,1-1.5,1.7-2.6,2C273.3,151.7,272.9,151.7,272.6,151.7z M303.2,93L303.2,93
					L303.2,93z"/>
			</g>
		</g>
	</g>
	<g text-rendering="geometricPrecision">
		<g>
			<g>
				<path d="M255.8,148.1L255.8,148.1l41.8,72.3c0.5,0.9,0.2,2-0.7,2.5c-0.9,0.5-2,0.2-2.5-0.7l0,0l-41.8-72.3
					c-0.5-0.9-0.2-2,0.7-2.5C254.2,146.9,255.3,147.2,255.8,148.1z"/>
				<path d="M296,225.6c-1.5,0-2.9-0.8-3.7-2.2l-41.8-72.2c-0.6-1-0.7-2.2-0.4-3.3c0.3-1.1,1-2,2-2.6s2.2-0.7,3.3-0.4
					c1.1,0.3,2,1,2.6,2l41.8,72.3c1.2,2.1,0.5,4.7-1.6,5.9C297.5,225.5,296.8,225.6,296,225.6z M253.7,149.3L253.7,149.3
					L253.7,149.3z"/>
			</g>
		</g>
	</g>
	<g text-rendering="geometricPrecision">
		<g>
			<g>
				<path d="M297.6,222.2L297.6,222.2l-41.8,72.3c-0.5,0.9-1.6,1.2-2.5,0.7s-1.2-1.6-0.7-2.5l0,0l41.8-72.3c0.5-0.9,1.6-1.2,2.5-0.7
					C297.8,220.3,298.1,221.4,297.6,222.2z"/>
				<path d="M254.3,298c-0.7,0-1.5-0.2-2.1-0.6c-1-0.6-1.7-1.5-2-2.6s-0.1-2.3,0.4-3.3l41.8-72.3c1.2-2.1,3.8-2.8,5.9-1.6
					s2.8,3.8,1.6,5.9l0,0l-41.8,72.3C257.2,297.2,255.7,298,254.3,298z"/>
			</g>
		</g>
	</g>
	<g text-rendering="geometricPrecision">
		<g>
			<g>
				<path d="M254.3,295.5c1,0,1.8-0.8,1.8-1.8s-0.8-1.8-1.8-1.8h-83.5c-1,0-1.8,0.8-1.8,1.8s0.8,1.8,1.8,1.8H254.3z M243.8,280.4
					c1,0,1.8-0.8,1.8-1.8s-0.8-1.8-1.8-1.8h-62.5c-1,0-1.8,0.8-1.8,1.8s0.8,1.8,1.8,1.8H243.8z"/>
				<path d="M254.3,298h-83.5c-2.4,0-4.3-1.9-4.3-4.3s1.9-4.3,4.3-4.3h83.5c2.4,0,4.3,1.9,4.3,4.3S256.6,298,254.3,298z
					 M243.8,282.9h-62.5c-2.4,0-4.3-1.9-4.3-4.3s1.9-4.3,4.3-4.3h62.5c2.4,0,4.3,1.9,4.3,4.3S246.1,282.9,243.8,282.9z"/>
			</g>
		</g>
	</g>
	<g text-rendering="geometricPrecision">
		<g>
			<g>
				<path d="M169.2,294.6L169.2,294.6l-41.8-72.3c-0.5-0.9-0.2-2,0.7-2.5s2-0.2,2.5,0.7l0,0l41.8,72.3c0.5,0.9,0.2,2-0.7,2.5
					C170.8,295.7,169.7,295.4,169.2,294.6z"/>
				<path d="M170.7,298c-1.5,0-2.9-0.8-3.7-2.2l0,0l-41.8-72.3c-0.6-1-0.7-2.2-0.4-3.3s1-2,2-2.6c2.1-1.2,4.7-0.5,5.9,1.6l41.8,72.3
					c1.2,2.1,0.5,4.7-1.6,5.9C172.2,297.8,171.5,298,170.7,298z M171.3,293.3L171.3,293.3L171.3,293.3z"/>
			</g>
		</g>
	</g>
	<g text-rendering="geometricPrecision">
		<g>
			<g>
				<path d="M129,223.1c1,0,1.8-0.8,1.8-1.8s-0.8-1.8-1.8-1.8H45.5c-1,0-1.8,0.8-1.8,1.8s0.8,1.8,1.8,1.8H129z M118.5,208.1
					c1,0,1.8-0.8,1.8-1.8s-0.8-1.8-1.8-1.8H56c-1,0-1.8,0.8-1.8,1.8s0.8,1.8,1.8,1.8H118.5z"/>
				<path d="M129,225.6H45.5c-2.4,0-4.3-1.9-4.3-4.3s1.9-4.3,4.3-4.3H129c2.4,0,4.3,1.9,4.3,4.3S131.4,225.6,129,225.6z
					 M118.5,210.6H56c-2.4,0-4.3-1.9-4.3-4.3s1.9-4.3,4.3-4.3h62.5c2.4,0,4.3,1.9,4.3,4.3S120.8,210.6,118.5,210.6z"/>
			</g>
		</g>
	</g>
	<g text-rendering="geometricPrecision">
		<g>
			<g>
				<path d="M43.9,222.2L43.9,222.2L2.1,149.9c-0.5-0.9-0.2-2,0.7-2.5s2-0.2,2.5,0.7l0,0l41.8,72.3c0.5,0.9,0.2,2-0.7,2.5
					C45.5,223.4,44.4,223.1,43.9,222.2z"/>
				<path d="M45.5,225.6c-1.5,0-2.9-0.8-3.7-2.2l0,0L0,151.1c-0.6-1-0.7-2.2-0.4-3.3c0.3-1.1,1-2,2-2.6s2.2-0.7,3.3-0.4
					c1.1,0.3,2,1,2.6,2l41.8,72.3c1.2,2.1,0.5,4.7-1.6,5.9C46.9,225.5,46.2,225.6,45.5,225.6z M46.1,221L46.1,221L46.1,221z"/>
			</g>
		</g>
	</g>
	<g text-rendering="geometricPrecision">
		<g>
			<g>
				<path d="M2.1,148.1c-0.5,0.9-0.2,2,0.7,2.5c0.9,0.5,2,0.2,2.5-0.7l41.8-72.3c0.5-0.9,0.2-2-0.7-2.5c-0.9-0.5-2-0.2-2.5,0.7
					L2.1,148.1z M20.4,146.5c-0.5,0.9-0.2,2,0.7,2.5s2,0.2,2.5-0.7l31.3-54.1c0.5-0.9,0.2-2-0.7-2.5c-0.9-0.5-2-0.2-2.5,0.7
					L20.4,146.5z"/>
				<path d="M3.7,153.3c-0.7,0-1.5-0.2-2.1-0.6c-1-0.6-1.7-1.5-2-2.6s-0.1-2.3,0.4-3.3l41.8-72.3c0.6-1,1.5-1.7,2.6-2
					s2.3-0.1,3.3,0.4c1,0.6,1.7,1.5,2,2.6s0.1,2.3-0.4,3.3L7.5,151.1C6.6,152.5,5.2,153.3,3.7,153.3z M22,151.7
					c-0.7,0-1.5-0.2-2.1-0.6c-1-0.6-1.7-1.5-2-2.6s-0.1-2.3,0.4-3.3l31.2-54.1c0.6-1,1.5-1.7,2.6-2s2.3-0.1,3.3,0.4
					c1,0.6,1.7,1.5,2,2.6s0.1,2.3-0.4,3.3l-31.3,54.1c-0.6,1-1.5,1.7-2.6,2C22.7,151.7,22.4,151.7,22,151.7z M22.6,147.8L22.6,147.8
					L22.6,147.8z"/>
			</g>
		</g>
	</g>
	<g text-rendering="geometricPrecision">
		<g>
			<g>
				<path d="M45.5,74.9L45.5,74.9H129c1,0,1.8,0.8,1.8,1.8s-0.8,1.8-1.8,1.8l0,0H45.5c-1,0-1.8-0.8-1.8-1.8
					C43.6,75.7,44.5,74.9,45.5,74.9z"/>
				<path d="M129,81H45.5c-2.4,0-4.3-1.9-4.3-4.3s1.9-4.3,4.3-4.3H129c2.4,0,4.3,1.9,4.3,4.3C133.3,79,131.4,81,129,81z"/>
			</g>
		</g>
	</g>
	<g text-rendering="geometricPrecision">
		<g>
			<g>
				<path d="M127.4,75.8L127.4,75.8l41.8-72.3c0.5-0.9,1.6-1.2,2.5-0.7s1.2,1.6,0.7,2.5l0,0l-41.9,72.3c-0.5,0.9-1.6,1.2-2.5,0.7
					C127.2,77.7,126.9,76.6,127.4,75.8z"/>
				<path d="M129,81c-0.7,0-1.5-0.2-2.1-0.6c-1-0.6-1.7-1.5-2-2.6s-0.1-2.3,0.4-3.3l41.8-72.3c0.6-1,1.5-1.7,2.6-2s2.3-0.1,3.3,0.4
					c2.1,1.2,2.8,3.8,1.6,5.9l-41.8,72.3c-0.6,1-1.5,1.7-2.6,2C129.7,80.9,129.3,81,129,81z"/>
			</g>
		</g>
	</g>
	<g text-rendering="geometricPrecision">
		<g>
			<g>
				<path d="M170.7,2.5c-1,0-1.8,0.8-1.8,1.8s0.8,1.8,1.8,1.8h83.5c1,0,1.8-0.8,1.8-1.8s-0.8-1.8-1.8-1.8H170.7z M181.2,17.6
					c-1,0-1.8,0.8-1.8,1.8s0.8,1.8,1.8,1.8h62.5c1,0,1.8-0.8,1.8-1.8s-0.8-1.8-1.8-1.8H181.2z"/>
				<path d="M243.8,23.7h-62.5c-2.4,0-4.3-1.9-4.3-4.3c0-2.4,1.9-4.3,4.3-4.3h62.5c2.4,0,4.3,1.9,4.3,4.3
					C248.1,21.8,246.1,23.7,243.8,23.7z M254.3,8.6h-83.5c-2.4,0-4.3-1.9-4.3-4.3s1.9-4.3,4.3-4.3h83.5c2.4,0,4.3,1.9,4.3,4.3
					S256.6,8.6,254.3,8.6z"/>
			</g>
		</g>
	</g>
	<g text-rendering="geometricPrecision">
		<g>
			<g>
				<path d="M294.5,77.6L294.5,77.6L252.7,5.3c-0.5-0.9-0.2-2,0.7-2.5c0.9-0.5,2-0.2,2.5,0.7l0,0l41.8,72.3c0.5,0.9,0.2,2-0.7,2.5
					C296.1,78.7,295,78.4,294.5,77.6z"/>
				<path d="M296,81c-0.4,0-0.8,0-1.1-0.1c-1.1-0.3-2-1-2.6-2L250.5,6.5c-0.6-1-0.7-2.2-0.4-3.3c0.3-1.1,1-2,2-2.6s2.2-0.7,3.3-0.4
					c1.1,0.3,2,1,2.6,2l41.8,72.3c1.2,2.1,0.5,4.7-1.6,5.9C297.5,80.8,296.8,81,296,81z"/>
			</g>
		</g>
	</g>
	<g text-rendering="geometricPrecision">
		<g>
			<g>
				<path d="M148.8,77.3c-0.5-0.9-1.6-1.2-2.5-0.7s-1.2,1.6-0.7,2.5l31.3,54.1c0.5,0.9,1.6,1.2,2.5,0.7s1.2-1.6,0.7-2.5L148.8,77.3z
					 M130.5,75.8c-0.5-0.9-1.6-1.2-2.5-0.7s-1.2,1.6-0.7,2.5l41.8,72.3c0.5,0.9,1.6,1.2,2.5,0.7s1.2-1.6,0.7-2.5L130.5,75.8z"/>
				<path d="M170.7,153.3c-1.5,0-2.9-0.8-3.7-2.2l-41.8-72.3c-0.6-1-0.7-2.2-0.4-3.3c0.3-1.1,1-2,2-2.6s2.2-0.7,3.3-0.4
					c1.1,0.3,2,1,2.6,2l0,0l41.8,72.3c0.6,1,0.7,2.2,0.4,3.3s-1,2-2,2.6C172.2,153.1,171.5,153.3,170.7,153.3z M178.5,136.7
					c-0.4,0-0.8,0-1.1-0.1c-1.1-0.3-2-1-2.6-2l-31.3-54.2c-0.6-1-0.7-2.2-0.4-3.3s1-2,2-2.6c2.1-1.2,4.7-0.5,5.9,1.6l0,0l31.3,54.1
					c0.6,1,0.7,2.2,0.4,3.3s-1,2-2,2.6C180,136.5,179.3,136.7,178.5,136.7z"/>
			</g>
		</g>
	</g>
	<g text-rendering="geometricPrecision">
		<g>
			<g>
				<path d="M254.3,150.8L254.3,150.8h-83.5c-1,0-1.8-0.8-1.8-1.8s0.8-1.8,1.8-1.8l0,0h83.5c1,0,1.8,0.8,1.8,1.8
					S255.3,150.8,254.3,150.8z"/>
				<path d="M254.3,153.3h-83.5c-2.4,0-4.3-1.9-4.3-4.3s1.9-4.3,4.3-4.3h83.5c2.4,0,4.3,1.9,4.3,4.3S256.6,153.3,254.3,153.3z"/>
			</g>
		</g>
	</g>
	<g text-rendering="geometricPrecision">
		<g>
			<g>
				<path d="M127.4,220.4L127.4,220.4l41.8-72.3c0.5-0.9,1.6-1.2,2.5-0.7s1.2,1.6,0.7,2.5l0,0l-41.9,72.3c-0.5,0.9-1.6,1.2-2.5,0.7
					C127.2,222.4,126.9,221.3,127.4,220.4z"/>
				<path d="M129,225.6c-0.7,0-1.5-0.2-2.1-0.6c-1-0.6-1.7-1.5-2-2.6s-0.1-2.3,0.4-3.3l41.8-72.3c0.6-1,1.5-1.7,2.6-2
					s2.3-0.1,3.3,0.4c2.1,1.2,2.8,3.8,1.6,5.9l-41.8,72.3C131.9,224.9,130.5,225.6,129,225.6z"/>
			</g>
		</g>
	</g>
	<g text-rendering="geometricPrecision">
		<g>
			<g>
				<path d="M306.5,204.5c-1,0-1.8,0.8-1.8,1.8s0.8,1.8,1.8,1.8H369c1,0,1.8-0.8,1.8-1.8s-0.8-1.8-1.8-1.8H306.5z M296,219.5
					c-1,0-1.8,0.8-1.8,1.8s0.8,1.8,1.8,1.8h83.5c1,0,1.8-0.8,1.8-1.8s-0.8-1.8-1.8-1.8H296z"/>
				<path d="M379.5,225.6H296c-2.4,0-4.3-1.9-4.3-4.3s1.9-4.3,4.3-4.3h83.5c2.4,0,4.3,1.9,4.3,4.3S381.9,225.6,379.5,225.6z
					 M369,210.6h-62.5c-2.4,0-4.3-1.9-4.3-4.3s1.9-4.3,4.3-4.3H369c2.4,0,4.3,1.9,4.3,4.3S371.4,210.6,369,210.6z"/>
			</g>
		</g>
	</g>
	<g text-rendering="geometricPrecision">
		<g>
			<g>
				<path d="M422.9,149.9L422.9,149.9l-41.8,72.3c-0.5,0.9-1.6,1.2-2.5,0.7s-1.2-1.6-0.7-2.5l0,0l41.8-72.3c0.5-0.9,1.6-1.2,2.5-0.7
					C423.1,147.9,423.4,149,422.9,149.9z"/>
				<path d="M379.5,225.6c-0.7,0-1.5-0.2-2.1-0.6c-1-0.6-1.7-1.5-2-2.6s-0.1-2.3,0.4-3.3l41.8-72.3c0.6-1,1.5-1.7,2.6-2
					s2.3-0.1,3.3,0.4c2.1,1.2,2.8,3.8,1.6,5.9l-41.8,72.3C382.5,224.9,381,225.6,379.5,225.6z"/>
			</g>
		</g>
	</g>
</g>
</svg>
