<?xml version="1.0" encoding="utf-8"?>
<svg version="1.1" id="Layer_1" color-rendering="auto" text-rendering="auto" image-rendering="auto" shape-rendering="auto"
	 xmlns="http://www.w3.org/2000/svg" xmlns:xlink="http://www.w3.org/1999/xlink" x="0px" y="0px" viewBox="0 0 186 188"
	 height="100px"
	 style="enable-background:new 0 0 186 188;" xml:space="preserve">
<style type="text/css">
	.st0{enable-background:new    ;}
</style>
<g>
	<g text-rendering="geometricPrecision">
		<g>
			<g>
				<path d="M91.8,155.8L91.8,155.8v-40.2c0-1,0.8-1.8,1.8-1.8s1.8,0.8,1.8,1.8l0,0v40.2c0,1-0.8,1.8-1.8,1.8S91.8,156.8,91.8,155.8
					z"/>
				<path d="M93.6,159.1c-1.8,0-3.3-1.5-3.3-3.3v-40.2c0-1.8,1.5-3.3,3.3-3.3s3.3,1.5,3.3,3.3v40.2
					C96.9,157.6,95.4,159.1,93.6,159.1z M93.6,115.3c-0.2,0-0.3,0.1-0.3,0.3v40.2c0,0.2,0.1,0.3,0.3,0.3s0.3-0.1,0.3-0.3v-40.2
					C93.9,115.5,93.8,115.3,93.6,115.3z"/>
			</g>
		</g>
	</g>
	<g text-rendering="geometricPrecision">
		<g>
			<g>
				<path d="M91.8,72.8L91.8,72.8V32.6c0-1,0.8-1.8,1.8-1.8s1.8,0.8,1.8,1.8l0,0v40.2c0,1-0.8,1.8-1.8,1.8S91.8,73.8,91.8,72.8z"/>
				<path d="M93.6,76.1c-1.8,0-3.3-1.5-3.3-3.3V32.6c0-1.8,1.5-3.3,3.3-3.3s3.3,1.5,3.3,3.3v40.2C96.9,74.6,95.4,76.1,93.6,76.1z
					 M93.6,32.3c-0.2,0-0.3,0.1-0.3,0.3v40.2c0,0.2,0.1,0.3,0.3,0.3s0.3-0.1,0.3-0.3V32.6C93.9,32.4,93.8,32.3,93.6,32.3z"/>
			</g>
		</g>
	</g>
	<g text-rendering="geometricPrecision">
		<g>
			<g>
				<path d="M108.4,84.6c-1,0-1.8,0.8-1.8,1.8s0.8,1.8,1.8,1.8h49.5c1,0,1.8-0.8,1.8-1.8s-0.8-1.8-1.8-1.8H108.4z M108.4,99.6
					c-1,0-1.8,0.8-1.8,1.8s0.8,1.8,1.8,1.8h49.5c1,0,1.8-0.8,1.8-1.8s-0.8-1.8-1.8-1.8H108.4z"/>
				<path d="M157.9,104.7h-49.5c-1.8,0-3.3-1.5-3.3-3.3s1.5-3.3,3.3-3.3h49.5c1.8,0,3.3,1.5,3.3,3.3S159.7,104.7,157.9,104.7z
					 M108.4,101.1c-0.2,0-0.3,0.1-0.3,0.3s0.1,0.3,0.3,0.3h49.5c0.2,0,0.3-0.1,0.3-0.3s-0.1-0.3-0.3-0.3H108.4z M157.9,89.7h-49.5
					c-1.8,0-3.3-1.5-3.3-3.3s1.5-3.3,3.3-3.3h49.5c1.8,0,3.3,1.5,3.3,3.3S159.7,89.7,157.9,89.7z M108.4,86.1
					c-0.2,0-0.3,0.1-0.3,0.3s0.1,0.3,0.3,0.3h49.5c0.2,0,0.3-0.1,0.3-0.3s-0.1-0.3-0.3-0.3H108.4z"/>
			</g>
		</g>
	</g>
	<g text-rendering="geometricPrecision">
		<g>
			<g>
				<path d="M78.8,103.2c1,0,1.8-0.8,1.8-1.8s-0.8-1.8-1.8-1.8H29.3c-1,0-1.8,0.8-1.8,1.8s0.8,1.8,1.8,1.8H78.8z M78.8,88.2
					c1,0,1.8-0.8,1.8-1.8s-0.8-1.8-1.8-1.8H29.3c-1,0-1.8,0.8-1.8,1.8s0.8,1.8,1.8,1.8H78.8z"/>
				<path d="M78.8,104.7H29.3c-1.8,0-3.3-1.5-3.3-3.3s1.5-3.3,3.3-3.3h49.5c1.8,0,3.3,1.5,3.3,3.3S80.6,104.7,78.8,104.7z
					 M29.3,101.1c-0.2,0-0.3,0.1-0.3,0.3s0.1,0.3,0.3,0.3h49.5c0.2,0,0.3-0.1,0.3-0.3s-0.1-0.3-0.3-0.3H29.3z M78.8,89.7H29.3
					c-1.8,0-3.3-1.5-3.3-3.3s1.5-3.3,3.3-3.3h49.5c1.8,0,3.3,1.5,3.3,3.3S80.6,89.7,78.8,89.7z M29.3,86.1c-0.2,0-0.3,0.1-0.3,0.3
					s0.1,0.3,0.3,0.3h49.5c0.2,0,0.3-0.1,0.3-0.3s-0.1-0.3-0.3-0.3H29.3z"/>
			</g>
		</g>
	</g>
	<g text-rendering="geometricPrecision" transform="translate(112.9567,192.7303)">
		<g>
			<g class="st0">
				<path d="M-19.5-4.7c-3,0-5.3-0.8-6.8-2.4c-2.1-2-3.2-4.9-3.2-8.6c0-3.8,1.1-6.7,3.2-8.6c1.6-1.6,3.9-2.4,6.8-2.4
					s5.3,0.8,6.8,2.4c2.1,1.9,3.2,4.8,3.2,8.6c0,3.7-1.1,6.6-3.2,8.6C-14.2-5.5-16.5-4.7-19.5-4.7z M-15.3-10.3
					c1-1.3,1.5-3.1,1.5-5.4s-0.5-4.2-1.5-5.4c-1-1.2-2.4-1.9-4.1-1.9c-1.7,0-3.1,0.6-4.1,1.9c-1,1.3-1.5,3.1-1.5,5.4
					c0,2.4,0.5,4.2,1.5,5.4c1,1.3,2.4,1.9,4.1,1.9C-17.7-8.4-16.4-9.1-15.3-10.3z"/>
				<path d="M6.3-5.3v-9.3h-8.2v9.3h-4.3v-20.9h4.3v8h8.2v-8h4.3v20.9H6.3z"/>
			</g>
		</g>
	</g>
	<g text-rendering="geometricPrecision" transform="translate(115.8711,109.729)">
		<g>
			<g class="st0">
				<path d="M-21.1-8.3c1,0,1.9-0.1,2.5-0.3c1.2-0.4,1.8-1.2,1.8-2.4c0-0.7-0.3-1.2-0.9-1.6s-1.6-0.7-2.8-1l-2.2-0.5
					c-2.2-0.5-3.7-1-4.5-1.6c-1.4-1-2.1-2.5-2.1-4.5c0-1.9,0.7-3.4,2-4.7c1.3-1.3,3.4-1.9,6-1.9c2.2,0,4.1,0.6,5.6,1.7
					s2.4,2.9,2.4,5.1h-4.2c-0.1-1.3-0.6-2.1-1.6-2.7c-0.7-0.3-1.5-0.5-2.5-0.5c-1.1,0-2,0.2-2.7,0.7c-0.7,0.5-1,1.1-1,1.9
					c0,0.7,0.3,1.3,1,1.7c0.4,0.2,1.3,0.5,2.7,0.9l3.6,0.9c1.6,0.4,2.8,0.9,3.6,1.5c1.2,1,1.9,2.4,1.9,4.3s-0.7,3.5-2.2,4.8
					s-3.5,1.9-6.2,1.9s-4.9-0.6-6.4-1.9c-1.6-1.2-2.3-2.9-2.3-5.1h4.2c0.1,1,0.4,1.7,0.8,2.1C-24-8.7-22.8-8.3-21.1-8.3z"/>
			</g>
		</g>
	</g>
	<g text-rendering="geometricPrecision" transform="translate(112.9567,26.7277)">
		<g>
			<g class="st0">
				<path d="M-19.5-4.7c-3,0-5.3-0.8-6.8-2.4c-2.1-2-3.2-4.9-3.2-8.6c0-3.8,1.1-6.7,3.2-8.6c1.6-1.6,3.9-2.4,6.8-2.4
					s5.3,0.8,6.8,2.4c2.1,1.9,3.2,4.8,3.2,8.6c0,3.7-1.1,6.6-3.2,8.6C-14.2-5.5-16.5-4.7-19.5-4.7z M-15.3-10.3
					c1-1.3,1.5-3.1,1.5-5.4s-0.5-4.2-1.5-5.4c-1-1.2-2.4-1.9-4.1-1.9c-1.7,0-3.1,0.6-4.1,1.9c-1,1.3-1.5,3.1-1.5,5.4
					c0,2.4,0.5,4.2,1.5,5.4c1,1.3,2.4,1.9,4.1,1.9C-17.7-8.4-16.4-9.1-15.3-10.3z"/>
				<path d="M6.3-5.3v-9.3h-8.2v9.3h-4.3v-20.9h4.3v8h8.2v-8h4.3v20.9H6.3z"/>
			</g>
		</g>
	</g>
	<g text-rendering="geometricPrecision" transform="translate(195.458,109.729)">
		<g>
			<g class="st0">
				<path d="M-19.5-4.7c-3,0-5.3-0.8-6.8-2.4c-2.1-2-3.2-4.9-3.2-8.6c0-3.8,1.1-6.7,3.2-8.6c1.6-1.6,3.9-2.4,6.8-2.4
					s5.3,0.8,6.8,2.4c2.1,1.9,3.2,4.8,3.2,8.6c0,3.7-1.1,6.6-3.2,8.6C-14.2-5.5-16.5-4.7-19.5-4.7z M-15.3-10.3
					c1-1.3,1.5-3.1,1.5-5.4s-0.5-4.2-1.5-5.4c-1-1.2-2.4-1.9-4.1-1.9s-3.1,0.6-4.1,1.9c-1,1.3-1.5,3.1-1.5,5.4
					c0,2.4,0.5,4.2,1.5,5.4c1,1.3,2.4,1.9,4.1,1.9C-17.7-8.4-16.4-9.1-15.3-10.3z"/>
			</g>
		</g>
	</g>
	<g text-rendering="geometricPrecision" transform="translate(29.4553,109.729)">
		<g>
			<g class="st0">
				<path d="M-19.5-4.7c-3,0-5.3-0.8-6.8-2.4c-2.1-2-3.2-4.9-3.2-8.6c0-3.8,1.1-6.7,3.2-8.6c1.6-1.6,3.9-2.4,6.8-2.4
					c3,0,5.3,0.8,6.8,2.4c2.1,1.9,3.2,4.8,3.2,8.6c0,3.7-1.1,6.6-3.2,8.6C-14.2-5.5-16.5-4.7-19.5-4.7z M-15.3-10.3
					c1-1.3,1.5-3.1,1.5-5.4s-0.5-4.2-1.5-5.4c-1-1.3-2.4-1.9-4.1-1.9s-3.1,0.6-4.1,1.9c-1,1.3-1.5,3.1-1.5,5.4
					c0,2.4,0.5,4.2,1.5,5.4c1,1.3,2.4,1.9,4.1,1.9C-17.7-8.4-16.4-9.1-15.3-10.3z"/>
			</g>
		</g>
	</g>
</g>
</svg>
