<?xml version="1.0" encoding="utf-8"?>
<svg version="1.1" id="Layer_1" shape-rendering="auto" color-rendering="auto" text-rendering="auto" image-rendering="auto"
	 xmlns="http://www.w3.org/2000/svg" xmlns:xlink="http://www.w3.org/1999/xlink" x="0px" y="0px" viewBox="0 0 100 97.6"
	 width="100px"
	 style="enable-background:new 0 0 100 97.6;" xml:space="preserve">
<style type="text/css">
	.st0{enable-background:new    ;}
</style>
<g>
	<g text-rendering="geometricPrecision">
		<g>
			<g>
				<path d="M49.5,80.7L49.5,80.7V48.8c0-0.5,0.4-0.9,0.9-0.9s0.9,0.4,0.9,0.9l0,0v31.9c0,0.5-0.4,0.9-0.9,0.9S49.5,81.2,49.5,80.7z
					"/>
				<path d="M50.5,82.9c-1.2,0-2.2-1-2.2-2.2V48.8c0-1.2,1-2.2,2.2-2.2s2.2,1,2.2,2.2v31.9C52.7,81.9,51.7,82.9,50.5,82.9z"/>
			</g>
		</g>
		<g>
			<g>
				<path d="M49.5,80.7L49.5,80.7V48.8c0-0.5,0.4-0.9,0.9-0.9s0.9,0.4,0.9,0.9l0,0v31.9c0,0.5-0.4,0.9-0.9,0.9S49.5,81.2,49.5,80.7z
					"/>
				<path d="M50.5,82.9c-1.2,0-2.2-1-2.2-2.2V48.8c0-1.2,1-2.2,2.2-2.2s2.2,1,2.2,2.2v31.9C52.7,81.9,51.7,82.9,50.5,82.9z"/>
			</g>
		</g>
	</g>
	<g text-rendering="geometricPrecision">
		<g>
			<g>
				<path d="M49.5,48.8L49.5,48.8V17.2c0-0.5,0.4-0.9,0.9-0.9s0.9,0.4,0.9,0.9l0,0v31.6c0,0.5-0.4,0.9-0.9,0.9S49.5,49.3,49.5,48.8z
					"/>
				<path d="M50.5,51c-1.2,0-2.2-1-2.2-2.2V17.2c0-1.2,1-2.2,2.2-2.2s2.2,1,2.2,2.2v31.6C52.7,50,51.7,51,50.5,51z"/>
			</g>
		</g>
		<g>
			<g>
				<path d="M49.5,48.8L49.5,48.8V17.2c0-0.5,0.4-0.9,0.9-0.9s0.9,0.4,0.9,0.9l0,0v31.6c0,0.5-0.4,0.9-0.9,0.9S49.5,49.3,49.5,48.8z
					"/>
				<path d="M50.5,51c-1.2,0-2.2-1-2.2-2.2V17.2c0-1.2,1-2.2,2.2-2.2s2.2,1,2.2,2.2v31.6C52.7,50,51.7,51,50.5,51z"/>
			</g>
		</g>
	</g>
	<g text-rendering="geometricPrecision">
		<g>
			<g>
				<path d="M50.5,47.9L50.5,47.9h32.1c0.5,0,0.9,0.4,0.9,0.9s-0.4,0.9-0.9,0.9l0,0H50.5c-0.5,0-0.9-0.4-0.9-0.9S50,47.9,50.5,47.9z
					"/>
				<path d="M82.6,51H50.5c-1.2,0-2.2-1-2.2-2.2s1-2.2,2.2-2.2h32.1c1.2,0,2.2,1,2.2,2.2C84.8,50,83.8,51,82.6,51z"/>
			</g>
		</g>
		<g>
			<g>
				<path d="M50.5,47.9L50.5,47.9h32.1c0.5,0,0.9,0.4,0.9,0.9s-0.4,0.9-0.9,0.9l0,0H50.5c-0.5,0-0.9-0.4-0.9-0.9S50,47.9,50.5,47.9z
					"/>
				<path d="M82.6,51H50.5c-1.2,0-2.2-1-2.2-2.2s1-2.2,2.2-2.2h32.1c1.2,0,2.2,1,2.2,2.2C84.8,50,83.8,51,82.6,51z"/>
			</g>
		</g>
	</g>
	<g text-rendering="geometricPrecision">
		<g>
			<g>
				<path d="M50.5,49.7L50.5,49.7H18.3c-0.5,0-0.9-0.4-0.9-0.9s0.4-0.9,0.9-0.9l0,0h32.1c0.5,0,0.9,0.4,0.9,0.9S51,49.7,50.5,49.7z"
					/>
				<path d="M50.5,51H18.3c-1.2,0-2.2-1-2.2-2.2s1-2.2,2.2-2.2l0,0h32.1c1.2,0,2.2,1,2.2,2.2C52.7,50,51.7,51,50.5,51z M18.3,49.2
					L18.3,49.2L18.3,49.2L18.3,49.2z"/>
			</g>
		</g>
		<g>
			<g>
				<path d="M50.5,49.7L50.5,49.7H18.3c-0.5,0-0.9-0.4-0.9-0.9s0.4-0.9,0.9-0.9l0,0h32.1c0.5,0,0.9,0.4,0.9,0.9S51,49.7,50.5,49.7z"
					/>
				<path d="M50.5,51H18.3c-1.2,0-2.2-1-2.2-2.2s1-2.2,2.2-2.2l0,0h32.1c1.2,0,2.2,1,2.2,2.2C52.7,50,51.7,51,50.5,51z M18.3,49.2
					L18.3,49.2L18.3,49.2L18.3,49.2z"/>
			</g>
		</g>
	</g>
	<g text-rendering="geometricPrecision" transform="translate(111.9911,192.9053)">
		<g>
			<g class="st0">
				<path d="M-60.5-96.1c-0.8,0.8-1.9,1.1-3.2,1.1c-1.6,0-2.9-0.5-3.8-1.6c-0.9-1-1.4-2.4-1.4-4.2c0-2,0.5-3.5,1.6-4.5
					c0.9-0.9,2.1-1.4,3.5-1.4c1.9,0,3.3,0.6,4.1,1.9c0.5,0.7,0.7,1.4,0.8,2.1h-2.3c-0.2-0.5-0.4-0.9-0.6-1.2c-0.4-0.5-1-0.7-1.9-0.7
					c-0.8,0-1.5,0.4-2,1c-0.6,0.7-0.8,1.6-0.8,2.9c0,1.2,0.3,2.2,0.8,2.8c0.5,0.6,1.2,0.9,2,0.9c0.8,0,1.5-0.3,1.9-0.8
					c0.3-0.3,0.4-0.7,0.6-1.3h2.3C-59.1-97.9-59.7-96.9-60.5-96.1z"/>
				<path d="M-57.3-106.5h2.2v11.2h-2.2V-106.5z"/>
			</g>
		</g>
	</g>
	<g text-rendering="geometricPrecision" transform="translate(111.9911,26.5527)">
		<g>
			<g class="st0">
				<path d="M-60.5-16c-0.8,0.8-1.9,1.1-3.2,1.1c-1.6,0-2.9-0.5-3.8-1.6c-0.9-1-1.4-2.4-1.4-4.2c0-2,0.5-3.5,1.6-4.5
					c0.9-0.9,2.1-1.4,3.5-1.4c1.9,0,3.3,0.6,4.1,1.9c0.5,0.7,0.7,1.4,0.8,2.1h-2.3c-0.2-0.5-0.4-0.9-0.6-1.2c-0.4-0.5-1-0.7-1.9-0.7
					c-0.8,0-1.5,0.4-2,1c-0.6,0.7-0.8,1.6-0.8,2.9c0,1.2,0.3,2.2,0.8,2.8c0.5,0.6,1.2,0.9,2,0.9c0.8,0,1.5-0.3,1.9-0.8
					c0.3-0.3,0.4-0.7,0.6-1.3h2.3C-59.1-17.7-59.7-16.8-60.5-16z"/>
				<path d="M-57.3-26.3h2.2v11.2h-2.2V-26.3z"/>
			</g>
		</g>
	</g>
	<g text-rendering="geometricPrecision" transform="translate(195.1674,109.729)">
		<g>
			<g class="st0">
				<path d="M-100.6-56c-0.8,0.8-1.9,1.1-3.2,1.1c-1.6,0-2.9-0.5-3.8-1.6c-0.9-1-1.4-2.4-1.4-4.2c0-2,0.5-3.5,1.6-4.5
					c0.9-0.9,2.1-1.4,3.5-1.4c1.9,0,3.3,0.6,4.1,1.9c0.5,0.7,0.7,1.4,0.8,2.1h-2.3c-0.2-0.5-0.4-0.9-0.6-1.2c-0.4-0.5-1-0.7-1.9-0.7
					c-0.8,0-1.5,0.4-2,1c-0.6,0.7-0.8,1.6-0.8,2.9c0,1.2,0.3,2.2,0.8,2.8s1.2,0.9,2,0.9s1.5-0.3,1.9-0.8c0.3-0.3,0.4-0.7,0.6-1.3
					h2.3C-99.2-57.8-99.7-56.8-100.6-56z"/>
				<path d="M-97.3-66.4h2.2v11.2h-2.2V-66.4z"/>
			</g>
		</g>
	</g>
	<g text-rendering="geometricPrecision" transform="translate(28.8148,109.729)">
		<g>
			<g class="st0">
				<path d="M-20.4-56c-0.8,0.8-1.9,1.1-3.2,1.1c-1.6,0-2.9-0.5-3.8-1.6c-0.9-1-1.4-2.4-1.4-4.2c0-2,0.5-3.5,1.6-4.5
					c0.9-0.9,2.1-1.4,3.5-1.4c1.9,0,3.3,0.6,4.1,1.9c0.5,0.7,0.7,1.4,0.8,2.1h-2.3c-0.2-0.5-0.4-0.9-0.6-1.2c-0.4-0.5-1-0.7-1.9-0.7
					c-0.8,0-1.5,0.4-2,1c-0.6,0.7-0.8,1.6-0.8,2.9c0,1.2,0.3,2.2,0.8,2.8s1.2,0.9,2,0.9s1.5-0.3,1.9-0.8c0.3-0.3,0.4-0.7,0.6-1.3
					h2.3C-19.1-57.8-19.6-56.8-20.4-56z"/>
				<path d="M-17.2-66.4h2.2v11.2h-2.2V-66.4z"/>
			</g>
		</g>
	</g>
</g>
</svg>
